%TF.GenerationSoftware,KiCad,Pcbnew,8.0.4*%
%TF.CreationDate,2024-09-12T05:22:36-05:00*%
%TF.ProjectId,Robt,526f6274-2e6b-4696-9361-645f70636258,rev?*%
%TF.SameCoordinates,Original*%
%TF.FileFunction,Copper,L2,Bot*%
%TF.FilePolarity,Positive*%
%FSLAX46Y46*%
G04 Gerber Fmt 4.6, Leading zero omitted, Abs format (unit mm)*
G04 Created by KiCad (PCBNEW 8.0.4) date 2024-09-12 05:22:36*
%MOMM*%
%LPD*%
G01*
G04 APERTURE LIST*
%TA.AperFunction,ComponentPad*%
%ADD10R,1.600000X1.600000*%
%TD*%
%TA.AperFunction,ComponentPad*%
%ADD11C,1.600000*%
%TD*%
%TA.AperFunction,ComponentPad*%
%ADD12O,1.600000X1.600000*%
%TD*%
%TA.AperFunction,ComponentPad*%
%ADD13R,3.000000X3.000000*%
%TD*%
%TA.AperFunction,ComponentPad*%
%ADD14C,3.000000*%
%TD*%
%TA.AperFunction,ComponentPad*%
%ADD15R,1.700000X1.700000*%
%TD*%
%TA.AperFunction,ComponentPad*%
%ADD16O,1.700000X1.700000*%
%TD*%
%TA.AperFunction,ComponentPad*%
%ADD17C,1.800000*%
%TD*%
%TA.AperFunction,ComponentPad*%
%ADD18R,1.800000X1.800000*%
%TD*%
%TA.AperFunction,ComponentPad*%
%ADD19R,2.000000X2.000000*%
%TD*%
%TA.AperFunction,ComponentPad*%
%ADD20C,2.000000*%
%TD*%
%TA.AperFunction,ViaPad*%
%ADD21C,1.100000*%
%TD*%
%TA.AperFunction,ViaPad*%
%ADD22C,1.300000*%
%TD*%
%TA.AperFunction,Conductor*%
%ADD23C,1.000000*%
%TD*%
%TA.AperFunction,Conductor*%
%ADD24C,0.600000*%
%TD*%
G04 APERTURE END LIST*
D10*
%TO.P,C1,1*%
%TO.N,+5V*%
X184000000Y-48000000D03*
D11*
%TO.P,C1,2*%
%TO.N,GND*%
X186000000Y-48000000D03*
%TD*%
D10*
%TO.P,U2,1,EN1\u002C2*%
%TO.N,+5V*%
X181625000Y-72800000D03*
D12*
%TO.P,U2,2,1A*%
%TO.N,/C13*%
X184165000Y-72800000D03*
%TO.P,U2,3,1Y*%
%TO.N,/Pot_1*%
X186705000Y-72800000D03*
%TO.P,U2,4,GND*%
%TO.N,GND*%
X189245000Y-72800000D03*
%TO.P,U2,5,GND*%
X191785000Y-72800000D03*
%TO.P,U2,6,2Y*%
%TO.N,/Pot_2*%
X194325000Y-72800000D03*
%TO.P,U2,7,2A*%
%TO.N,/C12*%
X196865000Y-72800000D03*
%TO.P,U2,8,VCC2*%
%TO.N,+5V*%
X199405000Y-72800000D03*
%TO.P,U2,9,EN3\u002C4*%
X199405000Y-65180000D03*
%TO.P,U2,10,3A*%
%TO.N,/C27*%
X196865000Y-65180000D03*
%TO.P,U2,11,3Y*%
%TO.N,/Pot_4*%
X194325000Y-65180000D03*
%TO.P,U2,12,GND*%
%TO.N,GND*%
X191785000Y-65180000D03*
%TO.P,U2,13,GND*%
X189245000Y-65180000D03*
%TO.P,U2,14,4Y*%
%TO.N,/Pot_3*%
X186705000Y-65180000D03*
%TO.P,U2,15,4A*%
%TO.N,/C14*%
X184165000Y-65180000D03*
%TO.P,U2,16,VCC1*%
%TO.N,+5V*%
X181625000Y-65180000D03*
%TD*%
%TO.P,R15,2*%
%TO.N,Net-(U1-D23)*%
X143620000Y-104659000D03*
D11*
%TO.P,R15,1*%
%TO.N,Net-(D10-GK)*%
X136000000Y-104659000D03*
%TD*%
D12*
%TO.P,R14,2*%
%TO.N,Net-(U1-D22)*%
X143620000Y-100659000D03*
D11*
%TO.P,R14,1*%
%TO.N,Net-(D10-BK)*%
X136000000Y-100659000D03*
%TD*%
D12*
%TO.P,R13,2*%
%TO.N,/C21*%
X143620000Y-96659000D03*
D11*
%TO.P,R13,1*%
%TO.N,Net-(D10-RK)*%
X136000000Y-96659000D03*
%TD*%
D12*
%TO.P,R12,2*%
%TO.N,Net-(U1-D5)*%
X143620000Y-83659000D03*
D11*
%TO.P,R12,1*%
%TO.N,Net-(D7-RK)*%
X136000000Y-83659000D03*
%TD*%
D12*
%TO.P,R11,2*%
%TO.N,Net-(U1-D18)*%
X143620000Y-87659000D03*
D11*
%TO.P,R11,1*%
%TO.N,Net-(D7-BK)*%
X136000000Y-87659000D03*
%TD*%
D12*
%TO.P,R10,2*%
%TO.N,Net-(U1-D19)*%
X143620000Y-91659000D03*
D11*
%TO.P,R10,1*%
%TO.N,Net-(D7-GK)*%
X136000000Y-91659000D03*
%TD*%
D12*
%TO.P,R9,2*%
%TO.N,Net-(U1-D2)*%
X143620000Y-74659000D03*
D11*
%TO.P,R9,1*%
%TO.N,Net-(D2-BK)*%
X136000000Y-74659000D03*
%TD*%
%TO.P,R8,1*%
%TO.N,Net-(D2-GK)*%
X136000000Y-78659000D03*
D12*
%TO.P,R8,2*%
%TO.N,Net-(U1-D4)*%
X143620000Y-78659000D03*
%TD*%
D11*
%TO.P,R4,1*%
%TO.N,Net-(U1-D32)*%
X176800000Y-91760000D03*
D12*
%TO.P,R4,2*%
%TO.N,Net-(D1-BK)*%
X184420000Y-91760000D03*
%TD*%
D11*
%TO.P,R3,1*%
%TO.N,Net-(U1-D33)*%
X176800000Y-87760000D03*
D12*
%TO.P,R3,2*%
%TO.N,Net-(D1-RK)*%
X184420000Y-87760000D03*
%TD*%
D11*
%TO.P,R2,1*%
%TO.N,Net-(U1-D35)*%
X176800000Y-95760000D03*
D12*
%TO.P,R2,2*%
%TO.N,Net-(D1-GK)*%
X184420000Y-95760000D03*
%TD*%
%TO.P,R1,2*%
%TO.N,Net-(U1-D15)*%
X143620000Y-70659000D03*
D11*
%TO.P,R1,1*%
%TO.N,Net-(D2-RK)*%
X136000000Y-70659000D03*
%TD*%
D13*
%TO.P,J4,1,Pin_1*%
%TO.N,Net-(J2-Pin_11)*%
X221000000Y-84760000D03*
D14*
%TO.P,J4,2,Pin_2*%
%TO.N,Net-(J2-Pin_10)*%
X221000000Y-89840000D03*
%TO.P,J4,3,Pin_3*%
%TO.N,Net-(J2-Pin_9)*%
X221000000Y-94920000D03*
%TO.P,J4,4,Pin_4*%
%TO.N,Net-(J2-Pin_8)*%
X221000000Y-100000000D03*
%TD*%
%TO.P,J3,4,Pin_4*%
%TO.N,/Pot_3*%
X208500000Y-61420000D03*
%TO.P,J3,3,Pin_3*%
%TO.N,/Pot_4*%
X208500000Y-66500000D03*
%TO.P,J3,2,Pin_2*%
%TO.N,/Pot_2*%
X208500000Y-71580000D03*
D13*
%TO.P,J3,1,Pin_1*%
%TO.N,/Pot_1*%
X208500000Y-76660000D03*
%TD*%
D15*
%TO.P,J2,1,Pin_1*%
%TO.N,/C25*%
X178000000Y-126200000D03*
D16*
%TO.P,J2,2,Pin_2*%
%TO.N,unconnected-(J2-Pin_2-Pad2)*%
X178000000Y-123660000D03*
%TO.P,J2,3,Pin_3*%
%TO.N,unconnected-(J2-Pin_3-Pad3)*%
X178000000Y-121120000D03*
%TO.P,J2,4,Pin_4*%
%TO.N,unconnected-(J2-Pin_4-Pad4)*%
X178000000Y-118580000D03*
%TO.P,J2,5,Pin_5*%
%TO.N,+5V*%
X178000000Y-116040000D03*
%TO.P,J2,6,Pin_6*%
%TO.N,GND*%
X178000000Y-113500000D03*
%TO.P,J2,7,Pin_7*%
%TO.N,unconnected-(J2-Pin_7-Pad7)*%
X178000000Y-110960000D03*
%TO.P,J2,8,Pin_8*%
%TO.N,Net-(J2-Pin_8)*%
X178000000Y-108420000D03*
%TO.P,J2,9,Pin_9*%
%TO.N,Net-(J2-Pin_9)*%
X178000000Y-105880000D03*
%TO.P,J2,10,Pin_10*%
%TO.N,Net-(J2-Pin_10)*%
X178000000Y-103340000D03*
%TO.P,J2,11,Pin_11*%
%TO.N,Net-(J2-Pin_11)*%
X178000000Y-100800000D03*
%TD*%
D15*
%TO.P,J1,1,Pin_1*%
%TO.N,Net-(J1-Pin_1)*%
X128975000Y-114525000D03*
D16*
%TO.P,J1,2,Pin_2*%
%TO.N,GND*%
X128975000Y-111985000D03*
%TO.P,J1,3,Pin_3*%
%TO.N,+5V*%
X128975000Y-109445000D03*
%TD*%
D17*
%TO.P,D10,4,GK*%
%TO.N,Net-(D10-GK)*%
X119500000Y-101636000D03*
%TO.P,D10,3,A*%
%TO.N,GND*%
X119500000Y-99477000D03*
%TO.P,D10,2,BK*%
%TO.N,Net-(D10-BK)*%
X119500000Y-97318000D03*
D18*
%TO.P,D10,1,RK*%
%TO.N,Net-(D10-RK)*%
X119500000Y-95159000D03*
%TD*%
D17*
%TO.P,D9,4,GK*%
%TO.N,Net-(D10-GK)*%
X129985000Y-101688000D03*
%TO.P,D9,3,A*%
%TO.N,GND*%
X129985000Y-99529000D03*
%TO.P,D9,2,BK*%
%TO.N,Net-(D10-BK)*%
X129985000Y-97370000D03*
D18*
%TO.P,D9,1,RK*%
%TO.N,Net-(D10-RK)*%
X129985000Y-95211000D03*
%TD*%
D17*
%TO.P,D8,4,GK*%
%TO.N,Net-(D7-GK)*%
X119015000Y-90925000D03*
%TO.P,D8,3,A*%
%TO.N,GND*%
X119015000Y-88766000D03*
%TO.P,D8,2,BK*%
%TO.N,Net-(D7-BK)*%
X119015000Y-86607000D03*
D18*
%TO.P,D8,1,RK*%
%TO.N,Net-(D7-RK)*%
X119015000Y-84448000D03*
%TD*%
D17*
%TO.P,D7,4,GK*%
%TO.N,Net-(D7-GK)*%
X129500000Y-90818000D03*
%TO.P,D7,3,A*%
%TO.N,GND*%
X129500000Y-88659000D03*
%TO.P,D7,2,BK*%
%TO.N,Net-(D7-BK)*%
X129500000Y-86500000D03*
D18*
%TO.P,D7,1,RK*%
%TO.N,Net-(D7-RK)*%
X129500000Y-84341000D03*
%TD*%
D17*
%TO.P,D6,4,GK*%
%TO.N,Net-(D2-GK)*%
X120000000Y-80818000D03*
%TO.P,D6,3,A*%
%TO.N,GND*%
X120000000Y-78659000D03*
%TO.P,D6,2,BK*%
%TO.N,Net-(D2-BK)*%
X120000000Y-76500000D03*
D18*
%TO.P,D6,1,RK*%
%TO.N,Net-(D2-RK)*%
X120000000Y-74341000D03*
%TD*%
D17*
%TO.P,D3,4,GK*%
%TO.N,Net-(D1-GK)*%
X191000000Y-95159000D03*
%TO.P,D3,3,A*%
%TO.N,GND*%
X191000000Y-93000000D03*
%TO.P,D3,2,BK*%
%TO.N,Net-(D1-BK)*%
X191000000Y-90841000D03*
D18*
%TO.P,D3,1,RK*%
%TO.N,Net-(D1-RK)*%
X191000000Y-88682000D03*
%TD*%
D17*
%TO.P,D2,4,GK*%
%TO.N,Net-(D2-GK)*%
X130485000Y-80711000D03*
%TO.P,D2,3,A*%
%TO.N,GND*%
X130485000Y-78552000D03*
%TO.P,D2,2,BK*%
%TO.N,Net-(D2-BK)*%
X130485000Y-76393000D03*
D18*
%TO.P,D2,1,RK*%
%TO.N,Net-(D2-RK)*%
X130485000Y-74234000D03*
%TD*%
D17*
%TO.P,D1,4,GK*%
%TO.N,Net-(D1-GK)*%
X198500000Y-95159000D03*
%TO.P,D1,3,A*%
%TO.N,GND*%
X198500000Y-93000000D03*
%TO.P,D1,2,BK*%
%TO.N,Net-(D1-BK)*%
X198500000Y-90841000D03*
D18*
%TO.P,D1,1,RK*%
%TO.N,Net-(D1-RK)*%
X198500000Y-88682000D03*
%TD*%
D16*
%TO.P,BT1,2,-*%
%TO.N,GND*%
X157335000Y-40025000D03*
D15*
%TO.P,BT1,1,+*%
%TO.N,+5V*%
X159875000Y-40025000D03*
%TD*%
D19*
%TO.P,U1,1,3V3*%
%TO.N,unconnected-(U1-3V3-Pad1)*%
X147500000Y-71960000D03*
D20*
%TO.P,U1,2,GND*%
%TO.N,GND*%
X147500000Y-74500000D03*
%TO.P,U1,3,D15*%
%TO.N,Net-(U1-D15)*%
X147500000Y-77040000D03*
%TO.P,U1,4,D2*%
%TO.N,Net-(U1-D2)*%
X147500000Y-79580000D03*
%TO.P,U1,5,D4*%
%TO.N,Net-(U1-D4)*%
X147500000Y-82120000D03*
%TO.P,U1,6,RX2*%
%TO.N,unconnected-(U1-RX2-Pad6)*%
X147500000Y-84660000D03*
%TO.P,U1,7,TX2*%
%TO.N,unconnected-(U1-TX2-Pad7)*%
X147500000Y-87200000D03*
%TO.P,U1,8,D5*%
%TO.N,Net-(U1-D5)*%
X147500000Y-89740000D03*
%TO.P,U1,9,D18*%
%TO.N,Net-(U1-D18)*%
X147500000Y-92280000D03*
%TO.P,U1,10,D19*%
%TO.N,Net-(U1-D19)*%
X147500000Y-94820000D03*
%TO.P,U1,11,D21*%
%TO.N,/C21*%
X147500000Y-97360000D03*
%TO.P,U1,12,RX0*%
%TO.N,unconnected-(U1-RX0-Pad12)*%
X147500000Y-99900000D03*
%TO.P,U1,13,TX0*%
%TO.N,unconnected-(U1-TX0-Pad13)*%
X147500000Y-102440000D03*
%TO.P,U1,14,D22*%
%TO.N,Net-(U1-D22)*%
X147500000Y-104980000D03*
%TO.P,U1,15,D23*%
%TO.N,Net-(U1-D23)*%
X147500000Y-107520000D03*
%TO.P,U1,30,VIN*%
%TO.N,+5V*%
X172900000Y-71960000D03*
%TO.P,U1,29,GND*%
%TO.N,GND*%
X172900000Y-74500000D03*
%TO.P,U1,28,D13*%
%TO.N,/C13*%
X172900000Y-77040000D03*
%TO.P,U1,27,D12*%
%TO.N,/C12*%
X172900000Y-79580000D03*
%TO.P,U1,26,D14*%
%TO.N,/C14*%
X172900000Y-82120000D03*
%TO.P,U1,25,D27*%
%TO.N,/C27*%
X172900000Y-84660000D03*
%TO.P,U1,24,D26*%
%TO.N,unconnected-(U1-D26-Pad24)*%
X172900000Y-87200000D03*
%TO.P,U1,23,D25*%
%TO.N,/C25*%
X172900000Y-89740000D03*
%TO.P,U1,22,D33*%
%TO.N,Net-(U1-D33)*%
X172900000Y-92280000D03*
%TO.P,U1,21,D32*%
%TO.N,Net-(U1-D32)*%
X172900000Y-94820000D03*
%TO.P,U1,20,D35*%
%TO.N,Net-(U1-D35)*%
X172900000Y-97360000D03*
%TO.P,U1,19,D34*%
%TO.N,Net-(J1-Pin_1)*%
X172900000Y-99900000D03*
%TO.P,U1,18,VN*%
%TO.N,unconnected-(U1-VN-Pad18)*%
X172900000Y-102440000D03*
%TO.P,U1,17,VP*%
%TO.N,unconnected-(U1-VP-Pad17)*%
X172900000Y-104980000D03*
%TO.P,U1,16,EN*%
%TO.N,unconnected-(U1-EN-Pad16)*%
X172900000Y-107520000D03*
%TD*%
D21*
%TO.N,GND*%
X194000000Y-80000000D03*
X188500000Y-89500000D03*
D22*
X191500000Y-61500000D03*
D21*
X192000000Y-75000000D03*
D22*
X169500000Y-74500000D03*
X162000000Y-74500000D03*
D21*
%TO.N,Net-(J1-Pin_1)*%
X170500000Y-100500000D03*
X163000000Y-100500000D03*
%TO.N,/C27*%
X167000000Y-83500000D03*
X167000000Y-79500000D03*
%TO.N,/C12*%
X197000000Y-76000000D03*
X197000000Y-83304000D03*
D22*
%TO.N,GND*%
X178608500Y-72891500D03*
%TD*%
D23*
%TO.N,GND*%
X130485000Y-111985000D02*
X130500000Y-112000000D01*
X128975000Y-111985000D02*
X130485000Y-111985000D01*
X128015000Y-111985000D02*
X128975000Y-111985000D01*
X128015000Y-111985000D02*
X128000000Y-112000000D01*
X178000000Y-113500000D02*
X174500000Y-113500000D01*
X178000000Y-113500000D02*
X182000000Y-113500000D01*
D24*
X188500000Y-89500000D02*
X187000000Y-89500000D01*
X194000000Y-80000000D02*
X195000000Y-80000000D01*
D23*
X172900000Y-74500000D02*
X169500000Y-74500000D01*
X147500000Y-74500000D02*
X162000000Y-74500000D01*
%TO.N,+5V*%
X228000000Y-79500000D02*
X214000000Y-65500000D01*
X206960000Y-121040000D02*
X228000000Y-100000000D01*
X183000000Y-121040000D02*
X206960000Y-121040000D01*
X228000000Y-100000000D02*
X228000000Y-79500000D01*
X174806000Y-70054000D02*
X172900000Y-71960000D01*
X178879000Y-70054000D02*
X174806000Y-70054000D01*
X181625000Y-72800000D02*
X178879000Y-70054000D01*
X184371000Y-70054000D02*
X181625000Y-72800000D01*
X127555000Y-109445000D02*
X128975000Y-109445000D01*
X125500000Y-111500000D02*
X127555000Y-109445000D01*
X125500000Y-117500000D02*
X125500000Y-111500000D01*
X145500000Y-137500000D02*
X125500000Y-117500000D01*
X176000000Y-137500000D02*
X145500000Y-137500000D01*
X183000000Y-130500000D02*
X176000000Y-137500000D01*
X183000000Y-121040000D02*
X183000000Y-130500000D01*
X178000000Y-116040000D02*
X183000000Y-121040000D01*
D24*
%TO.N,Net-(J2-Pin_8)*%
X212500000Y-100000000D02*
X204080000Y-108420000D01*
X221000000Y-100000000D02*
X212500000Y-100000000D01*
X204080000Y-108420000D02*
X178000000Y-108420000D01*
%TO.N,Net-(J2-Pin_9)*%
X202120000Y-105880000D02*
X178000000Y-105880000D01*
X213080000Y-94920000D02*
X202120000Y-105880000D01*
X221000000Y-94920000D02*
X213080000Y-94920000D01*
%TO.N,Net-(J2-Pin_10)*%
X201500000Y-101500000D02*
X179840000Y-101500000D01*
X179840000Y-101500000D02*
X178000000Y-103340000D01*
X213160000Y-89840000D02*
X201500000Y-101500000D01*
X221000000Y-89840000D02*
X213160000Y-89840000D01*
%TO.N,Net-(J2-Pin_11)*%
X179800000Y-99000000D02*
X178000000Y-100800000D01*
X214740000Y-84760000D02*
X200500000Y-99000000D01*
X221000000Y-84760000D02*
X214740000Y-84760000D01*
X200500000Y-99000000D02*
X179800000Y-99000000D01*
%TO.N,Net-(J1-Pin_1)*%
X172300000Y-100500000D02*
X172900000Y-99900000D01*
X170500000Y-100500000D02*
X172300000Y-100500000D01*
%TO.N,/C25*%
X169280000Y-93360000D02*
X172900000Y-89740000D01*
X169280000Y-117480000D02*
X169280000Y-93360000D01*
X178000000Y-126200000D02*
X169280000Y-117480000D01*
%TO.N,Net-(D10-RK)*%
X128659000Y-95159000D02*
X119500000Y-95159000D01*
X128711000Y-95211000D02*
X128659000Y-95159000D01*
X129985000Y-95211000D02*
X128711000Y-95211000D01*
%TO.N,Net-(D10-BK)*%
X129985000Y-97370000D02*
X119552000Y-97370000D01*
X119552000Y-97370000D02*
X119500000Y-97318000D01*
D23*
%TO.N,GND*%
X129985000Y-99529000D02*
X119552000Y-99529000D01*
X119552000Y-99529000D02*
X119500000Y-99477000D01*
D24*
%TO.N,Net-(D10-GK)*%
X119552000Y-101688000D02*
X119500000Y-101636000D01*
X129985000Y-101688000D02*
X119552000Y-101688000D01*
X132956000Y-104659000D02*
X129985000Y-101688000D01*
X136000000Y-104659000D02*
X132956000Y-104659000D01*
%TO.N,Net-(D10-BK)*%
X133274000Y-100659000D02*
X129985000Y-97370000D01*
X136000000Y-100659000D02*
X133274000Y-100659000D01*
%TO.N,Net-(D10-RK)*%
X131433000Y-96659000D02*
X129985000Y-95211000D01*
X136000000Y-96659000D02*
X131433000Y-96659000D01*
%TO.N,Net-(U1-D23)*%
X144639000Y-104659000D02*
X147500000Y-107520000D01*
X143620000Y-104659000D02*
X144639000Y-104659000D01*
%TO.N,Net-(U1-D22)*%
X143620000Y-101100000D02*
X147500000Y-104980000D01*
X143620000Y-100659000D02*
X143620000Y-101100000D01*
%TO.N,/C21*%
X146799000Y-96659000D02*
X147500000Y-97360000D01*
X143620000Y-96659000D02*
X146799000Y-96659000D01*
%TO.N,Net-(U1-D19)*%
X144339000Y-91659000D02*
X147500000Y-94820000D01*
X143620000Y-91659000D02*
X144339000Y-91659000D01*
%TO.N,Net-(U1-D18)*%
X143620000Y-88400000D02*
X147500000Y-92280000D01*
X143620000Y-87659000D02*
X143620000Y-88400000D01*
%TO.N,Net-(U1-D5)*%
X144974000Y-87214000D02*
X147500000Y-89740000D01*
X143620000Y-83659000D02*
X144974000Y-85013000D01*
X144974000Y-85013000D02*
X144974000Y-87214000D01*
%TO.N,Net-(D7-GK)*%
X131159000Y-91659000D02*
X136000000Y-91659000D01*
X130318000Y-90818000D02*
X131159000Y-91659000D01*
X129500000Y-90818000D02*
X130318000Y-90818000D01*
%TO.N,Net-(D7-BK)*%
X134841000Y-86500000D02*
X136000000Y-87659000D01*
X129500000Y-86500000D02*
X134841000Y-86500000D01*
%TO.N,Net-(D7-RK)*%
X130523000Y-83659000D02*
X136000000Y-83659000D01*
X129500000Y-84341000D02*
X129841000Y-84341000D01*
X129841000Y-84341000D02*
X130523000Y-83659000D01*
%TO.N,Net-(D7-GK)*%
X119122000Y-90818000D02*
X119015000Y-90925000D01*
X129500000Y-90818000D02*
X119122000Y-90818000D01*
D23*
%TO.N,GND*%
X119122000Y-88659000D02*
X119015000Y-88766000D01*
X129500000Y-88659000D02*
X119122000Y-88659000D01*
D24*
%TO.N,Net-(D7-BK)*%
X128500000Y-86500000D02*
X128393000Y-86607000D01*
X128393000Y-86607000D02*
X119015000Y-86607000D01*
X129500000Y-86500000D02*
X128500000Y-86500000D01*
%TO.N,Net-(D7-RK)*%
X129500000Y-84341000D02*
X119122000Y-84341000D01*
X119122000Y-84341000D02*
X119015000Y-84448000D01*
%TO.N,Net-(D2-GK)*%
X120107000Y-80711000D02*
X120000000Y-80818000D01*
X130485000Y-80711000D02*
X120107000Y-80711000D01*
D23*
%TO.N,GND*%
X120107000Y-78552000D02*
X120000000Y-78659000D01*
X130485000Y-78552000D02*
X120107000Y-78552000D01*
D24*
%TO.N,Net-(D2-BK)*%
X120107000Y-76393000D02*
X120000000Y-76500000D01*
X130485000Y-76393000D02*
X120107000Y-76393000D01*
%TO.N,Net-(D2-RK)*%
X120107000Y-74234000D02*
X120000000Y-74341000D01*
X130485000Y-74234000D02*
X120107000Y-74234000D01*
%TO.N,Net-(D2-GK)*%
X132537000Y-78659000D02*
X130485000Y-80711000D01*
X136000000Y-78659000D02*
X132537000Y-78659000D01*
%TO.N,Net-(D2-BK)*%
X134266000Y-76393000D02*
X130485000Y-76393000D01*
X136000000Y-74659000D02*
X134266000Y-76393000D01*
%TO.N,Net-(D2-RK)*%
X134060000Y-70659000D02*
X130485000Y-74234000D01*
X136000000Y-70659000D02*
X134060000Y-70659000D01*
%TO.N,Net-(U1-D4)*%
X144039000Y-78659000D02*
X147500000Y-82120000D01*
X143620000Y-78659000D02*
X144039000Y-78659000D01*
%TO.N,Net-(U1-D2)*%
X143620000Y-75790370D02*
X147409630Y-79580000D01*
X147409630Y-79580000D02*
X147500000Y-79580000D01*
X143620000Y-74659000D02*
X143620000Y-75790370D01*
%TO.N,Net-(U1-D15)*%
X144974000Y-74514000D02*
X147500000Y-77040000D01*
X144974000Y-72013000D02*
X144974000Y-74514000D01*
X143620000Y-70659000D02*
X144974000Y-72013000D01*
%TO.N,Net-(D1-GK)*%
X191000000Y-95159000D02*
X198500000Y-95159000D01*
D23*
%TO.N,GND*%
X191000000Y-93000000D02*
X198500000Y-93000000D01*
D24*
%TO.N,Net-(D1-BK)*%
X191000000Y-90841000D02*
X198500000Y-90841000D01*
%TO.N,Net-(D1-RK)*%
X191000000Y-88682000D02*
X198500000Y-88682000D01*
D23*
%TO.N,+5V*%
X168000000Y-54000000D02*
X167125000Y-54000000D01*
D24*
%TO.N,Net-(D1-GK)*%
X190399000Y-95760000D02*
X191000000Y-95159000D01*
X184420000Y-95760000D02*
X190399000Y-95760000D01*
%TO.N,Net-(D1-BK)*%
X190081000Y-91760000D02*
X191000000Y-90841000D01*
X184420000Y-91760000D02*
X190081000Y-91760000D01*
%TO.N,Net-(D1-RK)*%
X190078000Y-87760000D02*
X191000000Y-88682000D01*
X184420000Y-87760000D02*
X190078000Y-87760000D01*
%TO.N,Net-(U1-D35)*%
X174500000Y-95760000D02*
X172900000Y-97360000D01*
X176800000Y-95760000D02*
X174500000Y-95760000D01*
%TO.N,Net-(U1-D32)*%
X175960000Y-91760000D02*
X172900000Y-94820000D01*
X176800000Y-91760000D02*
X175960000Y-91760000D01*
%TO.N,Net-(U1-D33)*%
X176800000Y-88380000D02*
X172900000Y-92280000D01*
X176800000Y-87760000D02*
X176800000Y-88380000D01*
D23*
%TO.N,+5V*%
X180000000Y-42500000D02*
X168500000Y-54000000D01*
X194000000Y-42500000D02*
X180000000Y-42500000D01*
X210174000Y-69326000D02*
X214000000Y-65500000D01*
X214000000Y-65500000D02*
X214000000Y-62500000D01*
X199579000Y-69326000D02*
X210174000Y-69326000D01*
X214000000Y-62500000D02*
X194000000Y-42500000D01*
X199405000Y-69500000D02*
X199579000Y-69326000D01*
X168000000Y-54000000D02*
X178000000Y-54000000D01*
X199405000Y-69500000D02*
X199405000Y-69095000D01*
X168500000Y-54000000D02*
X168000000Y-54000000D01*
X199405000Y-70500000D02*
X199405000Y-69500000D01*
X184371000Y-70054000D02*
X198959000Y-70054000D01*
X199405000Y-72800000D02*
X199405000Y-70500000D01*
X198959000Y-70054000D02*
X199405000Y-70500000D01*
X199405000Y-69095000D02*
X199500000Y-69000000D01*
X178000000Y-54000000D02*
X181500000Y-50500000D01*
X159875000Y-40025000D02*
X159875000Y-46750000D01*
X159875000Y-46750000D02*
X167125000Y-54000000D01*
D24*
%TO.N,/C12*%
X176820000Y-83500000D02*
X172900000Y-79580000D01*
X197000000Y-83304000D02*
X196804000Y-83500000D01*
X196804000Y-83500000D02*
X176820000Y-83500000D01*
X197000000Y-72935000D02*
X196865000Y-72800000D01*
X197000000Y-76000000D02*
X197000000Y-72935000D01*
D23*
%TO.N,/Pot_1*%
X186705000Y-79205000D02*
X186705000Y-72800000D01*
X189500000Y-82000000D02*
X186705000Y-79205000D01*
X203160000Y-82000000D02*
X189500000Y-82000000D01*
X208500000Y-76660000D02*
X203160000Y-82000000D01*
%TO.N,/Pot_2*%
X194325000Y-76325000D02*
X194325000Y-72800000D01*
X196000000Y-78000000D02*
X194325000Y-76325000D01*
X202080000Y-78000000D02*
X196000000Y-78000000D01*
X208500000Y-71580000D02*
X202080000Y-78000000D01*
D24*
X208500000Y-71580000D02*
X208500000Y-71500000D01*
D23*
%TO.N,+5V*%
X199405000Y-68905000D02*
X199500000Y-69000000D01*
X199405000Y-65180000D02*
X199405000Y-68905000D01*
%TO.N,/Pot_3*%
X186705000Y-58295000D02*
X186705000Y-65180000D01*
X189500000Y-55500000D02*
X186705000Y-58295000D01*
X197500000Y-55500000D02*
X189500000Y-55500000D01*
X203420000Y-61420000D02*
X197500000Y-55500000D01*
X208500000Y-61420000D02*
X203420000Y-61420000D01*
%TO.N,/Pot_4*%
X200500000Y-62500000D02*
X197005000Y-62500000D01*
X204500000Y-66500000D02*
X200500000Y-62500000D01*
X197005000Y-62500000D02*
X194325000Y-65180000D01*
X208500000Y-66500000D02*
X204500000Y-66500000D01*
D24*
%TO.N,/C27*%
X167660000Y-84660000D02*
X172900000Y-84660000D01*
X167000000Y-84000000D02*
X167660000Y-84660000D01*
X167000000Y-83500000D02*
X167000000Y-84000000D01*
%TO.N,/C14*%
X167000000Y-67500000D02*
X181845000Y-67500000D01*
X165000000Y-80500000D02*
X165000000Y-69500000D01*
X165000000Y-69500000D02*
X167000000Y-67500000D01*
X181845000Y-67500000D02*
X184165000Y-65180000D01*
X166620000Y-82120000D02*
X165000000Y-80500000D01*
X172900000Y-82120000D02*
X166620000Y-82120000D01*
%TO.N,/C27*%
X167000000Y-70000000D02*
X167000000Y-79500000D01*
X168000000Y-69000000D02*
X167000000Y-70000000D01*
X193045000Y-69000000D02*
X168000000Y-69000000D01*
X196865000Y-65180000D02*
X193045000Y-69000000D01*
%TO.N,/C13*%
X184165000Y-74335000D02*
X181460000Y-77040000D01*
X181460000Y-77040000D02*
X172900000Y-77040000D01*
X184165000Y-72800000D02*
X184165000Y-74335000D01*
D23*
%TO.N,+5V*%
X181625000Y-50625000D02*
X181625000Y-65180000D01*
X181500000Y-50500000D02*
X181625000Y-50625000D01*
X184000000Y-48000000D02*
X181500000Y-50500000D01*
D24*
%TO.N,Net-(J1-Pin_1)*%
X150000000Y-111769138D02*
X150000000Y-107000000D01*
X150000000Y-107000000D02*
X156500000Y-100500000D01*
X156500000Y-100500000D02*
X163000000Y-100500000D01*
X147244138Y-114525000D02*
X150000000Y-111769138D01*
X128975000Y-114525000D02*
X147244138Y-114525000D01*
%TD*%
%TA.AperFunction,Conductor*%
%TO.N,GND*%
G36*
X128060846Y-110456588D02*
G01*
X128098701Y-110480917D01*
X128099456Y-110480018D01*
X128103596Y-110483492D01*
X128103599Y-110483495D01*
X128281066Y-110607759D01*
X128289594Y-110613730D01*
X128333219Y-110668307D01*
X128340413Y-110737805D01*
X128308890Y-110800160D01*
X128289595Y-110816880D01*
X128103922Y-110946890D01*
X128103920Y-110946891D01*
X127936891Y-111113920D01*
X127936886Y-111113926D01*
X127801400Y-111307420D01*
X127801399Y-111307422D01*
X127701570Y-111521507D01*
X127701567Y-111521513D01*
X127644364Y-111734999D01*
X127644364Y-111735000D01*
X128541988Y-111735000D01*
X128509075Y-111792007D01*
X128475000Y-111919174D01*
X128475000Y-112050826D01*
X128509075Y-112177993D01*
X128541988Y-112235000D01*
X127644364Y-112235000D01*
X127701567Y-112448486D01*
X127701570Y-112448492D01*
X127801399Y-112662578D01*
X127936894Y-112856082D01*
X128058946Y-112978134D01*
X128092431Y-113039457D01*
X128087447Y-113109149D01*
X128045575Y-113165082D01*
X128014598Y-113181997D01*
X127882671Y-113231202D01*
X127882664Y-113231206D01*
X127767455Y-113317452D01*
X127767452Y-113317455D01*
X127681206Y-113432664D01*
X127681202Y-113432671D01*
X127630908Y-113567517D01*
X127624501Y-113627116D01*
X127624500Y-113627135D01*
X127624500Y-115422870D01*
X127624501Y-115422876D01*
X127630908Y-115482483D01*
X127681202Y-115617328D01*
X127681206Y-115617335D01*
X127767452Y-115732544D01*
X127767455Y-115732547D01*
X127882664Y-115818793D01*
X127882671Y-115818797D01*
X128017517Y-115869091D01*
X128017516Y-115869091D01*
X128024444Y-115869835D01*
X128077127Y-115875500D01*
X129872872Y-115875499D01*
X129932483Y-115869091D01*
X130067331Y-115818796D01*
X130182546Y-115732546D01*
X130268796Y-115617331D01*
X130319091Y-115482483D01*
X130324062Y-115436242D01*
X130350799Y-115371694D01*
X130408191Y-115331846D01*
X130447351Y-115325500D01*
X147322982Y-115325500D01*
X147322983Y-115325499D01*
X147477635Y-115294737D01*
X147623317Y-115234394D01*
X147754427Y-115146789D01*
X148788319Y-114112897D01*
X148849642Y-114079412D01*
X148919334Y-114084396D01*
X148975267Y-114126268D01*
X148999684Y-114191732D01*
X149000000Y-114200578D01*
X149000000Y-116876000D01*
X148980315Y-116943039D01*
X148927511Y-116988794D01*
X148876000Y-117000000D01*
X127124000Y-117000000D01*
X127056961Y-116980315D01*
X127011206Y-116927511D01*
X127000000Y-116876000D01*
X127000000Y-111466282D01*
X127019685Y-111399243D01*
X127036319Y-111378601D01*
X127929831Y-110485089D01*
X127991154Y-110451604D01*
X128060846Y-110456588D01*
G37*
%TD.AperFunction*%
%TA.AperFunction,Conductor*%
G36*
X197350021Y-91661185D02*
G01*
X197386791Y-91697679D01*
X197391021Y-91704153D01*
X197548216Y-91874913D01*
X197548219Y-91874915D01*
X197548222Y-91874918D01*
X197731365Y-92017464D01*
X197731371Y-92017468D01*
X197731374Y-92017470D01*
X197935497Y-92127936D01*
X197935500Y-92127937D01*
X197978401Y-92142665D01*
X198025819Y-92172265D01*
X198411415Y-92557861D01*
X198326306Y-92580667D01*
X198223694Y-92639910D01*
X198139910Y-92723694D01*
X198080667Y-92826306D01*
X198057861Y-92911415D01*
X197348811Y-92202365D01*
X197264516Y-92331390D01*
X197171317Y-92543864D01*
X197114361Y-92768781D01*
X197095202Y-92999994D01*
X197095202Y-93000005D01*
X197114361Y-93231218D01*
X197171317Y-93456135D01*
X197264515Y-93668606D01*
X197348812Y-93797633D01*
X198057861Y-93088584D01*
X198080667Y-93173694D01*
X198139910Y-93276306D01*
X198223694Y-93360090D01*
X198326306Y-93419333D01*
X198411414Y-93442137D01*
X198025818Y-93827734D01*
X197978402Y-93857334D01*
X197935498Y-93872063D01*
X197935495Y-93872064D01*
X197731371Y-93982531D01*
X197731365Y-93982535D01*
X197548222Y-94125081D01*
X197548219Y-94125084D01*
X197391019Y-94295849D01*
X197386791Y-94302321D01*
X197333645Y-94347678D01*
X197282982Y-94358500D01*
X192217018Y-94358500D01*
X192149979Y-94338815D01*
X192113209Y-94302321D01*
X192108980Y-94295849D01*
X192108979Y-94295847D01*
X191951784Y-94125087D01*
X191951779Y-94125083D01*
X191951777Y-94125081D01*
X191768634Y-93982535D01*
X191768628Y-93982531D01*
X191564504Y-93872064D01*
X191564495Y-93872060D01*
X191521598Y-93857334D01*
X191474180Y-93827734D01*
X191088585Y-93442137D01*
X191173694Y-93419333D01*
X191276306Y-93360090D01*
X191360090Y-93276306D01*
X191419333Y-93173694D01*
X191442138Y-93088585D01*
X192151186Y-93797633D01*
X192235482Y-93668611D01*
X192328682Y-93456135D01*
X192385638Y-93231218D01*
X192404798Y-93000005D01*
X192404798Y-92999994D01*
X192385638Y-92768781D01*
X192328682Y-92543864D01*
X192235484Y-92331393D01*
X192151186Y-92202365D01*
X191442137Y-92911414D01*
X191419333Y-92826306D01*
X191360090Y-92723694D01*
X191276306Y-92639910D01*
X191173694Y-92580667D01*
X191088583Y-92557861D01*
X191474178Y-92172265D01*
X191521595Y-92142666D01*
X191564503Y-92127936D01*
X191768626Y-92017470D01*
X191783939Y-92005552D01*
X191857587Y-91948229D01*
X191951784Y-91874913D01*
X192108979Y-91704153D01*
X192113209Y-91697679D01*
X192166355Y-91652322D01*
X192217018Y-91641500D01*
X197282982Y-91641500D01*
X197350021Y-91661185D01*
G37*
%TD.AperFunction*%
%TA.AperFunction,Conductor*%
G36*
X205919334Y-80758099D02*
G01*
X205975267Y-80799971D01*
X205999684Y-80865435D01*
X206000000Y-80874281D01*
X206000000Y-92316560D01*
X205980315Y-92383599D01*
X205963681Y-92404241D01*
X200204741Y-98163181D01*
X200143418Y-98196666D01*
X200117060Y-98199500D01*
X179721154Y-98199500D01*
X179566509Y-98230261D01*
X179566497Y-98230264D01*
X179523832Y-98247936D01*
X179523833Y-98247937D01*
X179420823Y-98290604D01*
X179420814Y-98290609D01*
X179289712Y-98378209D01*
X179289710Y-98378212D01*
X178246479Y-99421441D01*
X178185156Y-99454926D01*
X178147991Y-99457288D01*
X178000002Y-99444341D01*
X177999999Y-99444341D01*
X177764596Y-99464936D01*
X177764586Y-99464938D01*
X177536344Y-99526094D01*
X177536335Y-99526098D01*
X177322171Y-99625964D01*
X177322169Y-99625965D01*
X177128597Y-99761505D01*
X176961505Y-99928597D01*
X176825965Y-100122169D01*
X176825964Y-100122171D01*
X176726098Y-100336335D01*
X176726094Y-100336344D01*
X176664938Y-100564586D01*
X176664936Y-100564596D01*
X176644341Y-100799999D01*
X176644341Y-100800000D01*
X176664936Y-101035403D01*
X176664938Y-101035413D01*
X176726094Y-101263655D01*
X176726096Y-101263659D01*
X176726097Y-101263663D01*
X176803073Y-101428738D01*
X176825965Y-101477830D01*
X176825967Y-101477834D01*
X176961501Y-101671395D01*
X176961506Y-101671402D01*
X177128597Y-101838493D01*
X177128603Y-101838498D01*
X177314158Y-101968425D01*
X177357783Y-102023002D01*
X177364977Y-102092500D01*
X177333454Y-102154855D01*
X177314158Y-102171575D01*
X177128597Y-102301505D01*
X176961505Y-102468597D01*
X176825965Y-102662169D01*
X176825964Y-102662171D01*
X176726098Y-102876335D01*
X176726094Y-102876344D01*
X176664938Y-103104586D01*
X176664936Y-103104596D01*
X176644341Y-103339999D01*
X176644341Y-103340000D01*
X176664936Y-103575403D01*
X176664938Y-103575413D01*
X176726094Y-103803655D01*
X176726096Y-103803659D01*
X176726097Y-103803663D01*
X176788207Y-103936858D01*
X176825965Y-104017830D01*
X176825967Y-104017834D01*
X176961501Y-104211395D01*
X176961506Y-104211402D01*
X177128597Y-104378493D01*
X177128603Y-104378498D01*
X177314158Y-104508425D01*
X177357783Y-104563002D01*
X177364977Y-104632500D01*
X177333454Y-104694855D01*
X177314158Y-104711575D01*
X177128597Y-104841505D01*
X176961505Y-105008597D01*
X176825965Y-105202169D01*
X176825964Y-105202171D01*
X176726098Y-105416335D01*
X176726094Y-105416344D01*
X176664938Y-105644586D01*
X176664936Y-105644596D01*
X176644341Y-105879999D01*
X176644341Y-105880000D01*
X176664936Y-106115403D01*
X176664938Y-106115413D01*
X176726094Y-106343655D01*
X176726096Y-106343659D01*
X176726097Y-106343663D01*
X176799831Y-106501786D01*
X176825965Y-106557830D01*
X176825967Y-106557834D01*
X176961501Y-106751395D01*
X176961506Y-106751402D01*
X177128597Y-106918493D01*
X177128603Y-106918498D01*
X177314158Y-107048425D01*
X177357783Y-107103002D01*
X177364977Y-107172500D01*
X177333454Y-107234855D01*
X177314158Y-107251575D01*
X177128597Y-107381505D01*
X176961505Y-107548597D01*
X176825965Y-107742169D01*
X176825964Y-107742171D01*
X176726098Y-107956335D01*
X176726094Y-107956344D01*
X176664938Y-108184586D01*
X176664936Y-108184596D01*
X176644341Y-108419999D01*
X176644341Y-108420000D01*
X176664936Y-108655403D01*
X176664938Y-108655413D01*
X176726094Y-108883655D01*
X176726096Y-108883659D01*
X176726097Y-108883663D01*
X176807323Y-109057853D01*
X176825965Y-109097830D01*
X176825967Y-109097834D01*
X176961501Y-109291395D01*
X176961506Y-109291402D01*
X177128597Y-109458493D01*
X177128603Y-109458498D01*
X177314158Y-109588425D01*
X177357783Y-109643002D01*
X177364977Y-109712500D01*
X177333454Y-109774855D01*
X177314158Y-109791575D01*
X177128597Y-109921505D01*
X176961505Y-110088597D01*
X176825965Y-110282169D01*
X176825964Y-110282171D01*
X176726098Y-110496335D01*
X176726094Y-110496344D01*
X176664938Y-110724586D01*
X176664936Y-110724596D01*
X176644341Y-110959999D01*
X176644341Y-110960000D01*
X176664936Y-111195403D01*
X176664938Y-111195413D01*
X176726094Y-111423655D01*
X176726096Y-111423659D01*
X176726097Y-111423663D01*
X176801284Y-111584901D01*
X176825965Y-111637830D01*
X176825967Y-111637834D01*
X176961501Y-111831395D01*
X176961506Y-111831402D01*
X177128597Y-111998493D01*
X177128603Y-111998498D01*
X177314594Y-112128730D01*
X177358219Y-112183307D01*
X177365413Y-112252805D01*
X177333890Y-112315160D01*
X177314595Y-112331880D01*
X177128922Y-112461890D01*
X177128920Y-112461891D01*
X176961891Y-112628920D01*
X176961886Y-112628926D01*
X176826400Y-112822420D01*
X176826399Y-112822422D01*
X176726570Y-113036507D01*
X176726567Y-113036513D01*
X176669364Y-113249999D01*
X176669364Y-113250000D01*
X177566988Y-113250000D01*
X177534075Y-113307007D01*
X177500000Y-113434174D01*
X177500000Y-113565826D01*
X177534075Y-113692993D01*
X177566988Y-113750000D01*
X176669364Y-113750000D01*
X176726567Y-113963486D01*
X176726570Y-113963492D01*
X176826399Y-114177578D01*
X176961894Y-114371082D01*
X177128917Y-114538105D01*
X177314595Y-114668119D01*
X177358219Y-114722696D01*
X177365412Y-114792195D01*
X177333890Y-114854549D01*
X177314595Y-114871269D01*
X177128594Y-115001508D01*
X176961505Y-115168597D01*
X176825967Y-115362166D01*
X176825963Y-115362174D01*
X176821524Y-115371694D01*
X176797660Y-115422872D01*
X176795080Y-115428404D01*
X176748908Y-115480844D01*
X176682698Y-115500000D01*
X171124000Y-115500000D01*
X171056961Y-115480315D01*
X171011206Y-115427511D01*
X171000000Y-115376000D01*
X171000000Y-112294943D01*
X171019685Y-112227904D01*
X171072489Y-112182149D01*
X171141647Y-112172205D01*
X171205203Y-112201230D01*
X171211681Y-112207262D01*
X171273330Y-112268911D01*
X171273338Y-112268918D01*
X171273339Y-112268919D01*
X171284264Y-112277302D01*
X171455382Y-112408607D01*
X171455385Y-112408608D01*
X171455388Y-112408611D01*
X171654112Y-112523344D01*
X171654117Y-112523346D01*
X171654123Y-112523349D01*
X171745480Y-112561190D01*
X171866113Y-112611158D01*
X172087762Y-112670548D01*
X172315266Y-112700500D01*
X172315273Y-112700500D01*
X172544727Y-112700500D01*
X172544734Y-112700500D01*
X172772238Y-112670548D01*
X172993887Y-112611158D01*
X173205888Y-112523344D01*
X173404612Y-112408611D01*
X173586661Y-112268919D01*
X173586665Y-112268914D01*
X173586670Y-112268911D01*
X173748911Y-112106670D01*
X173748914Y-112106665D01*
X173748919Y-112106661D01*
X173888611Y-111924612D01*
X174003344Y-111725888D01*
X174091158Y-111513887D01*
X174150548Y-111292238D01*
X174180500Y-111064734D01*
X174180500Y-110835266D01*
X174150548Y-110607762D01*
X174091158Y-110386113D01*
X174003344Y-110174112D01*
X173888611Y-109975388D01*
X173888608Y-109975385D01*
X173888607Y-109975382D01*
X173748918Y-109793338D01*
X173748911Y-109793330D01*
X173586670Y-109631089D01*
X173586661Y-109631081D01*
X173404617Y-109491392D01*
X173205890Y-109376657D01*
X173205876Y-109376650D01*
X172993887Y-109288842D01*
X172902197Y-109264274D01*
X172842538Y-109227910D01*
X172812009Y-109165063D01*
X172820304Y-109095688D01*
X172864789Y-109041810D01*
X172931341Y-109020535D01*
X172934292Y-109020500D01*
X173024335Y-109020500D01*
X173269614Y-108979571D01*
X173504810Y-108898828D01*
X173723509Y-108780474D01*
X173919744Y-108627738D01*
X174088164Y-108444785D01*
X174224173Y-108236607D01*
X174324063Y-108008881D01*
X174385108Y-107767821D01*
X174385109Y-107767812D01*
X174405643Y-107520005D01*
X174405643Y-107519994D01*
X174385109Y-107272187D01*
X174385107Y-107272175D01*
X174324063Y-107031118D01*
X174224173Y-106803393D01*
X174088166Y-106595217D01*
X174002159Y-106501789D01*
X173919744Y-106412262D01*
X173836991Y-106347852D01*
X173796179Y-106291143D01*
X173792504Y-106221370D01*
X173827136Y-106160687D01*
X173836985Y-106152151D01*
X173919744Y-106087738D01*
X174088164Y-105904785D01*
X174224173Y-105696607D01*
X174324063Y-105468881D01*
X174385108Y-105227821D01*
X174385109Y-105227812D01*
X174405643Y-104980005D01*
X174405643Y-104979994D01*
X174385109Y-104732187D01*
X174385107Y-104732175D01*
X174324063Y-104491118D01*
X174224173Y-104263393D01*
X174088166Y-104055217D01*
X173990944Y-103949606D01*
X173919744Y-103872262D01*
X173836991Y-103807852D01*
X173796179Y-103751143D01*
X173792504Y-103681370D01*
X173827136Y-103620687D01*
X173836985Y-103612151D01*
X173919744Y-103547738D01*
X174088164Y-103364785D01*
X174224173Y-103156607D01*
X174324063Y-102928881D01*
X174385108Y-102687821D01*
X174385109Y-102687812D01*
X174405643Y-102440005D01*
X174405643Y-102439994D01*
X174385109Y-102192187D01*
X174385107Y-102192175D01*
X174324063Y-101951118D01*
X174224173Y-101723393D01*
X174088166Y-101515217D01*
X174034299Y-101456702D01*
X173919744Y-101332262D01*
X173836991Y-101267852D01*
X173796179Y-101211143D01*
X173792504Y-101141370D01*
X173827136Y-101080687D01*
X173836985Y-101072151D01*
X173919744Y-101007738D01*
X174088164Y-100824785D01*
X174224173Y-100616607D01*
X174324063Y-100388881D01*
X174385108Y-100147821D01*
X174385109Y-100147812D01*
X174405643Y-99900005D01*
X174405643Y-99899994D01*
X174385109Y-99652187D01*
X174385107Y-99652175D01*
X174324063Y-99411118D01*
X174224173Y-99183393D01*
X174088166Y-98975217D01*
X173982460Y-98860390D01*
X173919744Y-98792262D01*
X173836991Y-98727852D01*
X173796179Y-98671143D01*
X173792504Y-98601370D01*
X173827136Y-98540687D01*
X173836985Y-98532151D01*
X173919744Y-98467738D01*
X174088164Y-98284785D01*
X174224173Y-98076607D01*
X174324063Y-97848881D01*
X174385108Y-97607821D01*
X174385109Y-97607812D01*
X174405643Y-97360005D01*
X174405643Y-97359994D01*
X174390110Y-97172544D01*
X174385108Y-97112179D01*
X174381145Y-97096530D01*
X174383766Y-97026714D01*
X174413666Y-96978410D01*
X174795259Y-96596819D01*
X174856582Y-96563334D01*
X174882940Y-96560500D01*
X175709951Y-96560500D01*
X175776990Y-96580185D01*
X175797632Y-96596819D01*
X175960858Y-96760045D01*
X175960861Y-96760047D01*
X176147266Y-96890568D01*
X176353504Y-96986739D01*
X176573308Y-97045635D01*
X176735230Y-97059801D01*
X176799998Y-97065468D01*
X176800000Y-97065468D01*
X176800002Y-97065468D01*
X176856673Y-97060509D01*
X177026692Y-97045635D01*
X177246496Y-96986739D01*
X177452734Y-96890568D01*
X177639139Y-96760047D01*
X177800047Y-96599139D01*
X177930568Y-96412734D01*
X178026739Y-96206496D01*
X178085635Y-95986692D01*
X178105468Y-95760000D01*
X178103155Y-95733568D01*
X178096628Y-95658954D01*
X178085635Y-95533308D01*
X178026739Y-95313504D01*
X177930568Y-95107266D01*
X177813319Y-94939815D01*
X177800045Y-94920858D01*
X177639141Y-94759954D01*
X177452734Y-94629432D01*
X177452732Y-94629431D01*
X177246497Y-94533261D01*
X177246488Y-94533258D01*
X177026697Y-94474366D01*
X177026693Y-94474365D01*
X177026692Y-94474365D01*
X177026691Y-94474364D01*
X177026686Y-94474364D01*
X176800002Y-94454532D01*
X176799998Y-94454532D01*
X176573313Y-94474364D01*
X176573302Y-94474366D01*
X176353511Y-94533258D01*
X176353502Y-94533261D01*
X176147267Y-94629431D01*
X176147265Y-94629432D01*
X175960858Y-94759954D01*
X175797632Y-94923181D01*
X175736309Y-94956666D01*
X175709951Y-94959500D01*
X174528784Y-94959500D01*
X174461745Y-94939815D01*
X174415990Y-94887011D01*
X174405207Y-94825264D01*
X174405643Y-94820000D01*
X174405643Y-94819995D01*
X174385109Y-94572192D01*
X174385108Y-94572179D01*
X174381145Y-94556530D01*
X174383766Y-94486714D01*
X174413666Y-94438410D01*
X175964439Y-92887637D01*
X176025760Y-92854154D01*
X176095452Y-92859138D01*
X176123233Y-92873740D01*
X176147266Y-92890568D01*
X176353504Y-92986739D01*
X176573308Y-93045635D01*
X176735230Y-93059801D01*
X176799998Y-93065468D01*
X176800000Y-93065468D01*
X176800002Y-93065468D01*
X176856673Y-93060509D01*
X177026692Y-93045635D01*
X177246496Y-92986739D01*
X177452734Y-92890568D01*
X177639139Y-92760047D01*
X177800047Y-92599139D01*
X177930568Y-92412734D01*
X178026739Y-92206496D01*
X178085635Y-91986692D01*
X178105468Y-91760000D01*
X178100581Y-91704147D01*
X178098570Y-91681153D01*
X178085635Y-91533308D01*
X178026739Y-91313504D01*
X177930568Y-91107266D01*
X177813319Y-90939815D01*
X177800045Y-90920858D01*
X177639141Y-90759954D01*
X177452734Y-90629432D01*
X177452732Y-90629431D01*
X177246497Y-90533261D01*
X177246488Y-90533258D01*
X177026697Y-90474366D01*
X177026693Y-90474365D01*
X177026692Y-90474365D01*
X177026691Y-90474364D01*
X177026686Y-90474364D01*
X176800002Y-90454532D01*
X176799998Y-90454532D01*
X176573313Y-90474364D01*
X176573302Y-90474366D01*
X176353511Y-90533258D01*
X176353502Y-90533261D01*
X176147267Y-90629431D01*
X176147265Y-90629432D01*
X175960858Y-90759954D01*
X175799952Y-90920860D01*
X175782241Y-90946155D01*
X175728120Y-90989592D01*
X175611593Y-91037859D01*
X175542123Y-91045328D01*
X175479644Y-91014053D01*
X175443992Y-90953964D01*
X175446486Y-90884139D01*
X175476457Y-90835619D01*
X177378769Y-88933307D01*
X177414041Y-88908609D01*
X177452734Y-88890568D01*
X177639139Y-88760047D01*
X177800047Y-88599139D01*
X177930568Y-88412734D01*
X178026739Y-88206496D01*
X178085635Y-87986692D01*
X178103111Y-87786936D01*
X178105468Y-87760001D01*
X178105468Y-87759998D01*
X183114532Y-87759998D01*
X183114532Y-87760001D01*
X183134364Y-87986686D01*
X183134366Y-87986697D01*
X183193258Y-88206488D01*
X183193261Y-88206497D01*
X183289431Y-88412732D01*
X183289432Y-88412734D01*
X183419954Y-88599141D01*
X183580858Y-88760045D01*
X183580861Y-88760047D01*
X183767266Y-88890568D01*
X183973504Y-88986739D01*
X184193308Y-89045635D01*
X184355230Y-89059801D01*
X184419998Y-89065468D01*
X184420000Y-89065468D01*
X184420002Y-89065468D01*
X184476673Y-89060509D01*
X184646692Y-89045635D01*
X184866496Y-88986739D01*
X185072734Y-88890568D01*
X185259139Y-88760047D01*
X185334686Y-88684500D01*
X185422368Y-88596819D01*
X185483691Y-88563334D01*
X185510049Y-88560500D01*
X189475500Y-88560500D01*
X189542539Y-88580185D01*
X189588294Y-88632989D01*
X189599500Y-88684500D01*
X189599500Y-89629870D01*
X189599501Y-89629876D01*
X189605908Y-89689483D01*
X189656202Y-89824328D01*
X189656206Y-89824335D01*
X189742452Y-89939544D01*
X189742453Y-89939545D01*
X189742454Y-89939546D01*
X189765909Y-89957104D01*
X189807781Y-90013037D01*
X189812765Y-90082729D01*
X189795408Y-90124191D01*
X189764077Y-90172147D01*
X189670842Y-90384699D01*
X189613866Y-90609691D01*
X189609784Y-90658953D01*
X189594700Y-90841000D01*
X189594700Y-90841003D01*
X189594308Y-90845739D01*
X189569154Y-90910924D01*
X189512752Y-90952163D01*
X189470731Y-90959500D01*
X185510049Y-90959500D01*
X185443010Y-90939815D01*
X185422368Y-90923181D01*
X185259141Y-90759954D01*
X185072734Y-90629432D01*
X185072732Y-90629431D01*
X184866497Y-90533261D01*
X184866488Y-90533258D01*
X184646697Y-90474366D01*
X184646693Y-90474365D01*
X184646692Y-90474365D01*
X184646691Y-90474364D01*
X184646686Y-90474364D01*
X184420002Y-90454532D01*
X184419998Y-90454532D01*
X184193313Y-90474364D01*
X184193302Y-90474366D01*
X183973511Y-90533258D01*
X183973502Y-90533261D01*
X183767267Y-90629431D01*
X183767265Y-90629432D01*
X183580858Y-90759954D01*
X183419954Y-90920858D01*
X183289432Y-91107265D01*
X183289431Y-91107267D01*
X183193261Y-91313502D01*
X183193258Y-91313511D01*
X183134366Y-91533302D01*
X183134364Y-91533313D01*
X183114532Y-91759998D01*
X183114532Y-91760001D01*
X183134364Y-91986686D01*
X183134366Y-91986697D01*
X183193258Y-92206488D01*
X183193261Y-92206497D01*
X183289431Y-92412732D01*
X183289432Y-92412734D01*
X183419954Y-92599141D01*
X183580858Y-92760045D01*
X183593477Y-92768881D01*
X183767266Y-92890568D01*
X183973504Y-92986739D01*
X184193308Y-93045635D01*
X184355230Y-93059801D01*
X184419998Y-93065468D01*
X184420000Y-93065468D01*
X184420002Y-93065468D01*
X184476673Y-93060509D01*
X184646692Y-93045635D01*
X184866496Y-92986739D01*
X185072734Y-92890568D01*
X185259139Y-92760047D01*
X185317039Y-92702147D01*
X185422368Y-92596819D01*
X185483691Y-92563334D01*
X185510049Y-92560500D01*
X189507790Y-92560500D01*
X189574829Y-92580185D01*
X189620584Y-92632989D01*
X189630528Y-92702147D01*
X189627995Y-92714941D01*
X189614362Y-92768775D01*
X189614361Y-92768779D01*
X189595202Y-92999994D01*
X189595202Y-93000005D01*
X189614361Y-93231218D01*
X189671317Y-93456135D01*
X189764515Y-93668606D01*
X189848812Y-93797632D01*
X190557861Y-93088583D01*
X190580667Y-93173694D01*
X190639910Y-93276306D01*
X190723694Y-93360090D01*
X190826306Y-93419333D01*
X190911414Y-93442137D01*
X190525818Y-93827734D01*
X190478402Y-93857334D01*
X190435498Y-93872063D01*
X190435495Y-93872064D01*
X190231371Y-93982531D01*
X190231365Y-93982535D01*
X190048222Y-94125081D01*
X190048219Y-94125084D01*
X189891016Y-94295852D01*
X189764075Y-94490151D01*
X189677948Y-94686502D01*
X189670843Y-94702700D01*
X189639806Y-94825264D01*
X189629505Y-94865940D01*
X189593965Y-94926096D01*
X189531545Y-94957488D01*
X189509299Y-94959500D01*
X185510049Y-94959500D01*
X185443010Y-94939815D01*
X185422368Y-94923181D01*
X185259141Y-94759954D01*
X185072734Y-94629432D01*
X185072732Y-94629431D01*
X184866497Y-94533261D01*
X184866488Y-94533258D01*
X184646697Y-94474366D01*
X184646693Y-94474365D01*
X184646692Y-94474365D01*
X184646691Y-94474364D01*
X184646686Y-94474364D01*
X184420002Y-94454532D01*
X184419998Y-94454532D01*
X184193313Y-94474364D01*
X184193302Y-94474366D01*
X183973511Y-94533258D01*
X183973502Y-94533261D01*
X183767267Y-94629431D01*
X183767265Y-94629432D01*
X183580858Y-94759954D01*
X183419954Y-94920858D01*
X183289432Y-95107265D01*
X183289431Y-95107267D01*
X183193261Y-95313502D01*
X183193258Y-95313511D01*
X183134366Y-95533302D01*
X183134364Y-95533313D01*
X183114532Y-95759998D01*
X183114532Y-95760001D01*
X183134364Y-95986686D01*
X183134366Y-95986697D01*
X183193258Y-96206488D01*
X183193261Y-96206497D01*
X183289431Y-96412732D01*
X183289432Y-96412734D01*
X183419954Y-96599141D01*
X183580858Y-96760045D01*
X183580861Y-96760047D01*
X183767266Y-96890568D01*
X183973504Y-96986739D01*
X184193308Y-97045635D01*
X184355230Y-97059801D01*
X184419998Y-97065468D01*
X184420000Y-97065468D01*
X184420002Y-97065468D01*
X184476673Y-97060509D01*
X184646692Y-97045635D01*
X184866496Y-96986739D01*
X185072734Y-96890568D01*
X185259139Y-96760047D01*
X185297949Y-96721237D01*
X185422368Y-96596819D01*
X185483691Y-96563334D01*
X185510049Y-96560500D01*
X190477844Y-96560500D01*
X190477845Y-96560499D01*
X190531559Y-96549815D01*
X190638473Y-96528549D01*
X190638717Y-96529776D01*
X190687063Y-96526645D01*
X190883951Y-96559500D01*
X190883952Y-96559500D01*
X191116048Y-96559500D01*
X191116049Y-96559500D01*
X191344981Y-96521298D01*
X191564503Y-96445936D01*
X191768626Y-96335470D01*
X191951784Y-96192913D01*
X192108979Y-96022153D01*
X192113209Y-96015679D01*
X192166355Y-95970322D01*
X192217018Y-95959500D01*
X197282982Y-95959500D01*
X197350021Y-95979185D01*
X197386791Y-96015679D01*
X197391021Y-96022153D01*
X197548216Y-96192913D01*
X197548219Y-96192915D01*
X197548222Y-96192918D01*
X197731365Y-96335464D01*
X197731371Y-96335468D01*
X197731374Y-96335470D01*
X197935497Y-96445936D01*
X198001358Y-96468546D01*
X198155015Y-96521297D01*
X198155017Y-96521297D01*
X198155019Y-96521298D01*
X198383951Y-96559500D01*
X198383952Y-96559500D01*
X198616048Y-96559500D01*
X198616049Y-96559500D01*
X198844981Y-96521298D01*
X199064503Y-96445936D01*
X199268626Y-96335470D01*
X199451784Y-96192913D01*
X199608979Y-96022153D01*
X199619359Y-96006266D01*
X199623003Y-96000687D01*
X199735924Y-95827849D01*
X199829157Y-95615300D01*
X199886134Y-95390305D01*
X199889181Y-95353532D01*
X199905300Y-95159006D01*
X199905300Y-95158993D01*
X199886135Y-94927702D01*
X199886133Y-94927691D01*
X199829157Y-94702699D01*
X199735924Y-94490151D01*
X199608983Y-94295852D01*
X199608980Y-94295849D01*
X199608979Y-94295847D01*
X199451784Y-94125087D01*
X199451779Y-94125083D01*
X199451777Y-94125081D01*
X199268634Y-93982535D01*
X199268628Y-93982531D01*
X199064504Y-93872064D01*
X199064495Y-93872060D01*
X199021598Y-93857334D01*
X198974180Y-93827734D01*
X198588585Y-93442137D01*
X198673694Y-93419333D01*
X198776306Y-93360090D01*
X198860090Y-93276306D01*
X198919333Y-93173694D01*
X198942138Y-93088585D01*
X199651186Y-93797633D01*
X199735482Y-93668611D01*
X199828682Y-93456135D01*
X199885638Y-93231218D01*
X199904798Y-93000005D01*
X199904798Y-92999994D01*
X199885638Y-92768781D01*
X199828682Y-92543864D01*
X199735484Y-92331393D01*
X199651186Y-92202365D01*
X198942137Y-92911414D01*
X198919333Y-92826306D01*
X198860090Y-92723694D01*
X198776306Y-92639910D01*
X198673694Y-92580667D01*
X198588584Y-92557861D01*
X198974179Y-92172265D01*
X199021595Y-92142666D01*
X199064503Y-92127936D01*
X199268626Y-92017470D01*
X199283939Y-92005552D01*
X199357587Y-91948229D01*
X199451784Y-91874913D01*
X199608979Y-91704153D01*
X199735924Y-91509849D01*
X199829157Y-91297300D01*
X199886134Y-91072305D01*
X199886135Y-91072297D01*
X199905300Y-90841006D01*
X199905300Y-90840993D01*
X199886135Y-90609702D01*
X199886133Y-90609691D01*
X199829157Y-90384699D01*
X199756552Y-90219179D01*
X199735924Y-90172151D01*
X199704590Y-90124191D01*
X199684404Y-90057303D01*
X199703584Y-89990118D01*
X199734086Y-89957107D01*
X199757546Y-89939546D01*
X199843796Y-89824331D01*
X199894091Y-89689483D01*
X199900500Y-89629873D01*
X199900499Y-87734128D01*
X199894091Y-87674517D01*
X199888302Y-87658997D01*
X199843797Y-87539671D01*
X199843793Y-87539664D01*
X199757547Y-87424455D01*
X199757544Y-87424452D01*
X199642335Y-87338206D01*
X199642328Y-87338202D01*
X199507482Y-87287908D01*
X199507483Y-87287908D01*
X199447883Y-87281501D01*
X199447881Y-87281500D01*
X199447873Y-87281500D01*
X199447864Y-87281500D01*
X197552129Y-87281500D01*
X197552123Y-87281501D01*
X197492516Y-87287908D01*
X197357671Y-87338202D01*
X197357664Y-87338206D01*
X197242455Y-87424452D01*
X197242452Y-87424455D01*
X197156206Y-87539664D01*
X197156202Y-87539671D01*
X197105908Y-87674517D01*
X197099501Y-87734116D01*
X197099501Y-87734123D01*
X197099500Y-87734135D01*
X197099500Y-87757500D01*
X197079815Y-87824539D01*
X197027011Y-87870294D01*
X196975500Y-87881500D01*
X192524499Y-87881500D01*
X192457460Y-87861815D01*
X192411705Y-87809011D01*
X192400499Y-87757500D01*
X192400499Y-87734129D01*
X192400498Y-87734123D01*
X192400497Y-87734116D01*
X192394091Y-87674517D01*
X192388302Y-87658997D01*
X192343797Y-87539671D01*
X192343793Y-87539664D01*
X192257547Y-87424455D01*
X192257544Y-87424452D01*
X192142335Y-87338206D01*
X192142328Y-87338202D01*
X192007482Y-87287908D01*
X192007483Y-87287908D01*
X191947883Y-87281501D01*
X191947881Y-87281500D01*
X191947873Y-87281500D01*
X191947865Y-87281500D01*
X190782940Y-87281500D01*
X190715901Y-87261815D01*
X190695263Y-87245185D01*
X190588289Y-87138211D01*
X190588288Y-87138210D01*
X190588287Y-87138209D01*
X190457185Y-87050609D01*
X190457172Y-87050602D01*
X190311501Y-86990264D01*
X190311489Y-86990261D01*
X190156845Y-86959500D01*
X190156842Y-86959500D01*
X185510049Y-86959500D01*
X185443010Y-86939815D01*
X185422368Y-86923181D01*
X185259141Y-86759954D01*
X185072734Y-86629432D01*
X185072732Y-86629431D01*
X184866497Y-86533261D01*
X184866488Y-86533258D01*
X184646697Y-86474366D01*
X184646693Y-86474365D01*
X184646692Y-86474365D01*
X184646691Y-86474364D01*
X184646686Y-86474364D01*
X184420002Y-86454532D01*
X184419998Y-86454532D01*
X184193313Y-86474364D01*
X184193302Y-86474366D01*
X183973511Y-86533258D01*
X183973502Y-86533261D01*
X183767267Y-86629431D01*
X183767265Y-86629432D01*
X183580858Y-86759954D01*
X183419954Y-86920858D01*
X183289432Y-87107265D01*
X183289431Y-87107267D01*
X183193261Y-87313502D01*
X183193258Y-87313511D01*
X183134366Y-87533302D01*
X183134364Y-87533313D01*
X183114532Y-87759998D01*
X178105468Y-87759998D01*
X178098160Y-87676468D01*
X178085635Y-87533308D01*
X178026739Y-87313504D01*
X177930568Y-87107266D01*
X177809261Y-86934020D01*
X177800045Y-86920858D01*
X177639141Y-86759954D01*
X177452734Y-86629432D01*
X177452732Y-86629431D01*
X177246497Y-86533261D01*
X177246488Y-86533258D01*
X177026697Y-86474366D01*
X177026693Y-86474365D01*
X177026692Y-86474365D01*
X177026691Y-86474364D01*
X177026686Y-86474364D01*
X176800002Y-86454532D01*
X176799998Y-86454532D01*
X176573313Y-86474364D01*
X176573302Y-86474366D01*
X176353511Y-86533258D01*
X176353502Y-86533261D01*
X176147267Y-86629431D01*
X176147265Y-86629432D01*
X175960858Y-86759954D01*
X175799954Y-86920858D01*
X175669432Y-87107265D01*
X175669431Y-87107267D01*
X175573261Y-87313502D01*
X175573258Y-87313511D01*
X175514366Y-87533302D01*
X175514364Y-87533313D01*
X175494532Y-87759998D01*
X175494532Y-87760001D01*
X175514364Y-87986686D01*
X175514366Y-87986697D01*
X175573258Y-88206488D01*
X175573260Y-88206493D01*
X175573261Y-88206496D01*
X175574429Y-88209000D01*
X175621847Y-88310690D01*
X175632338Y-88379768D01*
X175603817Y-88443552D01*
X175597145Y-88450775D01*
X174573901Y-89474019D01*
X174512578Y-89507504D01*
X174442886Y-89502520D01*
X174386953Y-89460648D01*
X174366014Y-89416778D01*
X174324063Y-89251118D01*
X174224173Y-89023393D01*
X174088166Y-88815217D01*
X174054992Y-88779181D01*
X173919744Y-88632262D01*
X173836991Y-88567852D01*
X173796179Y-88511143D01*
X173792504Y-88441370D01*
X173827136Y-88380687D01*
X173836985Y-88372151D01*
X173919744Y-88307738D01*
X174088164Y-88124785D01*
X174224173Y-87916607D01*
X174324063Y-87688881D01*
X174385108Y-87447821D01*
X174386393Y-87432313D01*
X174405643Y-87200005D01*
X174405643Y-87199994D01*
X174385109Y-86952187D01*
X174385107Y-86952175D01*
X174324063Y-86711118D01*
X174224173Y-86483393D01*
X174088166Y-86275217D01*
X174044535Y-86227821D01*
X173919744Y-86092262D01*
X173836991Y-86027852D01*
X173796179Y-85971143D01*
X173792504Y-85901370D01*
X173827136Y-85840687D01*
X173836985Y-85832151D01*
X173919744Y-85767738D01*
X174088164Y-85584785D01*
X174224173Y-85376607D01*
X174324063Y-85148881D01*
X174385108Y-84907821D01*
X174386255Y-84893980D01*
X174405643Y-84660005D01*
X174405643Y-84659994D01*
X174385109Y-84412187D01*
X174385107Y-84412175D01*
X174324063Y-84171118D01*
X174224173Y-83943393D01*
X174088166Y-83735217D01*
X173992785Y-83631606D01*
X173919744Y-83552262D01*
X173836991Y-83487852D01*
X173796179Y-83431143D01*
X173792504Y-83361370D01*
X173827136Y-83300687D01*
X173836985Y-83292151D01*
X173919744Y-83227738D01*
X174088164Y-83044785D01*
X174224173Y-82836607D01*
X174324063Y-82608881D01*
X174366014Y-82443219D01*
X174401554Y-82383064D01*
X174463974Y-82351672D01*
X174533457Y-82359010D01*
X174573901Y-82385979D01*
X176198211Y-84010289D01*
X176274372Y-84086450D01*
X176309712Y-84121790D01*
X176440814Y-84209390D01*
X176440816Y-84209391D01*
X176440821Y-84209394D01*
X176538156Y-84249711D01*
X176538159Y-84249712D01*
X176538160Y-84249713D01*
X176586498Y-84269735D01*
X176586503Y-84269737D01*
X176586507Y-84269737D01*
X176586508Y-84269738D01*
X176741154Y-84300500D01*
X176741157Y-84300500D01*
X176741158Y-84300500D01*
X196647764Y-84300500D01*
X196683758Y-84305838D01*
X196794066Y-84339300D01*
X196794065Y-84339300D01*
X196812529Y-84341118D01*
X197000000Y-84359583D01*
X197205934Y-84339300D01*
X197403954Y-84279232D01*
X197586450Y-84181685D01*
X197746410Y-84050410D01*
X197877685Y-83890450D01*
X197975232Y-83707954D01*
X198035300Y-83509934D01*
X198055583Y-83304000D01*
X198039101Y-83136654D01*
X198052120Y-83068008D01*
X198100185Y-83017298D01*
X198162504Y-83000500D01*
X203258543Y-83000500D01*
X203378296Y-82976679D01*
X203430027Y-82966389D01*
X203451836Y-82962051D01*
X203505165Y-82939961D01*
X203633914Y-82886632D01*
X203797782Y-82777139D01*
X203937139Y-82637782D01*
X203937139Y-82637780D01*
X203947347Y-82627573D01*
X203947348Y-82627570D01*
X205788320Y-80786599D01*
X205849642Y-80753115D01*
X205919334Y-80758099D01*
G37*
%TD.AperFunction*%
%TA.AperFunction,Conductor*%
G36*
X205919334Y-107815258D02*
G01*
X205975267Y-107857130D01*
X205999684Y-107922594D01*
X206000000Y-107931440D01*
X206000000Y-115376000D01*
X205980315Y-115443039D01*
X205927511Y-115488794D01*
X205876000Y-115500000D01*
X179317302Y-115500000D01*
X179250263Y-115480315D01*
X179204920Y-115428404D01*
X179202341Y-115422873D01*
X179174035Y-115362171D01*
X179174033Y-115362168D01*
X179174032Y-115362166D01*
X179038494Y-115168597D01*
X178871402Y-115001506D01*
X178871401Y-115001505D01*
X178685405Y-114871269D01*
X178641781Y-114816692D01*
X178634588Y-114747193D01*
X178666110Y-114684839D01*
X178685405Y-114668119D01*
X178871082Y-114538105D01*
X179038105Y-114371082D01*
X179173600Y-114177578D01*
X179273429Y-113963492D01*
X179273432Y-113963486D01*
X179330636Y-113750000D01*
X178433012Y-113750000D01*
X178465925Y-113692993D01*
X178500000Y-113565826D01*
X178500000Y-113434174D01*
X178465925Y-113307007D01*
X178433012Y-113250000D01*
X179330636Y-113250000D01*
X179330635Y-113249999D01*
X179273432Y-113036513D01*
X179273429Y-113036507D01*
X179173600Y-112822422D01*
X179173599Y-112822420D01*
X179038113Y-112628926D01*
X179038108Y-112628920D01*
X178871078Y-112461890D01*
X178685405Y-112331879D01*
X178641780Y-112277302D01*
X178634588Y-112207804D01*
X178666110Y-112145449D01*
X178685406Y-112128730D01*
X178716924Y-112106661D01*
X178871401Y-111998495D01*
X179038495Y-111831401D01*
X179174035Y-111637830D01*
X179273903Y-111423663D01*
X179335063Y-111195408D01*
X179355659Y-110960000D01*
X179335063Y-110724592D01*
X179273903Y-110496337D01*
X179174035Y-110282171D01*
X179118955Y-110203507D01*
X179038494Y-110088597D01*
X178871402Y-109921506D01*
X178871396Y-109921501D01*
X178685842Y-109791575D01*
X178642217Y-109736998D01*
X178635023Y-109667500D01*
X178666546Y-109605145D01*
X178685842Y-109588425D01*
X178824419Y-109491392D01*
X178871401Y-109458495D01*
X179038495Y-109291401D01*
X179051116Y-109273375D01*
X179105693Y-109229752D01*
X179152691Y-109220500D01*
X204158844Y-109220500D01*
X204158845Y-109220499D01*
X204313497Y-109189737D01*
X204459179Y-109129394D01*
X204590289Y-109041789D01*
X205788319Y-107843759D01*
X205849642Y-107810274D01*
X205919334Y-107815258D01*
G37*
%TD.AperFunction*%
%TA.AperFunction,Conductor*%
G36*
X167025469Y-55000500D02*
G01*
X167026459Y-55000500D01*
X178099531Y-55000500D01*
X178109709Y-55000000D01*
X180500500Y-55000000D01*
X180567539Y-55019685D01*
X180613294Y-55072489D01*
X180624500Y-55124000D01*
X180624500Y-64302410D01*
X180604815Y-64369449D01*
X180602076Y-64373532D01*
X180494431Y-64527267D01*
X180398261Y-64733502D01*
X180398258Y-64733511D01*
X180339366Y-64953302D01*
X180339364Y-64953313D01*
X180319532Y-65179998D01*
X180319532Y-65180001D01*
X180339364Y-65406686D01*
X180339366Y-65406697D01*
X180398258Y-65626488D01*
X180398261Y-65626497D01*
X180494431Y-65832732D01*
X180494432Y-65832734D01*
X180624954Y-66019141D01*
X180785858Y-66180045D01*
X180785861Y-66180047D01*
X180972266Y-66310568D01*
X181178504Y-66406739D01*
X181178509Y-66406740D01*
X181178511Y-66406741D01*
X181361323Y-66455725D01*
X181420984Y-66492090D01*
X181451513Y-66554937D01*
X181443218Y-66624312D01*
X181398733Y-66678190D01*
X181332181Y-66699465D01*
X181329230Y-66699500D01*
X166921155Y-66699500D01*
X166766510Y-66730261D01*
X166766498Y-66730264D01*
X166620827Y-66790602D01*
X166620814Y-66790609D01*
X166489711Y-66878210D01*
X166489707Y-66878213D01*
X164928554Y-68439368D01*
X164489711Y-68878211D01*
X164456069Y-68911853D01*
X164378209Y-68989712D01*
X164290609Y-69120814D01*
X164290602Y-69120827D01*
X164230264Y-69266498D01*
X164230261Y-69266510D01*
X164199500Y-69421153D01*
X164199500Y-80578846D01*
X164230261Y-80733489D01*
X164230264Y-80733501D01*
X164290602Y-80879172D01*
X164290609Y-80879185D01*
X164378210Y-81010288D01*
X164378213Y-81010292D01*
X165998211Y-82630289D01*
X166067106Y-82699184D01*
X166114019Y-82746097D01*
X166112122Y-82747993D01*
X166144940Y-82796135D01*
X166146835Y-82865979D01*
X166125245Y-82908193D01*
X166125694Y-82908493D01*
X166123127Y-82912332D01*
X166122822Y-82912931D01*
X166122315Y-82913547D01*
X166122312Y-82913553D01*
X166024769Y-83096041D01*
X165964699Y-83294067D01*
X165944417Y-83500000D01*
X165964699Y-83705932D01*
X165968727Y-83719211D01*
X166024768Y-83903954D01*
X166103156Y-84050607D01*
X166122317Y-84086453D01*
X166207151Y-84189824D01*
X166227568Y-84228020D01*
X166227932Y-84227870D01*
X166229462Y-84231564D01*
X166229957Y-84232490D01*
X166230261Y-84233494D01*
X166290602Y-84379172D01*
X166290609Y-84379185D01*
X166378210Y-84510288D01*
X166378213Y-84510292D01*
X167149707Y-85281786D01*
X167149711Y-85281789D01*
X167280814Y-85369390D01*
X167280827Y-85369397D01*
X167426498Y-85429735D01*
X167426503Y-85429737D01*
X167581153Y-85460499D01*
X167581156Y-85460500D01*
X167581158Y-85460500D01*
X167738842Y-85460500D01*
X171563531Y-85460500D01*
X171630570Y-85480185D01*
X171667340Y-85516679D01*
X171711833Y-85584782D01*
X171711836Y-85584785D01*
X171880256Y-85767738D01*
X171963008Y-85832147D01*
X172003821Y-85888857D01*
X172007496Y-85958630D01*
X171972864Y-86019313D01*
X171963014Y-86027848D01*
X171904400Y-86073469D01*
X171880257Y-86092261D01*
X171711833Y-86275217D01*
X171575826Y-86483393D01*
X171475936Y-86711118D01*
X171414892Y-86952175D01*
X171414890Y-86952187D01*
X171394357Y-87199994D01*
X171394357Y-87200005D01*
X171414890Y-87447812D01*
X171414892Y-87447824D01*
X171475936Y-87688881D01*
X171575826Y-87916606D01*
X171711833Y-88124782D01*
X171711836Y-88124785D01*
X171880256Y-88307738D01*
X171963008Y-88372147D01*
X172003821Y-88428857D01*
X172007496Y-88498630D01*
X171972864Y-88559313D01*
X171963014Y-88567848D01*
X171922810Y-88599141D01*
X171880257Y-88632261D01*
X171711833Y-88815217D01*
X171575826Y-89023393D01*
X171475936Y-89251118D01*
X171414892Y-89492175D01*
X171414890Y-89492187D01*
X171394357Y-89739994D01*
X171394357Y-89740005D01*
X171414890Y-89987812D01*
X171414893Y-89987826D01*
X171418855Y-90003474D01*
X171416227Y-90073294D01*
X171386329Y-90121591D01*
X169402991Y-92104931D01*
X168769711Y-92738211D01*
X168739147Y-92768775D01*
X168658209Y-92849712D01*
X168570609Y-92980814D01*
X168570602Y-92980827D01*
X168510264Y-93126498D01*
X168510261Y-93126510D01*
X168479500Y-93281153D01*
X168479500Y-97876000D01*
X168459815Y-97943039D01*
X168407011Y-97988794D01*
X168355500Y-98000000D01*
X149045110Y-98000000D01*
X148978071Y-97980315D01*
X148932316Y-97927511D01*
X148922372Y-97858353D01*
X148924904Y-97845560D01*
X148985107Y-97607824D01*
X148985108Y-97607821D01*
X148985109Y-97607812D01*
X149005643Y-97360005D01*
X149005643Y-97359994D01*
X148985109Y-97112187D01*
X148985107Y-97112178D01*
X148953342Y-96986738D01*
X148924063Y-96871118D01*
X148824173Y-96643393D01*
X148688166Y-96435217D01*
X148629223Y-96371188D01*
X148519744Y-96252262D01*
X148436991Y-96187852D01*
X148396179Y-96131143D01*
X148392504Y-96061370D01*
X148427136Y-96000687D01*
X148436985Y-95992151D01*
X148519744Y-95927738D01*
X148688164Y-95744785D01*
X148824173Y-95536607D01*
X148924063Y-95308881D01*
X148985108Y-95067821D01*
X148994084Y-94959500D01*
X149005643Y-94820005D01*
X149005643Y-94819994D01*
X148985109Y-94572187D01*
X148985107Y-94572178D01*
X148954068Y-94449606D01*
X148924063Y-94331118D01*
X148824173Y-94103393D01*
X148688166Y-93895217D01*
X148598333Y-93797633D01*
X148519744Y-93712262D01*
X148436991Y-93647852D01*
X148396179Y-93591143D01*
X148392504Y-93521370D01*
X148427136Y-93460687D01*
X148436985Y-93452151D01*
X148519744Y-93387738D01*
X148688164Y-93204785D01*
X148824173Y-92996607D01*
X148924063Y-92768881D01*
X148985108Y-92527821D01*
X148986378Y-92512493D01*
X149005643Y-92280005D01*
X149005643Y-92279994D01*
X148985109Y-92032187D01*
X148985107Y-92032175D01*
X148924063Y-91791118D01*
X148824173Y-91563393D01*
X148688166Y-91355217D01*
X148649766Y-91313504D01*
X148519744Y-91172262D01*
X148436991Y-91107852D01*
X148396179Y-91051143D01*
X148392504Y-90981370D01*
X148427136Y-90920687D01*
X148436985Y-90912151D01*
X148519744Y-90847738D01*
X148688164Y-90664785D01*
X148824173Y-90456607D01*
X148924063Y-90228881D01*
X148985108Y-89987821D01*
X148987304Y-89961321D01*
X149005643Y-89740005D01*
X149005643Y-89739994D01*
X148985109Y-89492187D01*
X148985107Y-89492175D01*
X148924063Y-89251118D01*
X148824173Y-89023393D01*
X148688166Y-88815217D01*
X148654992Y-88779181D01*
X148519744Y-88632262D01*
X148436991Y-88567852D01*
X148396179Y-88511143D01*
X148392504Y-88441370D01*
X148427136Y-88380687D01*
X148436985Y-88372151D01*
X148519744Y-88307738D01*
X148688164Y-88124785D01*
X148824173Y-87916607D01*
X148924063Y-87688881D01*
X148985108Y-87447821D01*
X148986393Y-87432313D01*
X149005643Y-87200005D01*
X149005643Y-87199994D01*
X148985109Y-86952187D01*
X148985107Y-86952175D01*
X148924063Y-86711118D01*
X148824173Y-86483393D01*
X148688166Y-86275217D01*
X148644535Y-86227821D01*
X148519744Y-86092262D01*
X148436991Y-86027852D01*
X148396179Y-85971143D01*
X148392504Y-85901370D01*
X148427136Y-85840687D01*
X148436985Y-85832151D01*
X148519744Y-85767738D01*
X148688164Y-85584785D01*
X148824173Y-85376607D01*
X148924063Y-85148881D01*
X148985108Y-84907821D01*
X148986255Y-84893980D01*
X149005643Y-84660005D01*
X149005643Y-84659994D01*
X148985109Y-84412187D01*
X148985107Y-84412175D01*
X148924063Y-84171118D01*
X148824173Y-83943393D01*
X148688166Y-83735217D01*
X148592785Y-83631606D01*
X148519744Y-83552262D01*
X148436991Y-83487852D01*
X148396179Y-83431143D01*
X148392504Y-83361370D01*
X148427136Y-83300687D01*
X148436985Y-83292151D01*
X148519744Y-83227738D01*
X148688164Y-83044785D01*
X148824173Y-82836607D01*
X148924063Y-82608881D01*
X148985108Y-82367821D01*
X148986446Y-82351672D01*
X149005643Y-82120005D01*
X149005643Y-82119994D01*
X148985109Y-81872187D01*
X148985107Y-81872175D01*
X148924063Y-81631118D01*
X148824173Y-81403393D01*
X148688166Y-81195217D01*
X148662466Y-81167300D01*
X148519744Y-81012262D01*
X148436991Y-80947852D01*
X148396179Y-80891143D01*
X148392504Y-80821370D01*
X148427136Y-80760687D01*
X148436985Y-80752151D01*
X148519744Y-80687738D01*
X148688164Y-80504785D01*
X148824173Y-80296607D01*
X148924063Y-80068881D01*
X148985108Y-79827821D01*
X148995208Y-79705932D01*
X149005643Y-79580005D01*
X149005643Y-79579994D01*
X148985109Y-79332187D01*
X148985107Y-79332175D01*
X148924063Y-79091118D01*
X148824173Y-78863393D01*
X148688166Y-78655217D01*
X148647686Y-78611244D01*
X148519744Y-78472262D01*
X148436991Y-78407852D01*
X148396179Y-78351143D01*
X148392504Y-78281370D01*
X148427136Y-78220687D01*
X148436985Y-78212151D01*
X148519744Y-78147738D01*
X148688164Y-77964785D01*
X148824173Y-77756607D01*
X148924063Y-77528881D01*
X148985108Y-77287821D01*
X148987732Y-77256153D01*
X149005643Y-77040005D01*
X149005643Y-77039994D01*
X148985109Y-76792187D01*
X148985107Y-76792175D01*
X148924063Y-76551118D01*
X148824173Y-76323393D01*
X148688166Y-76115217D01*
X148604072Y-76023867D01*
X148519744Y-75932262D01*
X148416253Y-75851712D01*
X148375442Y-75795003D01*
X148368655Y-75746176D01*
X148370056Y-75723609D01*
X147637575Y-74991128D01*
X147696853Y-74975245D01*
X147813147Y-74908102D01*
X147908102Y-74813147D01*
X147975245Y-74696853D01*
X147991127Y-74637575D01*
X148723434Y-75369882D01*
X148823731Y-75216369D01*
X148923587Y-74988717D01*
X148984612Y-74747738D01*
X148984614Y-74747729D01*
X149005141Y-74500005D01*
X149005141Y-74499994D01*
X148984614Y-74252270D01*
X148984612Y-74252261D01*
X148923587Y-74011282D01*
X148823733Y-73783635D01*
X148692817Y-73583252D01*
X148672630Y-73516362D01*
X148691810Y-73449176D01*
X148737203Y-73406595D01*
X148742321Y-73403799D01*
X148742331Y-73403796D01*
X148857546Y-73317546D01*
X148943796Y-73202331D01*
X148994091Y-73067483D01*
X149000500Y-73007873D01*
X149000499Y-70912128D01*
X148994091Y-70852517D01*
X148973195Y-70796493D01*
X148943797Y-70717671D01*
X148943793Y-70717664D01*
X148857547Y-70602455D01*
X148857544Y-70602452D01*
X148742335Y-70516206D01*
X148742328Y-70516202D01*
X148607482Y-70465908D01*
X148607483Y-70465908D01*
X148547883Y-70459501D01*
X148547881Y-70459500D01*
X148547873Y-70459500D01*
X148547864Y-70459500D01*
X146452129Y-70459500D01*
X146452123Y-70459501D01*
X146392516Y-70465908D01*
X146257671Y-70516202D01*
X146257664Y-70516206D01*
X146142455Y-70602452D01*
X146142452Y-70602455D01*
X146056206Y-70717664D01*
X146056202Y-70717671D01*
X146005908Y-70852517D01*
X145999501Y-70912116D01*
X145999501Y-70912123D01*
X145999500Y-70912135D01*
X145999500Y-71806318D01*
X145979815Y-71873357D01*
X145927011Y-71919112D01*
X145857853Y-71929056D01*
X145794297Y-71900031D01*
X145756523Y-71841253D01*
X145753883Y-71830509D01*
X145743738Y-71779510D01*
X145743737Y-71779503D01*
X145698324Y-71669865D01*
X145683397Y-71633827D01*
X145683390Y-71633814D01*
X145595790Y-71502712D01*
X145549842Y-71456764D01*
X145484289Y-71391211D01*
X144952404Y-70859326D01*
X144918919Y-70798003D01*
X144916557Y-70760842D01*
X144925468Y-70659000D01*
X144921876Y-70617949D01*
X144911595Y-70500429D01*
X144905635Y-70432308D01*
X144846739Y-70212504D01*
X144750568Y-70006266D01*
X144628251Y-69831578D01*
X144620045Y-69819858D01*
X144459141Y-69658954D01*
X144272734Y-69528432D01*
X144272732Y-69528431D01*
X144066497Y-69432261D01*
X144066488Y-69432258D01*
X143846697Y-69373366D01*
X143846693Y-69373365D01*
X143846692Y-69373365D01*
X143846691Y-69373364D01*
X143846686Y-69373364D01*
X143620002Y-69353532D01*
X143619998Y-69353532D01*
X143393313Y-69373364D01*
X143393302Y-69373366D01*
X143173511Y-69432258D01*
X143173502Y-69432261D01*
X142967267Y-69528431D01*
X142967265Y-69528432D01*
X142780858Y-69658954D01*
X142619954Y-69819858D01*
X142489432Y-70006265D01*
X142489431Y-70006267D01*
X142393261Y-70212502D01*
X142393258Y-70212511D01*
X142334366Y-70432302D01*
X142334364Y-70432313D01*
X142314532Y-70658998D01*
X142314532Y-70659001D01*
X142334364Y-70885686D01*
X142334366Y-70885697D01*
X142393258Y-71105488D01*
X142393261Y-71105497D01*
X142489431Y-71311732D01*
X142489432Y-71311734D01*
X142619954Y-71498141D01*
X142780858Y-71659045D01*
X142780861Y-71659047D01*
X142967266Y-71789568D01*
X143173504Y-71885739D01*
X143393308Y-71944635D01*
X143555230Y-71958801D01*
X143619998Y-71964468D01*
X143619999Y-71964468D01*
X143619999Y-71964467D01*
X143620000Y-71964468D01*
X143721839Y-71955557D01*
X143790336Y-71969323D01*
X143820326Y-71991404D01*
X144137181Y-72308259D01*
X144170666Y-72369582D01*
X144173500Y-72395940D01*
X144173500Y-73299332D01*
X144153815Y-73366371D01*
X144101011Y-73412126D01*
X144031853Y-73422070D01*
X144017407Y-73419107D01*
X143846697Y-73373366D01*
X143846693Y-73373365D01*
X143846692Y-73373365D01*
X143846691Y-73373364D01*
X143846686Y-73373364D01*
X143620002Y-73353532D01*
X143619998Y-73353532D01*
X143393313Y-73373364D01*
X143393302Y-73373366D01*
X143173511Y-73432258D01*
X143173502Y-73432261D01*
X142967267Y-73528431D01*
X142967265Y-73528432D01*
X142780858Y-73658954D01*
X142619954Y-73819858D01*
X142489432Y-74006265D01*
X142489431Y-74006267D01*
X142393261Y-74212502D01*
X142393258Y-74212511D01*
X142334366Y-74432302D01*
X142334364Y-74432313D01*
X142314532Y-74658998D01*
X142314532Y-74659001D01*
X142334364Y-74885686D01*
X142334366Y-74885697D01*
X142393258Y-75105488D01*
X142393261Y-75105497D01*
X142489431Y-75311732D01*
X142489432Y-75311734D01*
X142619954Y-75498141D01*
X142783181Y-75661368D01*
X142816666Y-75722691D01*
X142819500Y-75749049D01*
X142819500Y-75869216D01*
X142850261Y-76023859D01*
X142850264Y-76023871D01*
X142910602Y-76169542D01*
X142910609Y-76169555D01*
X142998210Y-76300658D01*
X142998213Y-76300662D01*
X143851512Y-77153961D01*
X143884997Y-77215284D01*
X143880013Y-77284976D01*
X143838141Y-77340909D01*
X143772677Y-77365326D01*
X143753024Y-77365170D01*
X143620002Y-77353532D01*
X143619998Y-77353532D01*
X143393313Y-77373364D01*
X143393302Y-77373366D01*
X143173511Y-77432258D01*
X143173502Y-77432261D01*
X142967267Y-77528431D01*
X142967265Y-77528432D01*
X142780858Y-77658954D01*
X142619954Y-77819858D01*
X142489432Y-78006265D01*
X142489431Y-78006267D01*
X142393261Y-78212502D01*
X142393258Y-78212511D01*
X142334366Y-78432302D01*
X142334364Y-78432313D01*
X142314532Y-78658998D01*
X142314532Y-78659001D01*
X142334364Y-78885686D01*
X142334366Y-78885697D01*
X142393258Y-79105488D01*
X142393261Y-79105497D01*
X142489431Y-79311732D01*
X142489432Y-79311734D01*
X142619954Y-79498141D01*
X142780858Y-79659045D01*
X142780861Y-79659047D01*
X142967266Y-79789568D01*
X143173504Y-79885739D01*
X143173509Y-79885740D01*
X143173511Y-79885741D01*
X143192448Y-79890815D01*
X143393308Y-79944635D01*
X143555230Y-79958801D01*
X143619998Y-79964468D01*
X143620000Y-79964468D01*
X143620002Y-79964468D01*
X143676673Y-79959509D01*
X143846692Y-79944635D01*
X144050320Y-79890073D01*
X144120164Y-79891736D01*
X144170089Y-79922167D01*
X145986330Y-81738408D01*
X146019815Y-81799731D01*
X146018855Y-81856528D01*
X146014891Y-81872180D01*
X145994357Y-82119994D01*
X145994357Y-82120005D01*
X146014890Y-82367812D01*
X146014892Y-82367824D01*
X146075936Y-82608881D01*
X146175826Y-82836606D01*
X146311833Y-83044782D01*
X146311836Y-83044785D01*
X146480256Y-83227738D01*
X146563008Y-83292147D01*
X146603821Y-83348857D01*
X146607496Y-83418630D01*
X146572864Y-83479313D01*
X146563014Y-83487848D01*
X146534642Y-83509932D01*
X146480257Y-83552261D01*
X146311833Y-83735217D01*
X146175826Y-83943393D01*
X146075936Y-84171118D01*
X146014892Y-84412175D01*
X146014890Y-84412187D01*
X145994357Y-84659994D01*
X145994357Y-84660005D01*
X146010313Y-84852568D01*
X146001792Y-84893980D01*
X146017477Y-84918387D01*
X146018706Y-84922882D01*
X146075936Y-85148881D01*
X146175826Y-85376606D01*
X146311833Y-85584782D01*
X146311836Y-85584785D01*
X146480256Y-85767738D01*
X146563008Y-85832147D01*
X146603821Y-85888857D01*
X146607496Y-85958630D01*
X146572864Y-86019313D01*
X146563014Y-86027848D01*
X146504400Y-86073469D01*
X146480257Y-86092261D01*
X146311833Y-86275217D01*
X146175826Y-86483393D01*
X146075935Y-86711122D01*
X146075935Y-86711123D01*
X146033984Y-86876780D01*
X145998445Y-86936936D01*
X145936024Y-86968327D01*
X145866541Y-86960989D01*
X145826098Y-86934020D01*
X145810819Y-86918741D01*
X145777334Y-86857418D01*
X145774500Y-86831060D01*
X145774500Y-84953322D01*
X145783283Y-84923410D01*
X145771051Y-84907448D01*
X145765120Y-84886999D01*
X145743738Y-84779510D01*
X145743737Y-84779503D01*
X145743735Y-84779498D01*
X145683397Y-84633827D01*
X145683390Y-84633814D01*
X145595790Y-84502712D01*
X145552578Y-84459500D01*
X145484289Y-84391211D01*
X144952404Y-83859326D01*
X144918919Y-83798003D01*
X144916557Y-83760842D01*
X144925468Y-83659000D01*
X144905635Y-83432308D01*
X144846739Y-83212504D01*
X144750568Y-83006266D01*
X144631772Y-82836606D01*
X144620045Y-82819858D01*
X144459141Y-82658954D01*
X144272734Y-82528432D01*
X144272732Y-82528431D01*
X144066497Y-82432261D01*
X144066488Y-82432258D01*
X143846697Y-82373366D01*
X143846693Y-82373365D01*
X143846692Y-82373365D01*
X143846691Y-82373364D01*
X143846686Y-82373364D01*
X143620002Y-82353532D01*
X143619998Y-82353532D01*
X143393313Y-82373364D01*
X143393302Y-82373366D01*
X143173511Y-82432258D01*
X143173502Y-82432261D01*
X142967267Y-82528431D01*
X142967265Y-82528432D01*
X142780858Y-82658954D01*
X142619954Y-82819858D01*
X142489432Y-83006265D01*
X142489431Y-83006267D01*
X142393261Y-83212502D01*
X142393258Y-83212511D01*
X142334366Y-83432302D01*
X142334364Y-83432313D01*
X142314532Y-83658998D01*
X142314532Y-83659001D01*
X142334364Y-83885686D01*
X142334366Y-83885697D01*
X142393258Y-84105488D01*
X142393261Y-84105497D01*
X142489431Y-84311732D01*
X142489432Y-84311734D01*
X142619954Y-84498141D01*
X142780858Y-84659045D01*
X142780861Y-84659047D01*
X142967266Y-84789568D01*
X143173504Y-84885739D01*
X143393308Y-84944635D01*
X143555230Y-84958801D01*
X143619998Y-84964468D01*
X143619999Y-84964468D01*
X143619999Y-84964467D01*
X143620000Y-84964468D01*
X143721839Y-84955557D01*
X143790336Y-84969323D01*
X143820326Y-84991404D01*
X144137181Y-85308259D01*
X144170666Y-85369582D01*
X144173500Y-85395940D01*
X144173500Y-86299332D01*
X144153815Y-86366371D01*
X144101011Y-86412126D01*
X144031853Y-86422070D01*
X144017407Y-86419107D01*
X143846697Y-86373366D01*
X143846693Y-86373365D01*
X143846692Y-86373365D01*
X143846691Y-86373364D01*
X143846686Y-86373364D01*
X143620002Y-86353532D01*
X143619998Y-86353532D01*
X143393313Y-86373364D01*
X143393302Y-86373366D01*
X143173511Y-86432258D01*
X143173502Y-86432261D01*
X142967267Y-86528431D01*
X142967265Y-86528432D01*
X142780858Y-86658954D01*
X142619954Y-86819858D01*
X142489432Y-87006265D01*
X142489431Y-87006267D01*
X142393261Y-87212502D01*
X142393258Y-87212511D01*
X142334366Y-87432302D01*
X142334364Y-87432313D01*
X142314532Y-87658998D01*
X142314532Y-87659001D01*
X142334364Y-87885686D01*
X142334366Y-87885697D01*
X142393258Y-88105488D01*
X142393261Y-88105497D01*
X142489431Y-88311732D01*
X142489432Y-88311734D01*
X142619954Y-88498141D01*
X142780858Y-88659045D01*
X142863913Y-88717200D01*
X142907348Y-88771316D01*
X142910603Y-88779174D01*
X142910607Y-88779181D01*
X142998207Y-88910284D01*
X142998213Y-88910292D01*
X144419743Y-90331821D01*
X144453228Y-90393144D01*
X144448244Y-90462836D01*
X144406372Y-90518769D01*
X144340908Y-90543186D01*
X144278189Y-90529542D01*
X144277640Y-90530720D01*
X144272735Y-90528432D01*
X144272734Y-90528432D01*
X144118704Y-90456606D01*
X144066497Y-90432261D01*
X144066488Y-90432258D01*
X143846697Y-90373366D01*
X143846693Y-90373365D01*
X143846692Y-90373365D01*
X143846691Y-90373364D01*
X143846686Y-90373364D01*
X143620002Y-90353532D01*
X143619998Y-90353532D01*
X143393313Y-90373364D01*
X143393302Y-90373366D01*
X143173511Y-90432258D01*
X143173502Y-90432261D01*
X142967267Y-90528431D01*
X142967265Y-90528432D01*
X142780858Y-90658954D01*
X142619954Y-90819858D01*
X142489432Y-91006265D01*
X142489431Y-91006267D01*
X142393261Y-91212502D01*
X142393258Y-91212511D01*
X142334366Y-91432302D01*
X142334364Y-91432313D01*
X142314532Y-91658998D01*
X142314532Y-91659001D01*
X142334364Y-91885686D01*
X142334366Y-91885697D01*
X142393258Y-92105488D01*
X142393261Y-92105497D01*
X142489431Y-92311732D01*
X142489432Y-92311734D01*
X142619954Y-92498141D01*
X142780858Y-92659045D01*
X142780861Y-92659047D01*
X142967266Y-92789568D01*
X143173504Y-92885739D01*
X143393308Y-92944635D01*
X143555230Y-92958801D01*
X143619998Y-92964468D01*
X143620000Y-92964468D01*
X143620002Y-92964468D01*
X143676673Y-92959509D01*
X143846692Y-92944635D01*
X144066496Y-92885739D01*
X144238209Y-92805667D01*
X144307282Y-92795176D01*
X144371066Y-92823695D01*
X144378291Y-92830369D01*
X145986330Y-94438408D01*
X146019815Y-94499731D01*
X146018855Y-94556528D01*
X146014891Y-94572180D01*
X145994357Y-94819994D01*
X145994357Y-94820005D01*
X146014890Y-95067812D01*
X146014892Y-95067824D01*
X146075936Y-95308881D01*
X146172241Y-95528432D01*
X146175827Y-95536607D01*
X146260807Y-95666679D01*
X146280994Y-95733568D01*
X146261814Y-95800754D01*
X146209356Y-95846904D01*
X146156998Y-95858500D01*
X144710049Y-95858500D01*
X144643010Y-95838815D01*
X144622368Y-95822181D01*
X144459141Y-95658954D01*
X144272734Y-95528432D01*
X144272732Y-95528431D01*
X144066497Y-95432261D01*
X144066488Y-95432258D01*
X143846697Y-95373366D01*
X143846693Y-95373365D01*
X143846692Y-95373365D01*
X143846691Y-95373364D01*
X143846686Y-95373364D01*
X143620002Y-95353532D01*
X143619998Y-95353532D01*
X143393313Y-95373364D01*
X143393302Y-95373366D01*
X143173511Y-95432258D01*
X143173502Y-95432261D01*
X142967267Y-95528431D01*
X142967265Y-95528432D01*
X142780858Y-95658954D01*
X142619954Y-95819858D01*
X142489432Y-96006265D01*
X142489431Y-96006267D01*
X142393261Y-96212502D01*
X142393258Y-96212511D01*
X142334366Y-96432302D01*
X142334364Y-96432313D01*
X142314532Y-96658998D01*
X142314532Y-96659001D01*
X142334364Y-96885686D01*
X142334366Y-96885697D01*
X142393258Y-97105488D01*
X142393261Y-97105497D01*
X142489431Y-97311732D01*
X142489432Y-97311734D01*
X142619954Y-97498141D01*
X142780858Y-97659045D01*
X142780861Y-97659047D01*
X142967266Y-97789568D01*
X143173504Y-97885739D01*
X143393308Y-97944635D01*
X143555230Y-97958801D01*
X143619998Y-97964468D01*
X143620000Y-97964468D01*
X143620002Y-97964468D01*
X143676673Y-97959509D01*
X143846692Y-97944635D01*
X144066496Y-97885739D01*
X144272734Y-97789568D01*
X144459139Y-97659047D01*
X144516881Y-97601305D01*
X144622368Y-97495819D01*
X144683691Y-97462334D01*
X144710049Y-97459500D01*
X145888452Y-97459500D01*
X145955491Y-97479185D01*
X146001246Y-97531989D01*
X146012028Y-97573257D01*
X146014117Y-97598470D01*
X146014892Y-97607824D01*
X146075936Y-97848881D01*
X146175826Y-98076606D01*
X146311833Y-98284782D01*
X146317197Y-98290609D01*
X146480256Y-98467738D01*
X146563008Y-98532147D01*
X146603821Y-98588857D01*
X146607496Y-98658630D01*
X146572864Y-98719313D01*
X146563014Y-98727848D01*
X146557298Y-98732298D01*
X146480257Y-98792261D01*
X146311833Y-98975217D01*
X146175826Y-99183393D01*
X146075936Y-99411118D01*
X146014892Y-99652175D01*
X146014890Y-99652187D01*
X145994357Y-99899994D01*
X145994357Y-99900005D01*
X146014890Y-100147812D01*
X146014892Y-100147824D01*
X146075936Y-100388881D01*
X146175826Y-100616606D01*
X146311833Y-100824782D01*
X146317853Y-100831321D01*
X146480256Y-101007738D01*
X146563008Y-101072147D01*
X146603821Y-101128857D01*
X146607496Y-101198630D01*
X146572864Y-101259313D01*
X146563014Y-101267848D01*
X146521064Y-101300500D01*
X146480257Y-101332261D01*
X146311833Y-101515217D01*
X146175826Y-101723393D01*
X146075935Y-101951122D01*
X146075935Y-101951123D01*
X146033984Y-102116780D01*
X145998445Y-102176936D01*
X145936024Y-102208327D01*
X145866541Y-102200989D01*
X145826098Y-102174020D01*
X144878519Y-101226441D01*
X144845034Y-101165118D01*
X144846425Y-101106667D01*
X144846738Y-101105497D01*
X144846739Y-101105496D01*
X144905635Y-100885692D01*
X144923250Y-100684356D01*
X144925468Y-100659001D01*
X144925468Y-100658998D01*
X144917208Y-100564586D01*
X144905635Y-100432308D01*
X144846739Y-100212504D01*
X144750568Y-100006266D01*
X144631921Y-99836819D01*
X144620045Y-99819858D01*
X144459141Y-99658954D01*
X144272734Y-99528432D01*
X144272732Y-99528431D01*
X144066497Y-99432261D01*
X144066488Y-99432258D01*
X143846697Y-99373366D01*
X143846693Y-99373365D01*
X143846692Y-99373365D01*
X143846691Y-99373364D01*
X143846686Y-99373364D01*
X143620002Y-99353532D01*
X143619998Y-99353532D01*
X143393313Y-99373364D01*
X143393302Y-99373366D01*
X143173511Y-99432258D01*
X143173502Y-99432261D01*
X142967267Y-99528431D01*
X142967265Y-99528432D01*
X142780858Y-99658954D01*
X142619954Y-99819858D01*
X142489432Y-100006265D01*
X142489431Y-100006267D01*
X142393261Y-100212502D01*
X142393258Y-100212511D01*
X142334366Y-100432302D01*
X142334364Y-100432313D01*
X142314532Y-100658998D01*
X142314532Y-100659001D01*
X142334364Y-100885686D01*
X142334366Y-100885697D01*
X142393258Y-101105488D01*
X142393261Y-101105497D01*
X142489431Y-101311732D01*
X142489432Y-101311734D01*
X142619954Y-101498141D01*
X142780858Y-101659045D01*
X142798506Y-101671402D01*
X142967266Y-101789568D01*
X143173504Y-101885739D01*
X143173506Y-101885739D01*
X143173513Y-101885742D01*
X143239633Y-101903457D01*
X143278226Y-101913798D01*
X143333814Y-101945892D01*
X145122538Y-103734616D01*
X145156023Y-103795939D01*
X145151039Y-103865631D01*
X145109167Y-103921564D01*
X145043703Y-103945981D01*
X144987405Y-103936858D01*
X144872501Y-103889264D01*
X144872489Y-103889261D01*
X144717845Y-103858500D01*
X144717842Y-103858500D01*
X144710049Y-103858500D01*
X144643010Y-103838815D01*
X144622368Y-103822181D01*
X144459141Y-103658954D01*
X144272734Y-103528432D01*
X144272732Y-103528431D01*
X144066497Y-103432261D01*
X144066488Y-103432258D01*
X143846697Y-103373366D01*
X143846693Y-103373365D01*
X143846692Y-103373365D01*
X143846691Y-103373364D01*
X143846686Y-103373364D01*
X143620002Y-103353532D01*
X143619998Y-103353532D01*
X143393313Y-103373364D01*
X143393302Y-103373366D01*
X143173511Y-103432258D01*
X143173502Y-103432261D01*
X142967267Y-103528431D01*
X142967265Y-103528432D01*
X142780858Y-103658954D01*
X142619954Y-103819858D01*
X142489432Y-104006265D01*
X142489431Y-104006267D01*
X142393261Y-104212502D01*
X142393258Y-104212511D01*
X142334366Y-104432302D01*
X142334364Y-104432313D01*
X142314532Y-104658998D01*
X142314532Y-104659001D01*
X142334364Y-104885686D01*
X142334366Y-104885697D01*
X142393258Y-105105488D01*
X142393261Y-105105497D01*
X142489431Y-105311732D01*
X142489432Y-105311734D01*
X142619954Y-105498141D01*
X142780858Y-105659045D01*
X142780861Y-105659047D01*
X142967266Y-105789568D01*
X143173504Y-105885739D01*
X143393308Y-105944635D01*
X143555230Y-105958801D01*
X143619998Y-105964468D01*
X143620000Y-105964468D01*
X143620002Y-105964468D01*
X143676673Y-105959509D01*
X143846692Y-105944635D01*
X144066496Y-105885739D01*
X144272734Y-105789568D01*
X144402044Y-105699024D01*
X144468244Y-105676700D01*
X144536012Y-105693710D01*
X144560843Y-105712921D01*
X145986330Y-107138408D01*
X146019815Y-107199731D01*
X146018855Y-107256528D01*
X146014891Y-107272180D01*
X145994357Y-107519994D01*
X145994357Y-107520005D01*
X146014890Y-107767812D01*
X146014892Y-107767824D01*
X146075936Y-108008881D01*
X146175826Y-108236606D01*
X146311833Y-108444782D01*
X146344245Y-108479991D01*
X146480256Y-108627738D01*
X146676491Y-108780474D01*
X146676493Y-108780475D01*
X146867167Y-108883663D01*
X146895190Y-108898828D01*
X147130386Y-108979571D01*
X147375665Y-109020500D01*
X147415708Y-109020500D01*
X147482747Y-109040185D01*
X147528502Y-109092989D01*
X147538446Y-109162147D01*
X147509421Y-109225703D01*
X147450643Y-109263477D01*
X147447835Y-109264265D01*
X147413834Y-109273376D01*
X147356112Y-109288842D01*
X147144123Y-109376650D01*
X147144109Y-109376657D01*
X146945382Y-109491392D01*
X146763338Y-109631081D01*
X146601081Y-109793338D01*
X146461392Y-109975382D01*
X146346657Y-110174109D01*
X146346650Y-110174123D01*
X146258842Y-110386112D01*
X146199453Y-110607759D01*
X146199451Y-110607770D01*
X146169500Y-110835258D01*
X146169500Y-111064741D01*
X146188383Y-111208164D01*
X146199452Y-111292238D01*
X146251102Y-111485000D01*
X146258842Y-111513887D01*
X146346650Y-111725876D01*
X146346657Y-111725890D01*
X146461392Y-111924617D01*
X146601081Y-112106661D01*
X146601089Y-112106670D01*
X146763330Y-112268911D01*
X146763338Y-112268918D01*
X146763339Y-112268919D01*
X146774264Y-112277302D01*
X146945382Y-112408607D01*
X146945385Y-112408608D01*
X146945388Y-112408611D01*
X147144112Y-112523344D01*
X147144117Y-112523346D01*
X147144123Y-112523349D01*
X147235480Y-112561190D01*
X147356113Y-112611158D01*
X147577762Y-112670548D01*
X147671991Y-112682953D01*
X147735887Y-112711219D01*
X147774358Y-112769544D01*
X147775190Y-112839408D01*
X147743486Y-112893573D01*
X146948879Y-113688181D01*
X146887556Y-113721666D01*
X146861198Y-113724500D01*
X130447351Y-113724500D01*
X130380312Y-113704815D01*
X130334557Y-113652011D01*
X130324061Y-113613752D01*
X130319091Y-113567516D01*
X130268797Y-113432671D01*
X130268793Y-113432664D01*
X130182547Y-113317455D01*
X130182544Y-113317452D01*
X130067335Y-113231206D01*
X130067328Y-113231202D01*
X129935401Y-113181997D01*
X129879467Y-113140126D01*
X129855050Y-113074662D01*
X129869902Y-113006389D01*
X129891053Y-112978133D01*
X130013108Y-112856078D01*
X130148600Y-112662578D01*
X130248429Y-112448492D01*
X130248432Y-112448486D01*
X130305636Y-112235000D01*
X129408012Y-112235000D01*
X129440925Y-112177993D01*
X129475000Y-112050826D01*
X129475000Y-111919174D01*
X129440925Y-111792007D01*
X129408012Y-111735000D01*
X130305636Y-111735000D01*
X130305635Y-111734999D01*
X130248432Y-111521513D01*
X130248429Y-111521507D01*
X130148600Y-111307422D01*
X130148599Y-111307420D01*
X130013113Y-111113926D01*
X130013108Y-111113920D01*
X129846078Y-110946890D01*
X129660405Y-110816879D01*
X129616780Y-110762302D01*
X129609588Y-110692804D01*
X129641110Y-110630449D01*
X129660406Y-110613730D01*
X129668929Y-110607762D01*
X129846401Y-110483495D01*
X130013495Y-110316401D01*
X130149035Y-110122830D01*
X130248903Y-109908663D01*
X130310063Y-109680408D01*
X130330659Y-109445000D01*
X130310063Y-109209592D01*
X130248903Y-108981337D01*
X130149035Y-108767171D01*
X130129572Y-108739374D01*
X130013494Y-108573597D01*
X129846402Y-108406506D01*
X129846395Y-108406501D01*
X129652834Y-108270967D01*
X129652830Y-108270965D01*
X129652508Y-108270815D01*
X129438663Y-108171097D01*
X129438659Y-108171096D01*
X129438655Y-108171094D01*
X129210413Y-108109938D01*
X129210403Y-108109936D01*
X128975001Y-108089341D01*
X128974999Y-108089341D01*
X128739596Y-108109936D01*
X128739586Y-108109938D01*
X128511344Y-108171094D01*
X128511335Y-108171098D01*
X128297171Y-108270964D01*
X128297169Y-108270965D01*
X128103597Y-108406505D01*
X128101922Y-108408181D01*
X128101000Y-108408684D01*
X128099449Y-108409986D01*
X128099187Y-108409674D01*
X128040599Y-108441666D01*
X128014241Y-108444500D01*
X127456455Y-108444500D01*
X127359812Y-108463724D01*
X127263167Y-108482947D01*
X127263161Y-108482949D01*
X127209834Y-108505038D01*
X127171452Y-108520936D01*
X127101982Y-108528405D01*
X127039503Y-108497129D01*
X127003852Y-108437040D01*
X127000000Y-108406375D01*
X127000000Y-102612500D01*
X127019685Y-102545461D01*
X127072489Y-102499706D01*
X127124000Y-102488500D01*
X128767982Y-102488500D01*
X128835021Y-102508185D01*
X128871791Y-102544679D01*
X128876021Y-102551153D01*
X129033216Y-102721913D01*
X129033219Y-102721915D01*
X129033222Y-102721918D01*
X129216365Y-102864464D01*
X129216371Y-102864468D01*
X129216374Y-102864470D01*
X129420497Y-102974936D01*
X129534487Y-103014068D01*
X129640015Y-103050297D01*
X129640017Y-103050297D01*
X129640019Y-103050298D01*
X129868951Y-103088500D01*
X129868952Y-103088500D01*
X130101051Y-103088500D01*
X130127732Y-103084047D01*
X130168672Y-103077215D01*
X130238036Y-103085595D01*
X130276764Y-103111842D01*
X132334211Y-105169289D01*
X132445711Y-105280789D01*
X132576821Y-105368394D01*
X132679833Y-105411062D01*
X132722502Y-105428737D01*
X132877152Y-105459499D01*
X132877155Y-105459500D01*
X132877157Y-105459500D01*
X132877158Y-105459500D01*
X134909951Y-105459500D01*
X134976990Y-105479185D01*
X134997632Y-105495819D01*
X135160858Y-105659045D01*
X135160861Y-105659047D01*
X135347266Y-105789568D01*
X135553504Y-105885739D01*
X135773308Y-105944635D01*
X135935230Y-105958801D01*
X135999998Y-105964468D01*
X136000000Y-105964468D01*
X136000002Y-105964468D01*
X136056673Y-105959509D01*
X136226692Y-105944635D01*
X136446496Y-105885739D01*
X136652734Y-105789568D01*
X136839139Y-105659047D01*
X137000047Y-105498139D01*
X137130568Y-105311734D01*
X137226739Y-105105496D01*
X137285635Y-104885692D01*
X137305468Y-104659000D01*
X137285635Y-104432308D01*
X137233770Y-104238744D01*
X137226741Y-104212511D01*
X137226738Y-104212502D01*
X137130568Y-104006267D01*
X137130567Y-104006265D01*
X137090894Y-103949606D01*
X137013319Y-103838815D01*
X137000045Y-103819858D01*
X136839141Y-103658954D01*
X136652734Y-103528432D01*
X136652732Y-103528431D01*
X136446497Y-103432261D01*
X136446488Y-103432258D01*
X136226697Y-103373366D01*
X136226693Y-103373365D01*
X136226692Y-103373365D01*
X136226691Y-103373364D01*
X136226686Y-103373364D01*
X136000002Y-103353532D01*
X135999998Y-103353532D01*
X135773313Y-103373364D01*
X135773302Y-103373366D01*
X135553511Y-103432258D01*
X135553502Y-103432261D01*
X135347267Y-103528431D01*
X135347265Y-103528432D01*
X135160858Y-103658954D01*
X134997632Y-103822181D01*
X134936309Y-103855666D01*
X134909951Y-103858500D01*
X133338940Y-103858500D01*
X133271901Y-103838815D01*
X133251259Y-103822181D01*
X131410034Y-101980956D01*
X131376549Y-101919633D01*
X131374139Y-101883035D01*
X131390300Y-101688005D01*
X131390300Y-101687993D01*
X131371135Y-101456702D01*
X131371133Y-101456691D01*
X131314157Y-101231699D01*
X131220924Y-101019151D01*
X131093983Y-100824852D01*
X131093980Y-100824849D01*
X131093979Y-100824847D01*
X130936784Y-100654087D01*
X130936779Y-100654083D01*
X130936777Y-100654081D01*
X130753634Y-100511535D01*
X130753628Y-100511531D01*
X130549504Y-100401064D01*
X130549495Y-100401060D01*
X130506598Y-100386334D01*
X130459180Y-100356734D01*
X130073585Y-99971137D01*
X130158694Y-99948333D01*
X130261306Y-99889090D01*
X130345090Y-99805306D01*
X130404333Y-99702694D01*
X130427138Y-99617585D01*
X131136186Y-100326633D01*
X131220483Y-100197609D01*
X131287847Y-100044034D01*
X131332802Y-99990548D01*
X131399538Y-99969857D01*
X131466866Y-99988531D01*
X131489084Y-100006162D01*
X132652211Y-101169289D01*
X132709363Y-101226441D01*
X132763712Y-101280790D01*
X132894814Y-101368390D01*
X132894818Y-101368392D01*
X132894821Y-101368394D01*
X132997076Y-101410749D01*
X132997077Y-101410749D01*
X132997079Y-101410751D01*
X133040497Y-101428735D01*
X133040502Y-101428737D01*
X133181091Y-101456702D01*
X133195152Y-101459499D01*
X133195155Y-101459500D01*
X133195157Y-101459500D01*
X133195158Y-101459500D01*
X134909951Y-101459500D01*
X134976990Y-101479185D01*
X134997632Y-101495819D01*
X135160858Y-101659045D01*
X135178506Y-101671402D01*
X135347266Y-101789568D01*
X135553504Y-101885739D01*
X135773308Y-101944635D01*
X135935230Y-101958801D01*
X135999998Y-101964468D01*
X136000000Y-101964468D01*
X136000002Y-101964468D01*
X136056673Y-101959509D01*
X136226692Y-101944635D01*
X136446496Y-101885739D01*
X136652734Y-101789568D01*
X136839139Y-101659047D01*
X137000047Y-101498139D01*
X137130568Y-101311734D01*
X137226739Y-101105496D01*
X137285635Y-100885692D01*
X137303250Y-100684356D01*
X137305468Y-100659001D01*
X137305468Y-100658998D01*
X137297208Y-100564586D01*
X137285635Y-100432308D01*
X137226739Y-100212504D01*
X137130568Y-100006266D01*
X137011921Y-99836819D01*
X137000045Y-99819858D01*
X136839141Y-99658954D01*
X136652734Y-99528432D01*
X136652732Y-99528431D01*
X136446497Y-99432261D01*
X136446488Y-99432258D01*
X136226697Y-99373366D01*
X136226693Y-99373365D01*
X136226692Y-99373365D01*
X136226691Y-99373364D01*
X136226686Y-99373364D01*
X136000002Y-99353532D01*
X135999998Y-99353532D01*
X135773313Y-99373364D01*
X135773302Y-99373366D01*
X135553511Y-99432258D01*
X135553502Y-99432261D01*
X135347267Y-99528431D01*
X135347265Y-99528432D01*
X135160858Y-99658954D01*
X134997632Y-99822181D01*
X134936309Y-99855666D01*
X134909951Y-99858500D01*
X133656940Y-99858500D01*
X133589901Y-99838815D01*
X133569259Y-99822181D01*
X131418259Y-97671181D01*
X131384774Y-97609858D01*
X131389758Y-97540166D01*
X131431630Y-97484233D01*
X131497094Y-97459816D01*
X131505940Y-97459500D01*
X134909951Y-97459500D01*
X134976990Y-97479185D01*
X134997632Y-97495819D01*
X135160858Y-97659045D01*
X135160861Y-97659047D01*
X135347266Y-97789568D01*
X135553504Y-97885739D01*
X135773308Y-97944635D01*
X135935230Y-97958801D01*
X135999998Y-97964468D01*
X136000000Y-97964468D01*
X136000002Y-97964468D01*
X136056673Y-97959509D01*
X136226692Y-97944635D01*
X136446496Y-97885739D01*
X136652734Y-97789568D01*
X136839139Y-97659047D01*
X137000047Y-97498139D01*
X137130568Y-97311734D01*
X137226739Y-97105496D01*
X137285635Y-96885692D01*
X137304665Y-96668177D01*
X137305468Y-96659001D01*
X137305468Y-96658998D01*
X137296311Y-96554331D01*
X137285635Y-96432308D01*
X137226739Y-96212504D01*
X137130568Y-96006266D01*
X137005640Y-95827848D01*
X137000045Y-95819858D01*
X136839141Y-95658954D01*
X136652734Y-95528432D01*
X136652732Y-95528431D01*
X136446497Y-95432261D01*
X136446488Y-95432258D01*
X136226697Y-95373366D01*
X136226693Y-95373365D01*
X136226692Y-95373365D01*
X136226691Y-95373364D01*
X136226686Y-95373364D01*
X136000002Y-95353532D01*
X135999998Y-95353532D01*
X135773313Y-95373364D01*
X135773302Y-95373366D01*
X135553511Y-95432258D01*
X135553502Y-95432261D01*
X135347267Y-95528431D01*
X135347265Y-95528432D01*
X135160858Y-95658954D01*
X134997632Y-95822181D01*
X134936309Y-95855666D01*
X134909951Y-95858500D01*
X131815940Y-95858500D01*
X131748901Y-95838815D01*
X131728259Y-95822181D01*
X131421818Y-95515740D01*
X131388333Y-95454417D01*
X131385499Y-95428059D01*
X131385499Y-94263129D01*
X131385498Y-94263123D01*
X131382421Y-94234500D01*
X131379091Y-94203517D01*
X131359228Y-94150262D01*
X131328797Y-94068671D01*
X131328793Y-94068664D01*
X131242547Y-93953455D01*
X131242544Y-93953452D01*
X131127335Y-93867206D01*
X131127328Y-93867202D01*
X130992482Y-93816908D01*
X130992483Y-93816908D01*
X130932883Y-93810501D01*
X130932881Y-93810500D01*
X130932873Y-93810500D01*
X130932864Y-93810500D01*
X129037129Y-93810500D01*
X129037123Y-93810501D01*
X128977516Y-93816908D01*
X128842671Y-93867202D01*
X128842664Y-93867206D01*
X128727455Y-93953452D01*
X128727452Y-93953455D01*
X128641206Y-94068664D01*
X128641202Y-94068671D01*
X128590910Y-94203513D01*
X128590909Y-94203517D01*
X128586152Y-94247757D01*
X128559416Y-94312306D01*
X128502024Y-94352154D01*
X128462864Y-94358500D01*
X127124000Y-94358500D01*
X127056961Y-94338815D01*
X127011206Y-94286011D01*
X127000000Y-94234500D01*
X127000000Y-91742500D01*
X127019685Y-91675461D01*
X127072489Y-91629706D01*
X127124000Y-91618500D01*
X128282982Y-91618500D01*
X128350021Y-91638185D01*
X128386791Y-91674679D01*
X128391021Y-91681153D01*
X128548216Y-91851913D01*
X128548219Y-91851915D01*
X128548222Y-91851918D01*
X128731365Y-91994464D01*
X128731371Y-91994468D01*
X128731374Y-91994470D01*
X128935497Y-92104936D01*
X129002491Y-92127935D01*
X129155015Y-92180297D01*
X129155017Y-92180297D01*
X129155019Y-92180298D01*
X129383951Y-92218500D01*
X129383952Y-92218500D01*
X129616048Y-92218500D01*
X129616049Y-92218500D01*
X129844981Y-92180298D01*
X130064503Y-92104936D01*
X130064510Y-92104932D01*
X130064513Y-92104931D01*
X130248148Y-92005552D01*
X130316476Y-91990956D01*
X130381849Y-92015619D01*
X130394847Y-92026925D01*
X130648707Y-92280786D01*
X130648711Y-92280789D01*
X130779814Y-92368390D01*
X130779818Y-92368392D01*
X130779821Y-92368394D01*
X130925503Y-92428738D01*
X131080153Y-92459499D01*
X131080157Y-92459500D01*
X131080158Y-92459500D01*
X131237843Y-92459500D01*
X134909951Y-92459500D01*
X134976990Y-92479185D01*
X134997632Y-92495819D01*
X135160858Y-92659045D01*
X135160861Y-92659047D01*
X135347266Y-92789568D01*
X135553504Y-92885739D01*
X135773308Y-92944635D01*
X135935230Y-92958801D01*
X135999998Y-92964468D01*
X136000000Y-92964468D01*
X136000002Y-92964468D01*
X136056673Y-92959509D01*
X136226692Y-92944635D01*
X136446496Y-92885739D01*
X136652734Y-92789568D01*
X136839139Y-92659047D01*
X137000047Y-92498139D01*
X137130568Y-92311734D01*
X137226739Y-92105496D01*
X137285635Y-91885692D01*
X137305468Y-91659000D01*
X137285635Y-91432308D01*
X137226739Y-91212504D01*
X137130568Y-91006266D01*
X137011079Y-90835617D01*
X137000045Y-90819858D01*
X136839141Y-90658954D01*
X136652734Y-90528432D01*
X136652732Y-90528431D01*
X136446497Y-90432261D01*
X136446488Y-90432258D01*
X136226697Y-90373366D01*
X136226693Y-90373365D01*
X136226692Y-90373365D01*
X136226691Y-90373364D01*
X136226686Y-90373364D01*
X136000002Y-90353532D01*
X135999998Y-90353532D01*
X135773313Y-90373364D01*
X135773302Y-90373366D01*
X135553511Y-90432258D01*
X135553502Y-90432261D01*
X135347267Y-90528431D01*
X135347265Y-90528432D01*
X135160858Y-90658954D01*
X134997632Y-90822181D01*
X134936309Y-90855666D01*
X134909951Y-90858500D01*
X131541940Y-90858500D01*
X131474901Y-90838815D01*
X131454259Y-90822181D01*
X130828292Y-90196213D01*
X130828289Y-90196210D01*
X130739991Y-90137212D01*
X130705073Y-90101931D01*
X130670010Y-90048263D01*
X130608979Y-89954847D01*
X130451784Y-89784087D01*
X130451779Y-89784083D01*
X130451777Y-89784081D01*
X130268634Y-89641535D01*
X130268628Y-89641531D01*
X130064504Y-89531064D01*
X130064495Y-89531060D01*
X130021598Y-89516334D01*
X129974180Y-89486734D01*
X129588585Y-89101137D01*
X129673694Y-89078333D01*
X129776306Y-89019090D01*
X129860090Y-88935306D01*
X129919333Y-88832694D01*
X129942138Y-88747585D01*
X130651186Y-89456633D01*
X130735482Y-89327611D01*
X130828682Y-89115135D01*
X130885638Y-88890218D01*
X130904798Y-88659005D01*
X130904798Y-88658994D01*
X130885638Y-88427781D01*
X130828682Y-88202864D01*
X130735484Y-87990393D01*
X130651186Y-87861365D01*
X129942137Y-88570414D01*
X129919333Y-88485306D01*
X129860090Y-88382694D01*
X129776306Y-88298910D01*
X129673694Y-88239667D01*
X129588584Y-88216861D01*
X129974179Y-87831265D01*
X130021595Y-87801666D01*
X130064503Y-87786936D01*
X130268626Y-87676470D01*
X130271136Y-87674517D01*
X130444386Y-87539671D01*
X130451784Y-87533913D01*
X130608979Y-87363153D01*
X130613209Y-87356679D01*
X130666355Y-87311322D01*
X130717018Y-87300500D01*
X134458060Y-87300500D01*
X134525099Y-87320185D01*
X134545741Y-87336819D01*
X134667594Y-87458672D01*
X134701079Y-87519995D01*
X134703441Y-87557160D01*
X134694532Y-87658997D01*
X134694532Y-87659001D01*
X134714364Y-87885686D01*
X134714366Y-87885697D01*
X134773258Y-88105488D01*
X134773261Y-88105497D01*
X134869431Y-88311732D01*
X134869432Y-88311734D01*
X134999954Y-88498141D01*
X135160858Y-88659045D01*
X135160861Y-88659047D01*
X135347266Y-88789568D01*
X135553504Y-88885739D01*
X135553509Y-88885740D01*
X135553511Y-88885741D01*
X135571522Y-88890567D01*
X135773308Y-88944635D01*
X135935230Y-88958801D01*
X135999998Y-88964468D01*
X136000000Y-88964468D01*
X136000002Y-88964468D01*
X136056673Y-88959509D01*
X136226692Y-88944635D01*
X136446496Y-88885739D01*
X136652734Y-88789568D01*
X136839139Y-88659047D01*
X137000047Y-88498139D01*
X137130568Y-88311734D01*
X137226739Y-88105496D01*
X137285635Y-87885692D01*
X137305468Y-87659000D01*
X137285635Y-87432308D01*
X137226739Y-87212504D01*
X137130568Y-87006266D01*
X137000047Y-86819861D01*
X137000045Y-86819858D01*
X136839141Y-86658954D01*
X136652734Y-86528432D01*
X136652732Y-86528431D01*
X136446497Y-86432261D01*
X136446488Y-86432258D01*
X136226697Y-86373366D01*
X136226693Y-86373365D01*
X136226692Y-86373365D01*
X136226691Y-86373364D01*
X136226686Y-86373364D01*
X136000002Y-86353532D01*
X135999998Y-86353532D01*
X135898160Y-86362441D01*
X135829660Y-86348674D01*
X135799672Y-86326594D01*
X135351292Y-85878213D01*
X135351288Y-85878210D01*
X135220185Y-85790609D01*
X135220172Y-85790602D01*
X135074501Y-85730264D01*
X135074489Y-85730261D01*
X134919845Y-85699500D01*
X134919842Y-85699500D01*
X130929694Y-85699500D01*
X130862655Y-85679815D01*
X130816900Y-85627011D01*
X130806956Y-85557853D01*
X130830428Y-85501188D01*
X130843796Y-85483331D01*
X130894091Y-85348483D01*
X130900500Y-85288873D01*
X130900500Y-84583500D01*
X130920185Y-84516461D01*
X130972989Y-84470706D01*
X131024500Y-84459500D01*
X134909951Y-84459500D01*
X134976990Y-84479185D01*
X134997632Y-84495819D01*
X135160858Y-84659045D01*
X135160861Y-84659047D01*
X135347266Y-84789568D01*
X135553504Y-84885739D01*
X135773308Y-84944635D01*
X135935230Y-84958801D01*
X135999998Y-84964468D01*
X136000000Y-84964468D01*
X136000002Y-84964468D01*
X136056673Y-84959509D01*
X136226692Y-84944635D01*
X136446496Y-84885739D01*
X136652734Y-84789568D01*
X136839139Y-84659047D01*
X137000047Y-84498139D01*
X137130568Y-84311734D01*
X137226739Y-84105496D01*
X137285635Y-83885692D01*
X137305468Y-83659000D01*
X137285635Y-83432308D01*
X137226739Y-83212504D01*
X137130568Y-83006266D01*
X137011772Y-82836606D01*
X137000045Y-82819858D01*
X136839141Y-82658954D01*
X136652734Y-82528432D01*
X136652732Y-82528431D01*
X136446497Y-82432261D01*
X136446488Y-82432258D01*
X136226697Y-82373366D01*
X136226693Y-82373365D01*
X136226692Y-82373365D01*
X136226691Y-82373364D01*
X136226686Y-82373364D01*
X136000002Y-82353532D01*
X135999998Y-82353532D01*
X135773313Y-82373364D01*
X135773302Y-82373366D01*
X135553511Y-82432258D01*
X135553502Y-82432261D01*
X135347267Y-82528431D01*
X135347265Y-82528432D01*
X135160858Y-82658954D01*
X134997632Y-82822181D01*
X134936309Y-82855666D01*
X134909951Y-82858500D01*
X130444153Y-82858500D01*
X130289510Y-82889260D01*
X130289496Y-82889264D01*
X130188590Y-82931061D01*
X130141138Y-82940500D01*
X128552129Y-82940500D01*
X128552123Y-82940501D01*
X128492516Y-82946908D01*
X128357671Y-82997202D01*
X128357664Y-82997206D01*
X128242455Y-83083452D01*
X128242452Y-83083455D01*
X128156206Y-83198664D01*
X128156202Y-83198671D01*
X128105908Y-83333517D01*
X128099501Y-83393116D01*
X128099500Y-83393135D01*
X128099500Y-83416500D01*
X128079815Y-83483539D01*
X128027011Y-83529294D01*
X127975500Y-83540500D01*
X127124000Y-83540500D01*
X127056961Y-83520815D01*
X127011206Y-83468011D01*
X127000000Y-83416500D01*
X127000000Y-81635500D01*
X127019685Y-81568461D01*
X127072489Y-81522706D01*
X127124000Y-81511500D01*
X129267982Y-81511500D01*
X129335021Y-81531185D01*
X129371791Y-81567679D01*
X129376021Y-81574153D01*
X129533216Y-81744913D01*
X129533219Y-81744915D01*
X129533222Y-81744918D01*
X129716365Y-81887464D01*
X129716371Y-81887468D01*
X129716374Y-81887470D01*
X129920497Y-81997936D01*
X130034487Y-82037068D01*
X130140015Y-82073297D01*
X130140017Y-82073297D01*
X130140019Y-82073298D01*
X130368951Y-82111500D01*
X130368952Y-82111500D01*
X130601048Y-82111500D01*
X130601049Y-82111500D01*
X130829981Y-82073298D01*
X131049503Y-81997936D01*
X131253626Y-81887470D01*
X131293381Y-81856528D01*
X131315129Y-81839600D01*
X131436784Y-81744913D01*
X131593979Y-81574153D01*
X131720924Y-81379849D01*
X131814157Y-81167300D01*
X131871134Y-80942305D01*
X131871382Y-80939313D01*
X131890300Y-80711006D01*
X131890300Y-80710994D01*
X131874139Y-80515963D01*
X131888220Y-80447527D01*
X131910031Y-80418046D01*
X132832259Y-79495819D01*
X132893582Y-79462334D01*
X132919940Y-79459500D01*
X134909951Y-79459500D01*
X134976990Y-79479185D01*
X134997632Y-79495819D01*
X135160858Y-79659045D01*
X135160861Y-79659047D01*
X135347266Y-79789568D01*
X135553504Y-79885739D01*
X135553509Y-79885740D01*
X135553511Y-79885741D01*
X135572448Y-79890815D01*
X135773308Y-79944635D01*
X135935230Y-79958801D01*
X135999998Y-79964468D01*
X136000000Y-79964468D01*
X136000002Y-79964468D01*
X136056673Y-79959509D01*
X136226692Y-79944635D01*
X136446496Y-79885739D01*
X136652734Y-79789568D01*
X136839139Y-79659047D01*
X137000047Y-79498139D01*
X137130568Y-79311734D01*
X137226739Y-79105496D01*
X137285635Y-78885692D01*
X137305468Y-78659000D01*
X137285635Y-78432308D01*
X137226739Y-78212504D01*
X137130568Y-78006266D01*
X137022076Y-77851322D01*
X137000045Y-77819858D01*
X136839141Y-77658954D01*
X136652734Y-77528432D01*
X136652732Y-77528431D01*
X136446497Y-77432261D01*
X136446488Y-77432258D01*
X136226697Y-77373366D01*
X136226693Y-77373365D01*
X136226692Y-77373365D01*
X136226691Y-77373364D01*
X136226686Y-77373364D01*
X136000002Y-77353532D01*
X135999998Y-77353532D01*
X135773313Y-77373364D01*
X135773302Y-77373366D01*
X135553511Y-77432258D01*
X135553502Y-77432261D01*
X135347267Y-77528431D01*
X135347265Y-77528432D01*
X135160858Y-77658954D01*
X134997632Y-77822181D01*
X134936309Y-77855666D01*
X134909951Y-77858500D01*
X132458155Y-77858500D01*
X132303508Y-77889261D01*
X132303498Y-77889264D01*
X132157827Y-77949602D01*
X132157814Y-77949609D01*
X132026711Y-78037210D01*
X132026706Y-78037214D01*
X131989083Y-78074837D01*
X131927760Y-78108322D01*
X131858068Y-78103336D01*
X131802135Y-78061464D01*
X131787847Y-78036965D01*
X131720484Y-77883393D01*
X131636186Y-77754365D01*
X130927137Y-78463414D01*
X130904333Y-78378306D01*
X130845090Y-78275694D01*
X130761306Y-78191910D01*
X130658694Y-78132667D01*
X130573584Y-78109861D01*
X130959179Y-77724265D01*
X131006595Y-77694666D01*
X131049503Y-77679936D01*
X131253626Y-77569470D01*
X131436784Y-77426913D01*
X131593979Y-77256153D01*
X131598209Y-77249679D01*
X131651355Y-77204322D01*
X131702018Y-77193500D01*
X134344844Y-77193500D01*
X134344845Y-77193499D01*
X134499497Y-77162737D01*
X134645179Y-77102394D01*
X134776289Y-77014789D01*
X135799673Y-75991402D01*
X135860994Y-75957919D01*
X135898155Y-75955557D01*
X136000000Y-75964468D01*
X136000000Y-75964467D01*
X136000001Y-75964468D01*
X136000002Y-75964468D01*
X136074855Y-75957919D01*
X136226692Y-75944635D01*
X136446496Y-75885739D01*
X136652734Y-75789568D01*
X136839139Y-75659047D01*
X137000047Y-75498139D01*
X137130568Y-75311734D01*
X137226739Y-75105496D01*
X137285635Y-74885692D01*
X137305468Y-74659000D01*
X137285635Y-74432308D01*
X137226739Y-74212504D01*
X137130568Y-74006266D01*
X137000047Y-73819861D01*
X137000045Y-73819858D01*
X136839141Y-73658954D01*
X136652734Y-73528432D01*
X136652732Y-73528431D01*
X136446497Y-73432261D01*
X136446488Y-73432258D01*
X136226697Y-73373366D01*
X136226693Y-73373365D01*
X136226692Y-73373365D01*
X136226691Y-73373364D01*
X136226686Y-73373364D01*
X136000002Y-73353532D01*
X135999998Y-73353532D01*
X135773313Y-73373364D01*
X135773302Y-73373366D01*
X135553511Y-73432258D01*
X135553502Y-73432261D01*
X135347267Y-73528431D01*
X135347265Y-73528432D01*
X135160858Y-73658954D01*
X134999954Y-73819858D01*
X134869432Y-74006265D01*
X134869431Y-74006267D01*
X134773261Y-74212502D01*
X134773258Y-74212511D01*
X134714366Y-74432302D01*
X134714364Y-74432313D01*
X134694532Y-74658998D01*
X134694532Y-74659002D01*
X134703441Y-74760839D01*
X134689674Y-74829339D01*
X134667594Y-74859327D01*
X133970741Y-75556181D01*
X133909418Y-75589666D01*
X133883060Y-75592500D01*
X131914694Y-75592500D01*
X131847655Y-75572815D01*
X131801900Y-75520011D01*
X131791956Y-75450853D01*
X131815428Y-75394188D01*
X131828796Y-75376331D01*
X131879091Y-75241483D01*
X131885500Y-75181873D01*
X131885499Y-74016938D01*
X131905184Y-73949900D01*
X131921813Y-73929263D01*
X134355259Y-71495819D01*
X134416582Y-71462334D01*
X134442940Y-71459500D01*
X134909951Y-71459500D01*
X134976990Y-71479185D01*
X134997632Y-71495819D01*
X135160858Y-71659045D01*
X135160861Y-71659047D01*
X135347266Y-71789568D01*
X135553504Y-71885739D01*
X135773308Y-71944635D01*
X135935230Y-71958801D01*
X135999998Y-71964468D01*
X136000000Y-71964468D01*
X136000002Y-71964468D01*
X136056673Y-71959509D01*
X136226692Y-71944635D01*
X136446496Y-71885739D01*
X136652734Y-71789568D01*
X136839139Y-71659047D01*
X137000047Y-71498139D01*
X137130568Y-71311734D01*
X137226739Y-71105496D01*
X137285635Y-70885692D01*
X137305468Y-70659000D01*
X137301876Y-70617949D01*
X137291595Y-70500429D01*
X137285635Y-70432308D01*
X137226739Y-70212504D01*
X137130568Y-70006266D01*
X137008251Y-69831578D01*
X137000045Y-69819858D01*
X136839141Y-69658954D01*
X136652734Y-69528432D01*
X136652732Y-69528431D01*
X136446497Y-69432261D01*
X136446488Y-69432258D01*
X136226697Y-69373366D01*
X136226693Y-69373365D01*
X136226692Y-69373365D01*
X136226691Y-69373364D01*
X136226686Y-69373364D01*
X136000002Y-69353532D01*
X135999998Y-69353532D01*
X135773313Y-69373364D01*
X135773302Y-69373366D01*
X135553511Y-69432258D01*
X135553502Y-69432261D01*
X135347267Y-69528431D01*
X135347265Y-69528432D01*
X135160858Y-69658954D01*
X134997632Y-69822181D01*
X134936309Y-69855666D01*
X134909951Y-69858500D01*
X133981154Y-69858500D01*
X133826509Y-69889261D01*
X133826501Y-69889263D01*
X133787303Y-69905500D01*
X133787302Y-69905500D01*
X133680827Y-69949602D01*
X133680815Y-69949609D01*
X133590003Y-70010289D01*
X133590002Y-70010289D01*
X133549714Y-70037208D01*
X133549706Y-70037214D01*
X130789739Y-72797181D01*
X130728416Y-72830666D01*
X130702058Y-72833500D01*
X129537129Y-72833500D01*
X129537123Y-72833501D01*
X129477516Y-72839908D01*
X129342671Y-72890202D01*
X129342664Y-72890206D01*
X129227455Y-72976452D01*
X129227452Y-72976455D01*
X129141206Y-73091664D01*
X129141202Y-73091671D01*
X129090908Y-73226517D01*
X129084501Y-73286116D01*
X129084500Y-73286135D01*
X129084500Y-73309500D01*
X129064815Y-73376539D01*
X129012011Y-73422294D01*
X128960500Y-73433500D01*
X127124000Y-73433500D01*
X127056961Y-73413815D01*
X127011206Y-73361011D01*
X127000000Y-73309500D01*
X127000000Y-63885258D01*
X146169500Y-63885258D01*
X146169500Y-64114741D01*
X146194208Y-64302410D01*
X146199452Y-64342238D01*
X146249029Y-64527264D01*
X146258842Y-64563887D01*
X146346650Y-64775876D01*
X146346657Y-64775890D01*
X146461392Y-64974617D01*
X146601081Y-65156661D01*
X146601089Y-65156670D01*
X146763330Y-65318911D01*
X146763338Y-65318918D01*
X146945382Y-65458607D01*
X146945385Y-65458608D01*
X146945388Y-65458611D01*
X147144112Y-65573344D01*
X147144117Y-65573346D01*
X147144123Y-65573349D01*
X147235480Y-65611190D01*
X147356113Y-65661158D01*
X147577762Y-65720548D01*
X147805266Y-65750500D01*
X147805273Y-65750500D01*
X148034727Y-65750500D01*
X148034734Y-65750500D01*
X148262238Y-65720548D01*
X148483887Y-65661158D01*
X148695888Y-65573344D01*
X148894612Y-65458611D01*
X149076661Y-65318919D01*
X149076665Y-65318914D01*
X149076670Y-65318911D01*
X149238911Y-65156670D01*
X149238914Y-65156665D01*
X149238919Y-65156661D01*
X149378611Y-64974612D01*
X149493344Y-64775888D01*
X149581158Y-64563887D01*
X149640548Y-64342238D01*
X149670500Y-64114734D01*
X149670500Y-63885266D01*
X149670499Y-63885258D01*
X170679500Y-63885258D01*
X170679500Y-64114741D01*
X170704208Y-64302410D01*
X170709452Y-64342238D01*
X170759029Y-64527264D01*
X170768842Y-64563887D01*
X170856650Y-64775876D01*
X170856657Y-64775890D01*
X170971392Y-64974617D01*
X171111081Y-65156661D01*
X171111089Y-65156670D01*
X171273330Y-65318911D01*
X171273338Y-65318918D01*
X171455382Y-65458607D01*
X171455385Y-65458608D01*
X171455388Y-65458611D01*
X171654112Y-65573344D01*
X171654117Y-65573346D01*
X171654123Y-65573349D01*
X171745480Y-65611190D01*
X171866113Y-65661158D01*
X172087762Y-65720548D01*
X172315266Y-65750500D01*
X172315273Y-65750500D01*
X172544727Y-65750500D01*
X172544734Y-65750500D01*
X172772238Y-65720548D01*
X172993887Y-65661158D01*
X173205888Y-65573344D01*
X173404612Y-65458611D01*
X173586661Y-65318919D01*
X173586665Y-65318914D01*
X173586670Y-65318911D01*
X173748911Y-65156670D01*
X173748914Y-65156665D01*
X173748919Y-65156661D01*
X173888611Y-64974612D01*
X174003344Y-64775888D01*
X174091158Y-64563887D01*
X174150548Y-64342238D01*
X174180500Y-64114734D01*
X174180500Y-63885266D01*
X174150548Y-63657762D01*
X174091158Y-63436113D01*
X174003344Y-63224112D01*
X173888611Y-63025388D01*
X173888608Y-63025385D01*
X173888607Y-63025382D01*
X173748918Y-62843338D01*
X173748911Y-62843330D01*
X173586670Y-62681089D01*
X173586661Y-62681081D01*
X173404617Y-62541392D01*
X173205890Y-62426657D01*
X173205876Y-62426650D01*
X172993887Y-62338842D01*
X172772238Y-62279452D01*
X172734215Y-62274446D01*
X172544741Y-62249500D01*
X172544734Y-62249500D01*
X172315266Y-62249500D01*
X172315258Y-62249500D01*
X172098715Y-62278009D01*
X172087762Y-62279452D01*
X171994076Y-62304554D01*
X171866112Y-62338842D01*
X171654123Y-62426650D01*
X171654109Y-62426657D01*
X171455382Y-62541392D01*
X171273338Y-62681081D01*
X171111081Y-62843338D01*
X170971392Y-63025382D01*
X170856657Y-63224109D01*
X170856650Y-63224123D01*
X170768842Y-63436112D01*
X170709453Y-63657759D01*
X170709451Y-63657770D01*
X170679500Y-63885258D01*
X149670499Y-63885258D01*
X149640548Y-63657762D01*
X149581158Y-63436113D01*
X149493344Y-63224112D01*
X149378611Y-63025388D01*
X149378608Y-63025385D01*
X149378607Y-63025382D01*
X149238918Y-62843338D01*
X149238911Y-62843330D01*
X149076670Y-62681089D01*
X149076661Y-62681081D01*
X148894617Y-62541392D01*
X148695890Y-62426657D01*
X148695876Y-62426650D01*
X148483887Y-62338842D01*
X148262238Y-62279452D01*
X148224215Y-62274446D01*
X148034741Y-62249500D01*
X148034734Y-62249500D01*
X147805266Y-62249500D01*
X147805258Y-62249500D01*
X147588715Y-62278009D01*
X147577762Y-62279452D01*
X147484076Y-62304554D01*
X147356112Y-62338842D01*
X147144123Y-62426650D01*
X147144109Y-62426657D01*
X146945382Y-62541392D01*
X146763338Y-62681081D01*
X146601081Y-62843338D01*
X146461392Y-63025382D01*
X146346657Y-63224109D01*
X146346650Y-63224123D01*
X146258842Y-63436112D01*
X146199453Y-63657759D01*
X146199451Y-63657770D01*
X146169500Y-63885258D01*
X127000000Y-63885258D01*
X127000000Y-55124000D01*
X127019685Y-55056961D01*
X127072489Y-55011206D01*
X127124000Y-55000000D01*
X152500000Y-55000000D01*
X158500000Y-55000000D01*
X167015291Y-55000000D01*
X167025469Y-55000500D01*
G37*
%TD.AperFunction*%
%TA.AperFunction,Conductor*%
G36*
X128835021Y-98190185D02*
G01*
X128871791Y-98226679D01*
X128876019Y-98233150D01*
X128876021Y-98233153D01*
X129033216Y-98403913D01*
X129033219Y-98403915D01*
X129033222Y-98403918D01*
X129216365Y-98546464D01*
X129216371Y-98546468D01*
X129216374Y-98546470D01*
X129420497Y-98656936D01*
X129439458Y-98663445D01*
X129463401Y-98671665D01*
X129510819Y-98701265D01*
X129896415Y-99086861D01*
X129811306Y-99109667D01*
X129708694Y-99168910D01*
X129624910Y-99252694D01*
X129565667Y-99355306D01*
X129542861Y-99440415D01*
X128833811Y-98731365D01*
X128749516Y-98860390D01*
X128656317Y-99072864D01*
X128599361Y-99297781D01*
X128580202Y-99528994D01*
X128580202Y-99529005D01*
X128599361Y-99760218D01*
X128656317Y-99985135D01*
X128749515Y-100197606D01*
X128833812Y-100326633D01*
X129542861Y-99617584D01*
X129565667Y-99702694D01*
X129624910Y-99805306D01*
X129708694Y-99889090D01*
X129811306Y-99948333D01*
X129896414Y-99971137D01*
X129510818Y-100356734D01*
X129463402Y-100386334D01*
X129420498Y-100401063D01*
X129420495Y-100401064D01*
X129216371Y-100511531D01*
X129216365Y-100511535D01*
X129033222Y-100654081D01*
X129033219Y-100654084D01*
X129033216Y-100654086D01*
X129033216Y-100654087D01*
X128991411Y-100699500D01*
X128876019Y-100824849D01*
X128871791Y-100831321D01*
X128818645Y-100876678D01*
X128767982Y-100887500D01*
X127124000Y-100887500D01*
X127056961Y-100867815D01*
X127011206Y-100815011D01*
X127000000Y-100763500D01*
X127000000Y-98294500D01*
X127019685Y-98227461D01*
X127072489Y-98181706D01*
X127124000Y-98170500D01*
X128767982Y-98170500D01*
X128835021Y-98190185D01*
G37*
%TD.AperFunction*%
%TA.AperFunction,Conductor*%
G36*
X128444492Y-87427185D02*
G01*
X128468682Y-87447517D01*
X128548212Y-87533909D01*
X128548222Y-87533918D01*
X128731365Y-87676464D01*
X128731371Y-87676468D01*
X128731374Y-87676470D01*
X128935497Y-87786936D01*
X128935500Y-87786937D01*
X128978401Y-87801665D01*
X129025819Y-87831265D01*
X129411415Y-88216861D01*
X129326306Y-88239667D01*
X129223694Y-88298910D01*
X129139910Y-88382694D01*
X129080667Y-88485306D01*
X129057861Y-88570415D01*
X128348811Y-87861365D01*
X128264516Y-87990390D01*
X128171317Y-88202864D01*
X128114361Y-88427781D01*
X128095202Y-88658994D01*
X128095202Y-88659005D01*
X128114361Y-88890218D01*
X128171317Y-89115135D01*
X128264515Y-89327606D01*
X128348812Y-89456633D01*
X129057861Y-88747584D01*
X129080667Y-88832694D01*
X129139910Y-88935306D01*
X129223694Y-89019090D01*
X129326306Y-89078333D01*
X129411414Y-89101137D01*
X129025818Y-89486734D01*
X128978402Y-89516334D01*
X128935498Y-89531063D01*
X128935495Y-89531064D01*
X128731371Y-89641531D01*
X128731365Y-89641535D01*
X128548222Y-89784081D01*
X128548219Y-89784084D01*
X128548216Y-89784086D01*
X128548216Y-89784087D01*
X128453899Y-89886543D01*
X128391019Y-89954849D01*
X128386791Y-89961321D01*
X128333645Y-90006678D01*
X128282982Y-90017500D01*
X127124000Y-90017500D01*
X127056961Y-89997815D01*
X127011206Y-89945011D01*
X127000000Y-89893500D01*
X127000000Y-87531500D01*
X127019685Y-87464461D01*
X127072489Y-87418706D01*
X127124000Y-87407500D01*
X128314158Y-87407500D01*
X128377453Y-87407500D01*
X128444492Y-87427185D01*
G37*
%TD.AperFunction*%
%TA.AperFunction,Conductor*%
G36*
X173412257Y-69820185D02*
G01*
X173458012Y-69872989D01*
X173467956Y-69942147D01*
X173438931Y-70005703D01*
X173432899Y-70012181D01*
X173021899Y-70423181D01*
X172960576Y-70456666D01*
X172934218Y-70459500D01*
X172775665Y-70459500D01*
X172530383Y-70500429D01*
X172295197Y-70581169D01*
X172295188Y-70581172D01*
X172076493Y-70699524D01*
X171880257Y-70852261D01*
X171711833Y-71035217D01*
X171575826Y-71243393D01*
X171475936Y-71471118D01*
X171414892Y-71712175D01*
X171414890Y-71712187D01*
X171394357Y-71959994D01*
X171394357Y-71960005D01*
X171414890Y-72207812D01*
X171414892Y-72207824D01*
X171475936Y-72448881D01*
X171575826Y-72676606D01*
X171711833Y-72884782D01*
X171716826Y-72890206D01*
X171880256Y-73067738D01*
X171880259Y-73067740D01*
X171880262Y-73067743D01*
X171983743Y-73148286D01*
X172024556Y-73204996D01*
X172031343Y-73253823D01*
X172029941Y-73276389D01*
X172762424Y-74008871D01*
X172703147Y-74024755D01*
X172586853Y-74091898D01*
X172491898Y-74186853D01*
X172424755Y-74303147D01*
X172408872Y-74362424D01*
X171676564Y-73630116D01*
X171576267Y-73783632D01*
X171476412Y-74011282D01*
X171415387Y-74252261D01*
X171415385Y-74252270D01*
X171394859Y-74499994D01*
X171394859Y-74500005D01*
X171415385Y-74747729D01*
X171415387Y-74747738D01*
X171476412Y-74988717D01*
X171576266Y-75216364D01*
X171676564Y-75369882D01*
X172408871Y-74637575D01*
X172424755Y-74696853D01*
X172491898Y-74813147D01*
X172586853Y-74908102D01*
X172703147Y-74975245D01*
X172762424Y-74991128D01*
X172029942Y-75723609D01*
X172031343Y-75746177D01*
X172015850Y-75814307D01*
X171983744Y-75851713D01*
X171880258Y-75932260D01*
X171711833Y-76115217D01*
X171575826Y-76323393D01*
X171475936Y-76551118D01*
X171414892Y-76792175D01*
X171414890Y-76792187D01*
X171394357Y-77039994D01*
X171394357Y-77040005D01*
X171414890Y-77287812D01*
X171414892Y-77287824D01*
X171475936Y-77528881D01*
X171575826Y-77756606D01*
X171711833Y-77964782D01*
X171711836Y-77964785D01*
X171880256Y-78147738D01*
X171963008Y-78212147D01*
X172003821Y-78268857D01*
X172007496Y-78338630D01*
X171972864Y-78399313D01*
X171963014Y-78407848D01*
X171904400Y-78453469D01*
X171880257Y-78472261D01*
X171711833Y-78655217D01*
X171575826Y-78863393D01*
X171475936Y-79091118D01*
X171414892Y-79332175D01*
X171414890Y-79332187D01*
X171394357Y-79579994D01*
X171394357Y-79580005D01*
X171414890Y-79827812D01*
X171414892Y-79827824D01*
X171475936Y-80068881D01*
X171575826Y-80296606D01*
X171711833Y-80504782D01*
X171711836Y-80504785D01*
X171880256Y-80687738D01*
X171963008Y-80752147D01*
X172003821Y-80808857D01*
X172007496Y-80878630D01*
X171972864Y-80939313D01*
X171963014Y-80947848D01*
X171921944Y-80979815D01*
X171880257Y-81012261D01*
X171711833Y-81195217D01*
X171667340Y-81263321D01*
X171614194Y-81308678D01*
X171563531Y-81319500D01*
X167002940Y-81319500D01*
X166935901Y-81299815D01*
X166915259Y-81283181D01*
X165836819Y-80204741D01*
X165803334Y-80143418D01*
X165800500Y-80117060D01*
X165800500Y-79979413D01*
X165820185Y-79912374D01*
X165872989Y-79866619D01*
X165942147Y-79856675D01*
X166005703Y-79885700D01*
X166033856Y-79920956D01*
X166122315Y-80086450D01*
X166122317Y-80086452D01*
X166253589Y-80246410D01*
X166350209Y-80325702D01*
X166413550Y-80377685D01*
X166596046Y-80475232D01*
X166794066Y-80535300D01*
X166794065Y-80535300D01*
X166812529Y-80537118D01*
X167000000Y-80555583D01*
X167205934Y-80535300D01*
X167403954Y-80475232D01*
X167586450Y-80377685D01*
X167746410Y-80246410D01*
X167877685Y-80086450D01*
X167975232Y-79903954D01*
X168035300Y-79705934D01*
X168055583Y-79500000D01*
X168035300Y-79294066D01*
X167975232Y-79096046D01*
X167877685Y-78913550D01*
X167828646Y-78853795D01*
X167801334Y-78789485D01*
X167800500Y-78775131D01*
X167800500Y-70382940D01*
X167820185Y-70315901D01*
X167836819Y-70295259D01*
X168295259Y-69836819D01*
X168356582Y-69803334D01*
X168382940Y-69800500D01*
X173345218Y-69800500D01*
X173412257Y-69820185D01*
G37*
%TD.AperFunction*%
%TA.AperFunction,Conductor*%
G36*
X192035000Y-74078872D02*
G01*
X192231317Y-74026269D01*
X192231326Y-74026265D01*
X192437482Y-73930134D01*
X192623820Y-73799657D01*
X192784657Y-73638820D01*
X192915132Y-73452484D01*
X192942341Y-73394134D01*
X192988513Y-73341695D01*
X193055707Y-73322542D01*
X193122588Y-73342757D01*
X193167105Y-73394132D01*
X193194432Y-73452734D01*
X193298362Y-73601163D01*
X193302075Y-73606465D01*
X193324402Y-73672671D01*
X193324500Y-73677588D01*
X193324500Y-76423541D01*
X193324500Y-76423543D01*
X193324499Y-76423543D01*
X193362947Y-76616829D01*
X193362950Y-76616839D01*
X193438364Y-76798907D01*
X193438371Y-76798920D01*
X193547859Y-76962780D01*
X193547860Y-76962781D01*
X193547861Y-76962782D01*
X193687218Y-77102139D01*
X193687219Y-77102139D01*
X193694286Y-77109206D01*
X193694285Y-77109206D01*
X193694289Y-77109209D01*
X195362219Y-78777140D01*
X195362218Y-78777140D01*
X195375887Y-78786272D01*
X195403043Y-78804417D01*
X195403045Y-78804419D01*
X195403046Y-78804419D01*
X195491306Y-78863393D01*
X195526086Y-78886632D01*
X195526088Y-78886633D01*
X195526092Y-78886635D01*
X195610665Y-78921666D01*
X195610666Y-78921666D01*
X195708165Y-78962052D01*
X195869389Y-78994121D01*
X195901457Y-79000499D01*
X195901458Y-79000500D01*
X195901459Y-79000500D01*
X202178542Y-79000500D01*
X202210614Y-78994120D01*
X202275188Y-78981275D01*
X202371836Y-78962051D01*
X202435105Y-78935844D01*
X202553914Y-78886632D01*
X202717782Y-78777139D01*
X202857139Y-78637782D01*
X202857140Y-78637780D01*
X202864206Y-78630714D01*
X202864208Y-78630710D01*
X205788320Y-75706599D01*
X205849642Y-75673115D01*
X205919334Y-75678099D01*
X205975267Y-75719971D01*
X205999684Y-75785435D01*
X206000000Y-75794281D01*
X206000000Y-77693717D01*
X205980315Y-77760756D01*
X205963681Y-77781398D01*
X202781899Y-80963181D01*
X202720576Y-80996666D01*
X202694218Y-80999500D01*
X189965782Y-80999500D01*
X189898743Y-80979815D01*
X189878101Y-80963181D01*
X187741819Y-78826899D01*
X187708334Y-78765576D01*
X187705500Y-78739218D01*
X187705500Y-73677588D01*
X187725185Y-73610549D01*
X187727925Y-73606465D01*
X187835568Y-73452734D01*
X187862895Y-73394129D01*
X187909064Y-73341695D01*
X187976257Y-73322542D01*
X188043139Y-73342757D01*
X188087657Y-73394133D01*
X188114865Y-73452482D01*
X188245342Y-73638820D01*
X188406179Y-73799657D01*
X188592517Y-73930134D01*
X188798673Y-74026265D01*
X188798682Y-74026269D01*
X188994999Y-74078872D01*
X188995000Y-74078871D01*
X188995000Y-73115686D01*
X188999394Y-73120080D01*
X189090606Y-73172741D01*
X189192339Y-73200000D01*
X189297661Y-73200000D01*
X189399394Y-73172741D01*
X189490606Y-73120080D01*
X189495000Y-73115686D01*
X189495000Y-74078872D01*
X189691317Y-74026269D01*
X189691326Y-74026265D01*
X189897482Y-73930134D01*
X190083820Y-73799657D01*
X190244657Y-73638820D01*
X190375134Y-73452481D01*
X190375135Y-73452479D01*
X190402618Y-73393543D01*
X190448790Y-73341103D01*
X190515983Y-73321951D01*
X190582864Y-73342166D01*
X190627382Y-73393543D01*
X190654864Y-73452479D01*
X190654865Y-73452481D01*
X190785342Y-73638820D01*
X190946179Y-73799657D01*
X191132517Y-73930134D01*
X191338673Y-74026265D01*
X191338682Y-74026269D01*
X191534999Y-74078872D01*
X191535000Y-74078871D01*
X191535000Y-73115686D01*
X191539394Y-73120080D01*
X191630606Y-73172741D01*
X191732339Y-73200000D01*
X191837661Y-73200000D01*
X191939394Y-73172741D01*
X192030606Y-73120080D01*
X192035000Y-73115686D01*
X192035000Y-74078872D01*
G37*
%TD.AperFunction*%
%TA.AperFunction,Conductor*%
G36*
X129335021Y-77213185D02*
G01*
X129371791Y-77249679D01*
X129376021Y-77256153D01*
X129533216Y-77426913D01*
X129533219Y-77426915D01*
X129533222Y-77426918D01*
X129716365Y-77569464D01*
X129716371Y-77569468D01*
X129716374Y-77569470D01*
X129920497Y-77679936D01*
X129920500Y-77679937D01*
X129963401Y-77694665D01*
X130010819Y-77724265D01*
X130396415Y-78109861D01*
X130311306Y-78132667D01*
X130208694Y-78191910D01*
X130124910Y-78275694D01*
X130065667Y-78378306D01*
X130042861Y-78463415D01*
X129333811Y-77754365D01*
X129249516Y-77883390D01*
X129156317Y-78095864D01*
X129099361Y-78320781D01*
X129080202Y-78551994D01*
X129080202Y-78552005D01*
X129099361Y-78783218D01*
X129156317Y-79008135D01*
X129249515Y-79220606D01*
X129333812Y-79349633D01*
X130042861Y-78640584D01*
X130065667Y-78725694D01*
X130124910Y-78828306D01*
X130208694Y-78912090D01*
X130311306Y-78971333D01*
X130396414Y-78994137D01*
X130010818Y-79379734D01*
X129963402Y-79409334D01*
X129920498Y-79424063D01*
X129920495Y-79424064D01*
X129716371Y-79534531D01*
X129716365Y-79534535D01*
X129533222Y-79677081D01*
X129533219Y-79677084D01*
X129533216Y-79677086D01*
X129533216Y-79677087D01*
X129506661Y-79705934D01*
X129376021Y-79847847D01*
X129371791Y-79854321D01*
X129318645Y-79899678D01*
X129267982Y-79910500D01*
X127124000Y-79910500D01*
X127056961Y-79890815D01*
X127011206Y-79838011D01*
X127000000Y-79786500D01*
X127000000Y-77317500D01*
X127019685Y-77250461D01*
X127072489Y-77204706D01*
X127124000Y-77193500D01*
X129267982Y-77193500D01*
X129335021Y-77213185D01*
G37*
%TD.AperFunction*%
%TA.AperFunction,Conductor*%
G36*
X178480257Y-71074185D02*
G01*
X178500899Y-71090819D01*
X180288181Y-72878102D01*
X180321666Y-72939425D01*
X180324500Y-72965783D01*
X180324500Y-73647870D01*
X180324501Y-73647876D01*
X180330908Y-73707483D01*
X180381202Y-73842328D01*
X180381206Y-73842335D01*
X180467452Y-73957544D01*
X180467455Y-73957547D01*
X180582664Y-74043793D01*
X180582671Y-74043797D01*
X180717517Y-74094091D01*
X180717516Y-74094091D01*
X180724444Y-74094835D01*
X180777127Y-74100500D01*
X182472872Y-74100499D01*
X182532483Y-74094091D01*
X182667331Y-74043796D01*
X182782546Y-73957546D01*
X182868796Y-73842331D01*
X182919091Y-73707483D01*
X182922862Y-73672401D01*
X182949599Y-73607855D01*
X183006990Y-73568006D01*
X183076816Y-73565511D01*
X183136905Y-73601163D01*
X183147726Y-73614536D01*
X183164956Y-73639143D01*
X183328181Y-73802368D01*
X183361666Y-73863691D01*
X183364500Y-73890049D01*
X183364500Y-73952060D01*
X183344815Y-74019099D01*
X183328181Y-74039741D01*
X181164741Y-76203181D01*
X181103418Y-76236666D01*
X181077060Y-76239500D01*
X174236469Y-76239500D01*
X174169430Y-76219815D01*
X174132660Y-76183321D01*
X174088166Y-76115217D01*
X174004072Y-76023867D01*
X173919744Y-75932262D01*
X173816253Y-75851712D01*
X173775442Y-75795003D01*
X173768655Y-75746176D01*
X173770056Y-75723609D01*
X173037575Y-74991128D01*
X173096853Y-74975245D01*
X173213147Y-74908102D01*
X173308102Y-74813147D01*
X173375245Y-74696853D01*
X173391128Y-74637575D01*
X174123434Y-75369882D01*
X174223731Y-75216369D01*
X174323587Y-74988717D01*
X174384612Y-74747738D01*
X174384614Y-74747729D01*
X174405141Y-74500005D01*
X174405141Y-74499994D01*
X174384614Y-74252270D01*
X174384612Y-74252261D01*
X174323587Y-74011282D01*
X174223731Y-73783630D01*
X174123434Y-73630116D01*
X173391127Y-74362423D01*
X173375245Y-74303147D01*
X173308102Y-74186853D01*
X173213147Y-74091898D01*
X173096853Y-74024755D01*
X173037575Y-74008872D01*
X173770056Y-73276390D01*
X173768655Y-73253825D01*
X173784147Y-73185694D01*
X173816250Y-73148290D01*
X173919744Y-73067738D01*
X174088164Y-72884785D01*
X174224173Y-72676607D01*
X174324063Y-72448881D01*
X174385108Y-72207821D01*
X174390105Y-72147515D01*
X174405643Y-71960004D01*
X174405643Y-71959995D01*
X174403447Y-71933498D01*
X174417527Y-71865062D01*
X174439339Y-71835580D01*
X175184101Y-71090819D01*
X175245424Y-71057334D01*
X175271782Y-71054500D01*
X178413218Y-71054500D01*
X178480257Y-71074185D01*
G37*
%TD.AperFunction*%
%TA.AperFunction,Conductor*%
G36*
X191464920Y-72554394D02*
G01*
X191412259Y-72645606D01*
X191385000Y-72747339D01*
X191385000Y-72852661D01*
X191412259Y-72954394D01*
X191464920Y-73045606D01*
X191469314Y-73050000D01*
X189560686Y-73050000D01*
X189565080Y-73045606D01*
X189617741Y-72954394D01*
X189645000Y-72852661D01*
X189645000Y-72747339D01*
X189617741Y-72645606D01*
X189565080Y-72554394D01*
X189560686Y-72550000D01*
X191469314Y-72550000D01*
X191464920Y-72554394D01*
G37*
%TD.AperFunction*%
%TA.AperFunction,Conductor*%
G36*
X198347539Y-71074185D02*
G01*
X198393294Y-71126989D01*
X198404500Y-71178500D01*
X198404500Y-71922410D01*
X198384815Y-71989449D01*
X198382076Y-71993532D01*
X198274431Y-72147267D01*
X198247382Y-72205275D01*
X198201209Y-72257714D01*
X198134016Y-72276866D01*
X198067135Y-72256650D01*
X198022618Y-72205275D01*
X197995686Y-72147520D01*
X197995568Y-72147266D01*
X197865047Y-71960861D01*
X197865045Y-71960858D01*
X197704141Y-71799954D01*
X197517734Y-71669432D01*
X197517732Y-71669431D01*
X197311497Y-71573261D01*
X197311488Y-71573258D01*
X197091697Y-71514366D01*
X197091693Y-71514365D01*
X197091692Y-71514365D01*
X197091691Y-71514364D01*
X197091686Y-71514364D01*
X196865002Y-71494532D01*
X196864998Y-71494532D01*
X196638313Y-71514364D01*
X196638302Y-71514366D01*
X196418511Y-71573258D01*
X196418502Y-71573261D01*
X196212267Y-71669431D01*
X196212265Y-71669432D01*
X196025858Y-71799954D01*
X195864954Y-71960858D01*
X195734432Y-72147265D01*
X195734431Y-72147267D01*
X195707382Y-72205275D01*
X195661209Y-72257714D01*
X195594016Y-72276866D01*
X195527135Y-72256650D01*
X195482618Y-72205275D01*
X195455686Y-72147520D01*
X195455568Y-72147266D01*
X195325047Y-71960861D01*
X195325045Y-71960858D01*
X195164141Y-71799954D01*
X194977734Y-71669432D01*
X194977732Y-71669431D01*
X194771497Y-71573261D01*
X194771488Y-71573258D01*
X194551697Y-71514366D01*
X194551693Y-71514365D01*
X194551692Y-71514365D01*
X194551691Y-71514364D01*
X194551686Y-71514364D01*
X194325002Y-71494532D01*
X194324998Y-71494532D01*
X194098313Y-71514364D01*
X194098302Y-71514366D01*
X193878511Y-71573258D01*
X193878502Y-71573261D01*
X193672267Y-71669431D01*
X193672265Y-71669432D01*
X193485858Y-71799954D01*
X193324954Y-71960858D01*
X193227965Y-72099375D01*
X193194432Y-72147266D01*
X193194315Y-72147518D01*
X193167106Y-72205867D01*
X193120933Y-72258306D01*
X193053739Y-72277457D01*
X192986858Y-72257241D01*
X192942342Y-72205865D01*
X192915135Y-72147520D01*
X192915134Y-72147518D01*
X192784657Y-71961179D01*
X192623820Y-71800342D01*
X192437482Y-71669865D01*
X192231328Y-71573734D01*
X192035000Y-71521127D01*
X192035000Y-72484314D01*
X192030606Y-72479920D01*
X191939394Y-72427259D01*
X191837661Y-72400000D01*
X191732339Y-72400000D01*
X191630606Y-72427259D01*
X191539394Y-72479920D01*
X191535000Y-72484314D01*
X191535000Y-71521127D01*
X191338671Y-71573734D01*
X191132517Y-71669865D01*
X190946179Y-71800342D01*
X190785342Y-71961179D01*
X190654865Y-72147517D01*
X190627382Y-72206457D01*
X190581210Y-72258896D01*
X190514016Y-72278048D01*
X190447135Y-72257832D01*
X190402618Y-72206457D01*
X190375134Y-72147517D01*
X190244657Y-71961179D01*
X190083820Y-71800342D01*
X189897482Y-71669865D01*
X189691328Y-71573734D01*
X189495000Y-71521127D01*
X189495000Y-72484314D01*
X189490606Y-72479920D01*
X189399394Y-72427259D01*
X189297661Y-72400000D01*
X189192339Y-72400000D01*
X189090606Y-72427259D01*
X188999394Y-72479920D01*
X188995000Y-72484314D01*
X188995000Y-71521127D01*
X188798671Y-71573734D01*
X188592517Y-71669865D01*
X188406179Y-71800342D01*
X188245342Y-71961179D01*
X188114867Y-72147515D01*
X188087657Y-72205867D01*
X188041484Y-72258306D01*
X187974290Y-72277457D01*
X187907409Y-72257241D01*
X187862893Y-72205865D01*
X187835685Y-72147518D01*
X187835568Y-72147266D01*
X187705047Y-71960861D01*
X187705045Y-71960858D01*
X187544141Y-71799954D01*
X187357734Y-71669432D01*
X187357732Y-71669431D01*
X187151497Y-71573261D01*
X187151488Y-71573258D01*
X186931697Y-71514366D01*
X186931693Y-71514365D01*
X186931692Y-71514365D01*
X186931691Y-71514364D01*
X186931686Y-71514364D01*
X186705002Y-71494532D01*
X186704998Y-71494532D01*
X186478313Y-71514364D01*
X186478302Y-71514366D01*
X186258511Y-71573258D01*
X186258502Y-71573261D01*
X186052267Y-71669431D01*
X186052265Y-71669432D01*
X185865858Y-71799954D01*
X185704954Y-71960858D01*
X185574432Y-72147265D01*
X185574431Y-72147267D01*
X185547382Y-72205275D01*
X185501209Y-72257714D01*
X185434016Y-72276866D01*
X185367135Y-72256650D01*
X185322618Y-72205275D01*
X185295686Y-72147520D01*
X185295568Y-72147266D01*
X185165047Y-71960861D01*
X185165045Y-71960858D01*
X185004141Y-71799954D01*
X184817734Y-71669432D01*
X184817732Y-71669431D01*
X184611497Y-71573261D01*
X184611488Y-71573258D01*
X184546988Y-71555976D01*
X184487327Y-71519611D01*
X184456798Y-71456764D01*
X184465093Y-71387389D01*
X184491400Y-71348520D01*
X184596528Y-71243393D01*
X184749102Y-71090819D01*
X184810425Y-71057334D01*
X184836783Y-71054500D01*
X198280500Y-71054500D01*
X198347539Y-71074185D01*
G37*
%TD.AperFunction*%
%TA.AperFunction,Conductor*%
G36*
X192035000Y-66458872D02*
G01*
X192231317Y-66406269D01*
X192231326Y-66406265D01*
X192437482Y-66310134D01*
X192623820Y-66179657D01*
X192784657Y-66018820D01*
X192915132Y-65832484D01*
X192942341Y-65774134D01*
X192988513Y-65721695D01*
X193055707Y-65702542D01*
X193122588Y-65722757D01*
X193167106Y-65774133D01*
X193194431Y-65832732D01*
X193194432Y-65832734D01*
X193324954Y-66019141D01*
X193485858Y-66180045D01*
X193485861Y-66180047D01*
X193672266Y-66310568D01*
X193878504Y-66406739D01*
X194098308Y-66465635D01*
X194154304Y-66470534D01*
X194219373Y-66495986D01*
X194260352Y-66552577D01*
X194264230Y-66622339D01*
X194231178Y-66681743D01*
X192749741Y-68163181D01*
X192688418Y-68196666D01*
X192662060Y-68199500D01*
X182576941Y-68199500D01*
X182509902Y-68179815D01*
X182464147Y-68127011D01*
X182454203Y-68057853D01*
X182483228Y-67994297D01*
X182489260Y-67987819D01*
X183686475Y-66790602D01*
X183964674Y-66512402D01*
X184025995Y-66478919D01*
X184063156Y-66476557D01*
X184165000Y-66485468D01*
X184165000Y-66485467D01*
X184165001Y-66485468D01*
X184165002Y-66485468D01*
X184239855Y-66478919D01*
X184391692Y-66465635D01*
X184611496Y-66406739D01*
X184817734Y-66310568D01*
X185004139Y-66180047D01*
X185165047Y-66019139D01*
X185295568Y-65832734D01*
X185322618Y-65774724D01*
X185368790Y-65722285D01*
X185435983Y-65703133D01*
X185502865Y-65723348D01*
X185547382Y-65774725D01*
X185574429Y-65832728D01*
X185574432Y-65832734D01*
X185704954Y-66019141D01*
X185865858Y-66180045D01*
X185865861Y-66180047D01*
X186052266Y-66310568D01*
X186258504Y-66406739D01*
X186478308Y-66465635D01*
X186630145Y-66478919D01*
X186704998Y-66485468D01*
X186705000Y-66485468D01*
X186705002Y-66485468D01*
X186779855Y-66478919D01*
X186931692Y-66465635D01*
X187151496Y-66406739D01*
X187357734Y-66310568D01*
X187544139Y-66180047D01*
X187705047Y-66019139D01*
X187835568Y-65832734D01*
X187862895Y-65774129D01*
X187909064Y-65721695D01*
X187976257Y-65702542D01*
X188043139Y-65722757D01*
X188087657Y-65774133D01*
X188114865Y-65832482D01*
X188245342Y-66018820D01*
X188406179Y-66179657D01*
X188592517Y-66310134D01*
X188798673Y-66406265D01*
X188798682Y-66406269D01*
X188994999Y-66458872D01*
X188995000Y-66458871D01*
X188995000Y-65495686D01*
X188999394Y-65500080D01*
X189090606Y-65552741D01*
X189192339Y-65580000D01*
X189297661Y-65580000D01*
X189399394Y-65552741D01*
X189490606Y-65500080D01*
X189495000Y-65495686D01*
X189495000Y-66458872D01*
X189691317Y-66406269D01*
X189691326Y-66406265D01*
X189897482Y-66310134D01*
X190083820Y-66179657D01*
X190244657Y-66018820D01*
X190375134Y-65832481D01*
X190375135Y-65832479D01*
X190402618Y-65773543D01*
X190448790Y-65721103D01*
X190515983Y-65701951D01*
X190582864Y-65722166D01*
X190627382Y-65773543D01*
X190654864Y-65832479D01*
X190654865Y-65832481D01*
X190785342Y-66018820D01*
X190946179Y-66179657D01*
X191132517Y-66310134D01*
X191338673Y-66406265D01*
X191338682Y-66406269D01*
X191534999Y-66458872D01*
X191535000Y-66458871D01*
X191535000Y-65495686D01*
X191539394Y-65500080D01*
X191630606Y-65552741D01*
X191732339Y-65580000D01*
X191837661Y-65580000D01*
X191939394Y-65552741D01*
X192030606Y-65500080D01*
X192035000Y-65495686D01*
X192035000Y-66458872D01*
G37*
%TD.AperFunction*%
%TA.AperFunction,Conductor*%
G36*
X197101257Y-56520185D02*
G01*
X197121898Y-56536818D01*
X202642860Y-62057781D01*
X202642861Y-62057782D01*
X202782218Y-62197139D01*
X202782219Y-62197140D01*
X202946079Y-62306628D01*
X202946092Y-62306635D01*
X203074833Y-62359961D01*
X203117744Y-62377735D01*
X203128164Y-62382051D01*
X203224812Y-62401275D01*
X203273135Y-62410887D01*
X203321458Y-62420500D01*
X205876000Y-62420500D01*
X205943039Y-62440185D01*
X205988794Y-62492989D01*
X206000000Y-62544500D01*
X206000000Y-65375500D01*
X205980315Y-65442539D01*
X205927511Y-65488294D01*
X205876000Y-65499500D01*
X204965783Y-65499500D01*
X204898744Y-65479815D01*
X204878102Y-65463181D01*
X201284209Y-61869289D01*
X201284206Y-61869285D01*
X201284206Y-61869286D01*
X201277139Y-61862219D01*
X201277139Y-61862218D01*
X201137782Y-61722861D01*
X201137781Y-61722860D01*
X201137780Y-61722859D01*
X200973916Y-61613369D01*
X200973911Y-61613366D01*
X200867257Y-61569189D01*
X200845165Y-61560038D01*
X200824541Y-61551495D01*
X200791840Y-61537950D01*
X200791836Y-61537949D01*
X200694260Y-61518540D01*
X200694256Y-61518539D01*
X200598543Y-61499500D01*
X200598541Y-61499500D01*
X197103540Y-61499500D01*
X196906459Y-61499500D01*
X196906456Y-61499500D01*
X196713171Y-61537946D01*
X196713167Y-61537948D01*
X196713165Y-61537948D01*
X196713164Y-61537949D01*
X196637745Y-61569188D01*
X196637743Y-61569189D01*
X196531085Y-61613368D01*
X196531085Y-61613369D01*
X196531084Y-61613369D01*
X196367222Y-61722857D01*
X196367214Y-61722863D01*
X194236966Y-63853111D01*
X194175643Y-63886596D01*
X194160095Y-63888958D01*
X194098307Y-63894365D01*
X193878511Y-63953258D01*
X193878502Y-63953261D01*
X193672267Y-64049431D01*
X193672265Y-64049432D01*
X193485858Y-64179954D01*
X193324954Y-64340858D01*
X193194433Y-64527264D01*
X193194432Y-64527266D01*
X193194315Y-64527518D01*
X193167106Y-64585867D01*
X193120933Y-64638306D01*
X193053739Y-64657457D01*
X192986858Y-64637241D01*
X192942342Y-64585865D01*
X192915135Y-64527520D01*
X192915134Y-64527518D01*
X192784657Y-64341179D01*
X192623820Y-64180342D01*
X192437482Y-64049865D01*
X192231328Y-63953734D01*
X192035000Y-63901127D01*
X192035000Y-64864314D01*
X192030606Y-64859920D01*
X191939394Y-64807259D01*
X191837661Y-64780000D01*
X191732339Y-64780000D01*
X191630606Y-64807259D01*
X191539394Y-64859920D01*
X191535000Y-64864314D01*
X191535000Y-63901127D01*
X191338671Y-63953734D01*
X191132517Y-64049865D01*
X190946179Y-64180342D01*
X190785342Y-64341179D01*
X190654865Y-64527517D01*
X190627382Y-64586457D01*
X190581210Y-64638896D01*
X190514016Y-64658048D01*
X190447135Y-64637832D01*
X190402618Y-64586457D01*
X190375134Y-64527517D01*
X190244657Y-64341179D01*
X190083820Y-64180342D01*
X189897482Y-64049865D01*
X189691328Y-63953734D01*
X189495000Y-63901127D01*
X189495000Y-64864314D01*
X189490606Y-64859920D01*
X189399394Y-64807259D01*
X189297661Y-64780000D01*
X189192339Y-64780000D01*
X189090606Y-64807259D01*
X188999394Y-64859920D01*
X188995000Y-64864314D01*
X188995000Y-63901127D01*
X188798671Y-63953734D01*
X188592517Y-64049865D01*
X188406179Y-64180342D01*
X188245342Y-64341179D01*
X188114867Y-64527515D01*
X188087657Y-64585867D01*
X188041484Y-64638306D01*
X187974290Y-64657457D01*
X187907409Y-64637241D01*
X187862893Y-64585865D01*
X187852644Y-64563887D01*
X187835568Y-64527266D01*
X187727924Y-64373532D01*
X187705597Y-64307326D01*
X187705500Y-64302410D01*
X187705500Y-58760782D01*
X187725185Y-58693743D01*
X187741819Y-58673101D01*
X189878101Y-56536819D01*
X189939424Y-56503334D01*
X189965782Y-56500500D01*
X197034218Y-56500500D01*
X197101257Y-56520185D01*
G37*
%TD.AperFunction*%
%TA.AperFunction,Conductor*%
G36*
X191464920Y-64934394D02*
G01*
X191412259Y-65025606D01*
X191385000Y-65127339D01*
X191385000Y-65232661D01*
X191412259Y-65334394D01*
X191464920Y-65425606D01*
X191469314Y-65430000D01*
X189560686Y-65430000D01*
X189565080Y-65425606D01*
X189617741Y-65334394D01*
X189645000Y-65232661D01*
X189645000Y-65127339D01*
X189617741Y-65025606D01*
X189565080Y-64934394D01*
X189560686Y-64930000D01*
X191469314Y-64930000D01*
X191464920Y-64934394D01*
G37*
%TD.AperFunction*%
%TD*%
%TA.AperFunction,Conductor*%
%TO.N,GND*%
G36*
X156935541Y-38519685D02*
G01*
X156981296Y-38572489D01*
X156991240Y-38641647D01*
X156962215Y-38705203D01*
X156903437Y-38742977D01*
X156900596Y-38743775D01*
X156871514Y-38751567D01*
X156871507Y-38751570D01*
X156657422Y-38851399D01*
X156657420Y-38851400D01*
X156463926Y-38986886D01*
X156463920Y-38986891D01*
X156296891Y-39153920D01*
X156296886Y-39153926D01*
X156161400Y-39347420D01*
X156161399Y-39347422D01*
X156061570Y-39561507D01*
X156061567Y-39561513D01*
X156004364Y-39774999D01*
X156004364Y-39775000D01*
X156901988Y-39775000D01*
X156869075Y-39832007D01*
X156835000Y-39959174D01*
X156835000Y-40090826D01*
X156869075Y-40217993D01*
X156901988Y-40275000D01*
X156004364Y-40275000D01*
X156061567Y-40488486D01*
X156061570Y-40488492D01*
X156161399Y-40702578D01*
X156296894Y-40896082D01*
X156463917Y-41063105D01*
X156657421Y-41198600D01*
X156871507Y-41298429D01*
X156871516Y-41298433D01*
X157085000Y-41355634D01*
X157085000Y-40458012D01*
X157142007Y-40490925D01*
X157269174Y-40525000D01*
X157400826Y-40525000D01*
X157527993Y-40490925D01*
X157585000Y-40458012D01*
X157585000Y-41355633D01*
X157798483Y-41298433D01*
X157798492Y-41298429D01*
X158012578Y-41198600D01*
X158206082Y-41063105D01*
X158288319Y-40980869D01*
X158349642Y-40947384D01*
X158419334Y-40952368D01*
X158475267Y-40994240D01*
X158499684Y-41059704D01*
X158500000Y-41068550D01*
X158500000Y-55000000D01*
X152500000Y-55000000D01*
X152500000Y-38624000D01*
X152519685Y-38556961D01*
X152572489Y-38511206D01*
X152624000Y-38500000D01*
X156868502Y-38500000D01*
X156935541Y-38519685D01*
G37*
%TD.AperFunction*%
%TD*%
M02*
