M48
; DRILL file {KiCad 8.0.4} date 2024-09-12T05:22:40-0500
; FORMAT={-:-/ absolute / inch / decimal}
; #@! TF.CreationDate,2024-09-12T05:22:40-05:00
; #@! TF.GenerationSoftware,Kicad,Pcbnew,8.0.4
; #@! TF.FileFunction,Plated,1,2,PTH
FMAT,2
INCH
; #@! TA.AperFunction,Plated,PTH,ViaDrill
T1C0.0256
; #@! TA.AperFunction,Plated,PTH,ComponentDrill
T2C0.0315
; #@! TA.AperFunction,Plated,PTH,ComponentDrill
T3C0.0354
; #@! TA.AperFunction,Plated,PTH,ComponentDrill
T4C0.0394
; #@! TA.AperFunction,Plated,PTH,ComponentDrill
T5C0.0402
; #@! TA.AperFunction,Plated,PTH,ComponentDrill
T6C0.0598
%
G90
G05
T1
X6.378Y-2.9331
X6.4173Y-3.9567
X6.5748Y-3.1299
X6.5748Y-3.2874
X6.6732Y-2.9331
X6.7126Y-3.9567
X7.0318Y-2.8697
X7.4213Y-3.5236
X7.5394Y-2.4213
X7.5591Y-2.9528
X7.6378Y-3.1496
X7.7559Y-2.9921
X7.7559Y-3.2797
T2
X5.3543Y-2.7819
X5.3543Y-2.9393
X5.3543Y-3.0968
X5.3543Y-3.2937
X5.3543Y-3.4511
X5.3543Y-3.6086
X5.3543Y-3.8055
X5.3543Y-3.963
X5.3543Y-4.1204
X5.6543Y-2.7819
X5.6543Y-2.9393
X5.6543Y-3.0968
X5.6543Y-3.2937
X5.6543Y-3.4511
X5.6543Y-3.6086
X5.6543Y-3.8055
X5.6543Y-3.963
X5.6543Y-4.1204
X6.9606Y-3.4551
X6.9606Y-3.6126
X6.9606Y-3.7701
X7.1506Y-2.5661
X7.1506Y-2.8661
X7.2441Y-1.8898
X7.2506Y-2.5661
X7.2506Y-2.8661
X7.2606Y-3.4551
X7.2606Y-3.6126
X7.2606Y-3.7701
X7.3228Y-1.8898
X7.3506Y-2.5661
X7.3506Y-2.8661
X7.4506Y-2.5661
X7.4506Y-2.8661
X7.5506Y-2.5661
X7.5506Y-2.8661
X7.6506Y-2.5661
X7.6506Y-2.8661
X7.7506Y-2.5661
X7.7506Y-2.8661
X7.8506Y-2.5661
X7.8506Y-2.8661
T3
X4.6856Y-3.3247
X4.6856Y-3.4097
X4.6856Y-3.4947
X4.6856Y-3.5797
X4.7047Y-3.7464
X4.7047Y-3.8314
X4.7047Y-3.9164
X4.7047Y-4.0014
X4.7244Y-2.9268
X4.7244Y-3.0118
X4.7244Y-3.0968
X4.7244Y-3.1818
X5.0984Y-3.3205
X5.0984Y-3.4055
X5.0984Y-3.4905
X5.0984Y-3.5755
X5.1175Y-3.7485
X5.1175Y-3.8335
X5.1175Y-3.9185
X5.1175Y-4.0035
X5.1372Y-2.9226
X5.1372Y-3.0076
X5.1372Y-3.0926
X5.1372Y-3.1776
X7.5197Y-3.4914
X7.5197Y-3.5764
X7.5197Y-3.6614
X7.5197Y-3.7464
X7.815Y-3.4914
X7.815Y-3.5764
X7.815Y-3.6614
X7.815Y-3.7464
T4
X5.0778Y-4.3089
X5.0778Y-4.4089
X5.0778Y-4.5089
X6.1943Y-1.5758
X6.2943Y-1.5758
X7.0079Y-3.9685
X7.0079Y-4.0685
X7.0079Y-4.1685
X7.0079Y-4.2685
X7.0079Y-4.3685
X7.0079Y-4.4685
X7.0079Y-4.5685
X7.0079Y-4.6685
X7.0079Y-4.7685
X7.0079Y-4.8685
X7.0079Y-4.9685
T5
X5.8071Y-2.8331
X5.8071Y-2.9331
X5.8071Y-3.0331
X5.8071Y-3.1331
X5.8071Y-3.2331
X5.8071Y-3.3331
X5.8071Y-3.4331
X5.8071Y-3.5331
X5.8071Y-3.6331
X5.8071Y-3.7331
X5.8071Y-3.8331
X5.8071Y-3.9331
X5.8071Y-4.0331
X5.8071Y-4.1331
X5.8071Y-4.2331
X6.8071Y-2.8331
X6.8071Y-2.9331
X6.8071Y-3.0331
X6.8071Y-3.1331
X6.8071Y-3.2331
X6.8071Y-3.3331
X6.8071Y-3.4331
X6.8071Y-3.5331
X6.8071Y-3.6331
X6.8071Y-3.7331
X6.8071Y-3.8331
X6.8071Y-3.9331
X6.8071Y-4.0331
X6.8071Y-4.1331
X6.8071Y-4.2331
T6
X8.2087Y-2.4181
X8.2087Y-2.6181
X8.2087Y-2.8181
X8.2087Y-3.0181
X8.7008Y-3.337
X8.7008Y-3.537
X8.7008Y-3.737
X8.7008Y-3.937
M30
