%TF.GenerationSoftware,KiCad,Pcbnew,8.0.4*%
%TF.CreationDate,2024-09-12T05:22:36-05:00*%
%TF.ProjectId,Robt,526f6274-2e6b-4696-9361-645f70636258,rev?*%
%TF.SameCoordinates,Original*%
%TF.FileFunction,Soldermask,Top*%
%TF.FilePolarity,Negative*%
%FSLAX46Y46*%
G04 Gerber Fmt 4.6, Leading zero omitted, Abs format (unit mm)*
G04 Created by KiCad (PCBNEW 8.0.4) date 2024-09-12 05:22:36*
%MOMM*%
%LPD*%
G01*
G04 APERTURE LIST*
G04 Aperture macros list*
%AMRoundRect*
0 Rectangle with rounded corners*
0 $1 Rounding radius*
0 $2 $3 $4 $5 $6 $7 $8 $9 X,Y pos of 4 corners*
0 Add a 4 corners polygon primitive as box body*
4,1,4,$2,$3,$4,$5,$6,$7,$8,$9,$2,$3,0*
0 Add four circle primitives for the rounded corners*
1,1,$1+$1,$2,$3*
1,1,$1+$1,$4,$5*
1,1,$1+$1,$6,$7*
1,1,$1+$1,$8,$9*
0 Add four rect primitives between the rounded corners*
20,1,$1+$1,$2,$3,$4,$5,0*
20,1,$1+$1,$4,$5,$6,$7,0*
20,1,$1+$1,$6,$7,$8,$9,0*
20,1,$1+$1,$8,$9,$2,$3,0*%
G04 Aperture macros list end*
%ADD10C,3.200000*%
%ADD11R,1.600000X1.600000*%
%ADD12C,1.600000*%
%ADD13O,1.600000X1.600000*%
%ADD14R,3.000000X3.000000*%
%ADD15C,3.000000*%
%ADD16R,1.700000X1.700000*%
%ADD17O,1.700000X1.700000*%
%ADD18C,1.800000*%
%ADD19R,1.800000X1.800000*%
%ADD20RoundRect,0.102000X-1.000000X-1.000000X1.000000X-1.000000X1.000000X1.000000X-1.000000X1.000000X0*%
%ADD21C,2.204000*%
G04 APERTURE END LIST*
D10*
%TO.C,REF\u002A\u002A*%
X132000000Y-129500000D03*
%TD*%
%TO.C,REF\u002A\u002A*%
X207000000Y-47000000D03*
%TD*%
%TO.C,REF\u002A\u002A*%
X205000000Y-136000000D03*
%TD*%
%TO.C,REF\u002A\u002A*%
X141500000Y-45000000D03*
%TD*%
D11*
%TO.C,C1*%
X184000000Y-48000000D03*
D12*
X186000000Y-48000000D03*
%TD*%
D11*
%TO.C,U2*%
X181625000Y-72800000D03*
D13*
X184165000Y-72800000D03*
X186705000Y-72800000D03*
X189245000Y-72800000D03*
X191785000Y-72800000D03*
X194325000Y-72800000D03*
X196865000Y-72800000D03*
X199405000Y-72800000D03*
X199405000Y-65180000D03*
X196865000Y-65180000D03*
X194325000Y-65180000D03*
X191785000Y-65180000D03*
X189245000Y-65180000D03*
X186705000Y-65180000D03*
X184165000Y-65180000D03*
X181625000Y-65180000D03*
%TD*%
%TO.C,R15*%
X143620000Y-104659000D03*
D12*
X136000000Y-104659000D03*
%TD*%
D13*
%TO.C,R14*%
X143620000Y-100659000D03*
D12*
X136000000Y-100659000D03*
%TD*%
D13*
%TO.C,R13*%
X143620000Y-96659000D03*
D12*
X136000000Y-96659000D03*
%TD*%
D13*
%TO.C,R12*%
X143620000Y-83659000D03*
D12*
X136000000Y-83659000D03*
%TD*%
D13*
%TO.C,R11*%
X143620000Y-87659000D03*
D12*
X136000000Y-87659000D03*
%TD*%
D13*
%TO.C,R10*%
X143620000Y-91659000D03*
D12*
X136000000Y-91659000D03*
%TD*%
D13*
%TO.C,R9*%
X143620000Y-74659000D03*
D12*
X136000000Y-74659000D03*
%TD*%
%TO.C,R8*%
X136000000Y-78659000D03*
D13*
X143620000Y-78659000D03*
%TD*%
D12*
%TO.C,R4*%
X176800000Y-91760000D03*
D13*
X184420000Y-91760000D03*
%TD*%
D12*
%TO.C,R3*%
X176800000Y-87760000D03*
D13*
X184420000Y-87760000D03*
%TD*%
D12*
%TO.C,R2*%
X176800000Y-95760000D03*
D13*
X184420000Y-95760000D03*
%TD*%
%TO.C,R1*%
X143620000Y-70659000D03*
D12*
X136000000Y-70659000D03*
%TD*%
D14*
%TO.C,J4*%
X221000000Y-84760000D03*
D15*
X221000000Y-89840000D03*
X221000000Y-94920000D03*
X221000000Y-100000000D03*
%TD*%
%TO.C,J3*%
X208500000Y-61420000D03*
X208500000Y-66500000D03*
X208500000Y-71580000D03*
D14*
X208500000Y-76660000D03*
%TD*%
D16*
%TO.C,J2*%
X178000000Y-126200000D03*
D17*
X178000000Y-123660000D03*
X178000000Y-121120000D03*
X178000000Y-118580000D03*
X178000000Y-116040000D03*
X178000000Y-113500000D03*
X178000000Y-110960000D03*
X178000000Y-108420000D03*
X178000000Y-105880000D03*
X178000000Y-103340000D03*
X178000000Y-100800000D03*
%TD*%
D16*
%TO.C,J1*%
X128975000Y-114525000D03*
D17*
X128975000Y-111985000D03*
X128975000Y-109445000D03*
%TD*%
D18*
%TO.C,D10*%
X119500000Y-101636000D03*
X119500000Y-99477000D03*
X119500000Y-97318000D03*
D19*
X119500000Y-95159000D03*
%TD*%
D18*
%TO.C,D9*%
X129985000Y-101688000D03*
X129985000Y-99529000D03*
X129985000Y-97370000D03*
D19*
X129985000Y-95211000D03*
%TD*%
D18*
%TO.C,D8*%
X119015000Y-90925000D03*
X119015000Y-88766000D03*
X119015000Y-86607000D03*
D19*
X119015000Y-84448000D03*
%TD*%
D18*
%TO.C,D7*%
X129500000Y-90818000D03*
X129500000Y-88659000D03*
X129500000Y-86500000D03*
D19*
X129500000Y-84341000D03*
%TD*%
D18*
%TO.C,D6*%
X120000000Y-80818000D03*
X120000000Y-78659000D03*
X120000000Y-76500000D03*
D19*
X120000000Y-74341000D03*
%TD*%
D18*
%TO.C,D3*%
X191000000Y-95159000D03*
X191000000Y-93000000D03*
X191000000Y-90841000D03*
D19*
X191000000Y-88682000D03*
%TD*%
D18*
%TO.C,D2*%
X130485000Y-80711000D03*
X130485000Y-78552000D03*
X130485000Y-76393000D03*
D19*
X130485000Y-74234000D03*
%TD*%
D18*
%TO.C,D1*%
X198500000Y-95159000D03*
X198500000Y-93000000D03*
X198500000Y-90841000D03*
D19*
X198500000Y-88682000D03*
%TD*%
D17*
%TO.C,BT1*%
X157335000Y-40025000D03*
D16*
X159875000Y-40025000D03*
%TD*%
D20*
%TO.C,U1*%
X147500000Y-71960000D03*
D21*
X147500000Y-74500000D03*
X147500000Y-77040000D03*
X147500000Y-79580000D03*
X147500000Y-82120000D03*
X147500000Y-84660000D03*
X147500000Y-87200000D03*
X147500000Y-89740000D03*
X147500000Y-92280000D03*
X147500000Y-94820000D03*
X147500000Y-97360000D03*
X147500000Y-99900000D03*
X147500000Y-102440000D03*
X147500000Y-104980000D03*
X147500000Y-107520000D03*
X172900000Y-71960000D03*
X172900000Y-74500000D03*
X172900000Y-77040000D03*
X172900000Y-79580000D03*
X172900000Y-82120000D03*
X172900000Y-84660000D03*
X172900000Y-87200000D03*
X172900000Y-89740000D03*
X172900000Y-92280000D03*
X172900000Y-94820000D03*
X172900000Y-97360000D03*
X172900000Y-99900000D03*
X172900000Y-102440000D03*
X172900000Y-104980000D03*
X172900000Y-107520000D03*
D15*
X147920000Y-110950000D03*
X172430000Y-110950000D03*
X172430000Y-64000000D03*
X147920000Y-64000000D03*
%TD*%
M02*
